<svg width="130" height="130" viewBox="0 0 130 130" fill="none" xmlns="http://www.w3.org/2000/svg">
<rect width="130" height="130" rx="10" fill="#111111"/>
<path d="M108.423 75.5999C108.857 75.5999 109.19 75.7999 109.423 76.1999C109.69 76.5999 109.823 77.1499 109.823 77.8499C109.823 79.1499 109.507 80.1832 108.873 80.9499C105.573 84.9832 102.057 86.9999 98.3233 86.9999C95.09 86.9999 92.5067 85.7499 90.5733 83.2499C88.64 80.7499 87.6733 77.1666 87.6733 72.4999C87.6733 71.3666 87.7233 70.2332 87.8233 69.0999C85.6233 69.4999 83.2233 69.7999 80.6233 69.9999C78.89 70.1332 77.7067 70.2166 77.0733 70.2499C76.4067 73.6499 75.4733 77.8166 74.2733 82.7499C73.5733 85.6499 72.24 87.0999 70.2733 87.0999C68.14 87.0999 67.0733 86.1332 67.0733 84.1999C67.0733 83.7666 67.1567 83.1666 67.3233 82.3999C68.4567 77.8332 69.3567 73.9666 70.0233 70.7999L67.6233 70.8999C66.5233 70.8999 65.7233 70.7166 65.2233 70.3499C64.7233 69.9499 64.4733 69.3166 64.4733 68.4499C64.4733 67.3499 64.79 66.5499 65.4233 66.0499C66.0567 65.5166 67.1067 65.2166 68.5733 65.1499L71.2233 65.0499C72.09 60.3499 72.5233 56.7666 72.5233 54.2999C72.5233 52.7332 72.29 51.6666 71.8233 51.0999C71.3567 50.5332 70.74 50.2499 69.9733 50.2499C67.64 50.2499 65.0067 52.1999 62.0733 56.0999C61.64 56.6666 61.1567 56.9499 60.6233 56.9499C60.1567 56.9499 59.7567 56.7332 59.4233 56.2999C59.09 55.8666 58.9233 55.3166 58.9233 54.6499C58.9233 53.6166 59.34 52.5166 60.1733 51.3499C61.64 49.3166 63.49 47.6499 65.7233 46.3499C67.9567 45.0166 70.2233 44.3499 72.5233 44.3499C74.69 44.3499 76.3567 45.0999 77.5233 46.5999C78.7233 48.0666 79.3233 50.3666 79.3233 53.4999C79.3233 56.2666 78.9233 60.0166 78.1233 64.7499L83.0233 64.4999C85.1233 64.3999 86.9233 64.2332 88.4233 63.9999C89.0233 60.3332 89.94 56.8999 91.1733 53.6999C92.4067 50.4999 93.94 47.8999 95.7733 45.8999C97.6067 43.8999 99.6567 42.8999 101.923 42.8999C103.59 42.8999 104.907 43.5666 105.873 44.8999C106.84 46.1999 107.323 47.9166 107.323 50.0499C107.323 58.3166 103.107 64.0499 94.6733 67.2499C94.5733 68.5832 94.5233 69.9666 94.5233 71.3999C94.5233 74.8999 94.9567 77.3832 95.8233 78.8499C96.69 80.3166 97.9067 81.0499 99.4733 81.0499C100.84 81.0499 102.09 80.6999 103.223 79.9999C104.357 79.2666 105.64 78.0332 107.073 76.2999C107.473 75.8332 107.923 75.5999 108.423 75.5999ZM101.673 47.2499C100.94 47.2499 100.157 47.9166 99.3233 49.2499C98.5233 50.5832 97.7567 52.3999 97.0233 54.6999C96.29 56.9999 95.7067 59.5166 95.2733 62.2499C97.94 61.1499 99.9067 59.5832 101.173 57.5499C102.44 55.5166 103.073 52.8999 103.073 49.6999C103.073 48.9332 102.94 48.3332 102.673 47.8999C102.407 47.4666 102.073 47.2499 101.673 47.2499Z" fill="white"/>
<path d="M33.3265 87C31.3932 87 29.2098 86.8333 26.7765 86.5C25.4432 86.3333 24.5265 85.9833 24.0265 85.45C23.5265 84.9167 23.3098 84.05 23.3765 82.85C23.6098 79.55 24.1598 75.4833 25.0265 70.65C25.8932 65.7833 26.9432 61.1 28.1765 56.6C28.4098 55.7667 28.8765 55.1833 29.5765 54.85C30.2765 54.5167 31.1932 54.35 32.3265 54.35C34.3598 54.35 35.3765 54.9167 35.3765 56.05C35.3765 56.5167 35.2765 57.05 35.0765 57.65C34.2098 60.3167 33.3432 63.9 32.4765 68.4C31.6098 72.8667 30.9932 77.1333 30.6265 81.2C31.6265 81.3 32.7598 81.35 34.0265 81.35C39.8598 81.35 44.2098 79.5833 47.0765 76.05C49.9765 72.5167 51.4265 67.8 51.4265 61.9C51.4265 57.9333 50.2932 54.8667 48.0265 52.7C45.7598 50.5333 42.5598 49.45 38.4265 49.45C35.7598 49.45 33.1098 49.8667 30.4765 50.7C27.8765 51.5333 25.5265 52.6333 23.4265 54C22.9932 54.3 22.5265 54.45 22.0265 54.45C21.4598 54.45 21.0098 54.2167 20.6765 53.75C20.3432 53.25 20.1765 52.65 20.1765 51.95C20.1765 51.15 20.3098 50.5 20.5765 50C20.8432 49.4667 21.2932 48.9833 21.9265 48.55C24.2265 46.9833 26.9265 45.8 30.0265 45C33.1265 44.1667 36.1098 43.75 38.9765 43.75C43.0432 43.75 46.5598 44.4667 49.5265 45.9C52.4932 47.3 54.7765 49.3667 56.3765 52.1C57.9765 54.8333 58.7765 58.1333 58.7765 62C58.7765 67.0333 57.7765 71.4333 55.7765 75.2C53.7765 78.9333 50.8598 81.8333 47.0265 83.9C43.1932 85.9667 38.6265 87 33.3265 87Z" fill="white"/>
</svg>
