<svg width="75" height="76" viewBox="0 0 75 76" fill="none" xmlns="http://www.w3.org/2000/svg">
<path fill-rule="evenodd" clip-rule="evenodd" d="M10.43 53.566C10.43 53.566 18.43 63.936 18.91 64.396C20.07 65.506 21.64 66.086 23.24 65.996C31.61 65.576 50.78 64.616 58.81 64.216C61.92 64.056 64.36 61.496 64.37 58.386L64.47 22.886C64.47 20.896 63.44 19.056 61.75 18.016C58.76 16.176 52.84 12.526 51.05 11.336C49.59 10.366 47.85 9.90598 46.09 10.016C40.13 10.396 22.64 11.526 15.24 11.996C12.28 12.186 10 14.616 10 17.536V52.316C10 52.766 10.15 53.206 10.43 53.556V53.566ZM60.44 24.656V24.676L60.34 58.376C60.34 59.346 59.57 60.146 58.6 60.196L23.03 61.976C22.53 62.006 22.04 61.816 21.68 61.476C21.32 61.136 21.11 60.656 21.11 60.156V26.716C21.11 25.746 21.86 24.946 22.83 24.896L58.5 22.836C59 22.806 59.49 22.986 59.86 23.336C60.22 23.676 60.43 24.156 60.43 24.656H60.44ZM48.46 46.076V32.356C47.83 31.636 46.83 31.686 45.39 31.246C45.29 31.216 45.2 31.136 45.16 31.036C45.12 30.936 45.13 30.816 45.19 30.726C46.91 28.196 51.82 29.776 55.02 28.766C55.11 28.736 55.22 28.746 55.3 28.816C55.38 28.886 55.41 28.986 55.39 29.086C55.08 30.476 53.99 31.186 52.44 31.486V54.056C52.44 54.806 51.99 55.496 51.29 55.776C50.65 56.036 49.98 56.316 49.98 56.316C48.44 57.116 46.55 56.606 45.61 55.146L34.15 37.276V53.546C34.77 54.266 35.78 54.216 37.22 54.656C37.32 54.686 37.41 54.766 37.45 54.866C37.49 54.966 37.48 55.086 37.42 55.176C35.69 57.706 30.79 56.126 27.59 57.136C27.5 57.176 27.39 57.156 27.31 57.086C27.23 57.026 27.2 56.916 27.22 56.816C27.53 55.426 28.62 54.716 30.17 54.416V33.106L27.15 32.816C27.15 32.816 27.36 30.366 30.24 30.086C31.66 29.946 35.37 29.786 36.71 29.726C37.01 29.716 37.3 29.856 37.48 30.106L48.47 46.056L48.46 46.076ZM20.26 20.286C20.81 20.706 21.5 20.916 22.19 20.876C27.28 20.586 49.01 19.346 54.4 19.036C54.57 19.026 54.71 18.906 54.75 18.746C54.79 18.586 54.72 18.416 54.58 18.326C52.19 16.836 49.84 15.376 48.82 14.696C48.09 14.216 47.22 13.986 46.34 14.036C46.34 14.036 21.64 15.396 16.56 15.946C15.92 16.016 15.78 16.246 15.76 16.336C15.67 16.646 15.78 16.876 16.03 17.076C17.05 17.856 19.1 19.406 20.26 20.286Z" fill="white"/>
</svg>
