<svg width="76" height="76" viewBox="0 0 76 76" fill="none" xmlns="http://www.w3.org/2000/svg">
<path fill-rule="evenodd" clip-rule="evenodd" d="M15 5C9.47705 5 5 9.47705 5 15V61C5 66.5229 9.47705 71 15 71H61C66.5229 71 71 66.5229 71 61V15C71 9.47705 66.5229 5 61 5H15ZM20.6836 50H26.2207L28.0835 44.292H37.0386L38.9014 50H44.4043L35.8594 25.2539H29.2627L20.6836 50ZM35.7397 40.293H29.3823L32.4756 30.8252H32.6465L35.7397 40.293ZM47.907 31.4404V50H52.9656V31.4404H47.907ZM50.4363 23.8525C48.9153 23.8696 47.6677 25.0146 47.6677 26.4502C47.6677 27.8516 48.9153 29.0137 50.4363 29.0137C51.9402 29.0137 53.1877 27.8516 53.1707 26.4502C53.1877 25.0146 51.9402 23.8696 50.4363 23.8525Z" fill="white"/>
</svg>
