<svg width="84" height="33" viewBox="0 0 84 33" fill="none" xmlns="http://www.w3.org/2000/svg">
<g filter="url(#filter0_d_130_1080)">
<path d="M81.1493 23.5561C81.4226 23.5561 81.6328 23.6822 81.78 23.9345C81.9482 24.1868 82.0323 24.5337 82.0323 24.9751C82.0323 25.732 81.8536 26.3837 81.4962 26.9303C80.9075 27.8342 80.1297 28.5385 79.1627 29.043C78.2166 29.5476 77.0814 29.7999 75.757 29.7999C73.7388 29.7999 72.1726 29.2007 71.0584 28.0024C69.9442 26.7831 69.3871 25.1433 69.3871 23.0831C69.3871 21.6325 69.6919 20.2871 70.3015 19.0467C70.9112 17.7853 71.7521 16.7868 72.8243 16.051C73.9175 15.3152 75.1473 14.9473 76.5138 14.9473C77.7331 14.9473 78.7107 15.3152 79.4465 16.051C80.1823 16.7657 80.5502 17.7433 80.5502 18.9836C80.5502 20.4342 80.0246 21.6851 78.9734 22.7362C77.9433 23.7663 76.1774 24.5862 73.6757 25.1959C74.1803 26.1629 75.0317 26.6464 76.23 26.6464C77.0919 26.6464 77.7962 26.4467 78.3428 26.0473C78.9104 25.6479 79.5621 24.9751 80.2979 24.0291C80.5502 23.7138 80.834 23.5561 81.1493 23.5561ZM75.9777 18.0376C75.1999 18.0376 74.5376 18.4896 73.991 19.3936C73.4655 20.2976 73.2027 21.3908 73.2027 22.6731V22.7362C74.443 22.4419 75.4206 22.0004 76.1354 21.4118C76.8501 20.8231 77.2075 20.1399 77.2075 19.3621C77.2075 18.9626 77.0919 18.6473 76.8607 18.416C76.6504 18.1637 76.3561 18.0376 75.9777 18.0376Z" fill="#03E8F9"/>
</g>
<g filter="url(#filter1_d_130_1080)">
<path d="M71.5447 22.6101C71.818 22.6101 72.0282 22.7362 72.1754 22.9885C72.3436 23.2408 72.4277 23.5876 72.4277 24.0291C72.4277 24.87 72.2279 25.5217 71.8285 25.9842C71.0507 26.9303 69.947 27.8027 68.5174 28.6016C67.1089 29.4004 65.5953 29.7999 63.9765 29.7999C61.7691 29.7999 60.0558 29.2007 58.8364 28.0024C57.6171 26.8041 57.0074 25.1643 57.0074 23.0831C57.0074 21.6325 57.3123 20.2871 57.9219 19.0467C58.5316 17.7853 59.3725 16.7868 60.4447 16.051C61.5379 15.3152 62.7677 14.9473 64.1342 14.9473C65.3535 14.9473 66.3311 15.3152 67.0669 16.051C67.8027 16.7657 68.1706 17.7433 68.1706 18.9836C68.1706 20.4342 67.645 21.6851 66.5938 22.7362C65.5637 23.7663 63.8083 24.5862 61.3276 25.1959C61.8532 26.1629 62.8518 26.6464 64.3234 26.6464C65.2694 26.6464 66.3416 26.3206 67.5399 25.6689C68.7592 24.9962 69.8103 24.1237 70.6933 23.0515C70.9456 22.7572 71.2294 22.6101 71.5447 22.6101ZM63.5981 18.0376C62.8202 18.0376 62.158 18.4896 61.6114 19.3936C61.0859 20.2976 60.8231 21.3908 60.8231 22.6731V22.7362C62.0634 22.4419 63.041 22.0004 63.7558 21.4118C64.4705 20.8231 64.8279 20.1399 64.8279 19.3621C64.8279 18.9626 64.7123 18.6473 64.4811 18.416C64.2708 18.1637 63.9765 18.0376 63.5981 18.0376Z" fill="#03E8F9"/>
</g>
<g filter="url(#filter2_d_130_1080)">
<path d="M59.1532 22.61C59.4265 22.61 59.6367 22.7361 59.7839 22.9884C59.9521 23.2407 60.0362 23.5876 60.0362 24.0291C60.0362 24.87 59.8365 25.5217 59.437 25.9842C58.47 27.0984 57.4714 28.0129 56.4413 28.7276C55.4322 29.4424 54.2759 29.7998 52.9725 29.7998C51.9004 29.7998 51.091 29.495 50.5444 28.8853C49.9978 28.2546 49.7245 27.3506 49.7245 26.1734C49.7245 25.5847 49.8717 24.5336 50.166 23.02C50.4393 21.6955 50.5759 20.781 50.5759 20.2765C50.5759 19.9401 50.4603 19.7719 50.229 19.7719C49.9558 19.7719 49.5668 20.1293 49.0623 20.8441C48.5577 21.5378 48.0532 22.4629 47.5486 23.6191C47.0441 24.7754 46.6341 25.9947 46.3188 27.2771C45.9194 28.9589 44.9313 29.7998 43.3546 29.7998C42.7239 29.7998 42.3035 29.5791 42.0932 29.1376C41.904 28.6751 41.8094 27.8552 41.8094 26.6779C41.8094 26.0052 41.8199 25.4691 41.841 25.0697L41.8725 22.5469C41.8725 19.3094 42.1983 15.9353 42.85 12.4245C43.5228 8.91366 44.5003 5.97047 45.7827 3.5949C47.0861 1.1983 48.6418 0 50.4498 0C51.4168 0 52.1947 0.420456 52.7833 1.26137C53.393 2.08126 53.6978 3.15342 53.6978 4.47785C53.6978 6.60116 53.0776 8.80855 51.8373 11.1C50.5969 13.3705 48.5788 16.0299 45.7827 19.0782C45.7197 20.1714 45.6881 21.2961 45.6881 22.4523C46.3819 20.6654 47.1492 19.2148 47.9901 18.1006C48.8521 16.9654 49.693 16.156 50.5129 15.6725C51.3538 15.189 52.1211 14.9472 52.8148 14.9472C54.1813 14.9472 54.8646 15.6304 54.8646 16.9969C54.8646 17.8168 54.6333 19.2989 54.1708 21.4432C53.7714 23.2722 53.5717 24.481 53.5717 25.0697C53.5717 25.9106 53.8765 26.331 54.4862 26.331C54.9066 26.331 55.4007 26.0788 55.9683 25.5742C56.5569 25.0487 57.3347 24.2077 58.3018 23.0515C58.5541 22.7572 58.8379 22.61 59.1532 22.61ZM49.7876 3.12188C49.4092 3.12188 48.9887 3.66848 48.5262 4.76166C48.0637 5.83382 47.6117 7.29491 47.1702 9.14491C46.7498 10.9739 46.4029 12.9711 46.1296 15.1364C47.433 13.6017 48.5052 11.9304 49.3461 10.1225C50.208 8.31451 50.639 6.67474 50.639 5.20314C50.639 4.53041 50.5654 4.01535 50.4183 3.65796C50.2711 3.30058 50.0609 3.12188 49.7876 3.12188Z" fill="#03E8F9"/>
</g>
<g filter="url(#filter3_d_130_1080)">
<path d="M30.718 29.7999C29.4146 29.7999 28.374 29.3269 27.5961 28.3809C26.8183 27.4349 26.4294 26.1945 26.4294 24.6599C26.4294 22.9781 26.8183 21.3908 27.5961 19.8982C28.374 18.3846 29.4041 17.1758 30.6865 16.2718C31.9899 15.3468 33.3669 14.8843 34.8175 14.8843C35.28 14.8843 35.5848 14.9789 35.732 15.1681C35.9001 15.3363 36.0368 15.6516 36.1419 16.1141C36.5834 16.03 37.0459 15.988 37.5294 15.988C38.5595 15.988 39.0746 16.3559 39.0746 17.0917C39.0746 17.5331 38.9169 18.5843 38.6016 20.2451C38.1181 22.6627 37.8763 24.3445 37.8763 25.2906C37.8763 25.6059 37.9499 25.8582 38.097 26.0474C38.2652 26.2366 38.4754 26.3312 38.7277 26.3312C39.1271 26.3312 39.6107 26.0789 40.1783 25.5744C40.7459 25.0488 41.5132 24.2079 42.4803 23.0516C42.7326 22.7573 43.0164 22.6102 43.3317 22.6102C43.605 22.6102 43.8152 22.7363 43.9624 22.9886C44.1306 23.2408 44.2147 23.5877 44.2147 24.0292C44.2147 24.8701 44.0149 25.5218 43.6155 25.9843C42.7536 27.0565 41.8391 27.9605 40.872 28.6962C39.905 29.432 38.9695 29.7999 38.0655 29.7999C37.3717 29.7999 36.7305 29.5687 36.1419 29.1062C35.5743 28.6227 35.1433 27.971 34.849 27.1511C33.7558 28.917 32.3788 29.7999 30.718 29.7999ZM31.8533 26.615C32.3158 26.615 32.7572 26.3417 33.1777 25.7951C33.5982 25.2485 33.903 24.5232 34.0922 23.6192L35.259 17.817C34.376 17.838 33.5561 18.1743 32.7993 18.826C32.0635 19.4567 31.4749 20.2976 31.0334 21.3488C30.5919 22.3999 30.3712 23.5141 30.3712 24.6914C30.3712 25.3431 30.4973 25.8266 30.7496 26.142C31.0229 26.4573 31.3908 26.615 31.8533 26.615Z" fill="#03E8F9"/>
</g>
<g filter="url(#filter4_d_130_1080)">
<path d="M9.29349 29.799C8.07417 29.799 6.69718 29.6939 5.16251 29.4837C4.3216 29.3786 3.74347 29.1578 3.42813 28.8215C3.11279 28.4851 2.97614 27.9385 3.01819 27.1817C3.16535 25.1004 3.51222 22.5357 4.05882 19.4874C4.60541 16.418 5.26763 13.4643 6.04547 10.6263C6.19263 10.1007 6.48695 9.73279 6.92843 9.52256C7.3699 9.31233 7.94803 9.20722 8.66281 9.20722C9.9452 9.20722 10.5864 9.56461 10.5864 10.2794C10.5864 10.5737 10.5233 10.9101 10.3972 11.2885C9.85059 12.9703 9.304 15.2302 8.75741 18.0683C8.21082 20.8854 7.82189 23.5763 7.59064 26.1411C8.22133 26.2041 8.9361 26.2357 9.73497 26.2357C13.414 26.2357 16.1574 25.1215 17.9654 22.8931C19.7944 20.6646 20.7089 17.6899 20.7089 13.9689C20.7089 11.4672 19.9941 9.53307 18.5645 8.16659C17.135 6.80011 15.1168 6.11687 12.51 6.11687C10.8282 6.11687 9.15684 6.37965 7.49604 6.90523C5.85626 7.43079 4.37416 8.12455 3.04972 8.98648C2.77643 9.17569 2.48211 9.27029 2.16676 9.27029C1.80938 9.27029 1.52557 9.12313 1.31534 8.82881C1.10511 8.51347 1 8.13506 1 7.69358C1 7.18903 1.08409 6.77909 1.25227 6.46375C1.42046 6.12738 1.70426 5.82255 2.1037 5.54925C3.55427 4.56118 5.25711 3.81487 7.21223 3.31033C9.16735 2.78476 11.0489 2.52197 12.8569 2.52197C15.4216 2.52197 17.6395 2.97396 19.5106 3.87794C21.3816 4.7609 22.8217 6.06431 23.8307 7.78818C24.8398 9.51205 25.3444 11.5933 25.3444 14.0319C25.3444 17.2064 24.7137 19.9814 23.4523 22.357C22.191 24.7115 20.3515 26.5405 17.9339 27.8439C15.5162 29.1473 12.6361 29.799 9.29349 29.799Z" fill="#03E8F9"/>
</g>
<defs>
<filter id="filter0_d_130_1080" x="68.3871" y="14.9473" width="14.6452" height="17.8525" filterUnits="userSpaceOnUse" color-interpolation-filters="sRGB">
<feFlood flood-opacity="0" result="BackgroundImageFix"/>
<feColorMatrix in="SourceAlpha" type="matrix" values="0 0 0 0 0 0 0 0 0 0 0 0 0 0 0 0 0 0 127 0" result="hardAlpha"/>
<feOffset dy="2"/>
<feGaussianBlur stdDeviation="0.5"/>
<feComposite in2="hardAlpha" operator="out"/>
<feColorMatrix type="matrix" values="0 0 0 0 0 0 0 0 0 0 0 0 0 0 0 0 0 0 0.25 0"/>
<feBlend mode="normal" in2="BackgroundImageFix" result="effect1_dropShadow_130_1080"/>
<feBlend mode="normal" in="SourceGraphic" in2="effect1_dropShadow_130_1080" result="shape"/>
</filter>
<filter id="filter1_d_130_1080" x="56.0074" y="14.9473" width="17.4202" height="17.8525" filterUnits="userSpaceOnUse" color-interpolation-filters="sRGB">
<feFlood flood-opacity="0" result="BackgroundImageFix"/>
<feColorMatrix in="SourceAlpha" type="matrix" values="0 0 0 0 0 0 0 0 0 0 0 0 0 0 0 0 0 0 127 0" result="hardAlpha"/>
<feOffset dy="2"/>
<feGaussianBlur stdDeviation="0.5"/>
<feComposite in2="hardAlpha" operator="out"/>
<feColorMatrix type="matrix" values="0 0 0 0 0 0 0 0 0 0 0 0 0 0 0 0 0 0 0.25 0"/>
<feBlend mode="normal" in2="BackgroundImageFix" result="effect1_dropShadow_130_1080"/>
<feBlend mode="normal" in="SourceGraphic" in2="effect1_dropShadow_130_1080" result="shape"/>
</filter>
<filter id="filter2_d_130_1080" x="40.8094" y="0" width="20.2268" height="32.7998" filterUnits="userSpaceOnUse" color-interpolation-filters="sRGB">
<feFlood flood-opacity="0" result="BackgroundImageFix"/>
<feColorMatrix in="SourceAlpha" type="matrix" values="0 0 0 0 0 0 0 0 0 0 0 0 0 0 0 0 0 0 127 0" result="hardAlpha"/>
<feOffset dy="2"/>
<feGaussianBlur stdDeviation="0.5"/>
<feComposite in2="hardAlpha" operator="out"/>
<feColorMatrix type="matrix" values="0 0 0 0 0 0 0 0 0 0 0 0 0 0 0 0 0 0 0.25 0"/>
<feBlend mode="normal" in2="BackgroundImageFix" result="effect1_dropShadow_130_1080"/>
<feBlend mode="normal" in="SourceGraphic" in2="effect1_dropShadow_130_1080" result="shape"/>
</filter>
<filter id="filter3_d_130_1080" x="25.4294" y="14.8843" width="19.7853" height="17.9155" filterUnits="userSpaceOnUse" color-interpolation-filters="sRGB">
<feFlood flood-opacity="0" result="BackgroundImageFix"/>
<feColorMatrix in="SourceAlpha" type="matrix" values="0 0 0 0 0 0 0 0 0 0 0 0 0 0 0 0 0 0 127 0" result="hardAlpha"/>
<feOffset dy="2"/>
<feGaussianBlur stdDeviation="0.5"/>
<feComposite in2="hardAlpha" operator="out"/>
<feColorMatrix type="matrix" values="0 0 0 0 0 0 0 0 0 0 0 0 0 0 0 0 0 0 0.25 0"/>
<feBlend mode="normal" in2="BackgroundImageFix" result="effect1_dropShadow_130_1080"/>
<feBlend mode="normal" in="SourceGraphic" in2="effect1_dropShadow_130_1080" result="shape"/>
</filter>
<filter id="filter4_d_130_1080" x="0" y="2.52197" width="26.3444" height="30.2769" filterUnits="userSpaceOnUse" color-interpolation-filters="sRGB">
<feFlood flood-opacity="0" result="BackgroundImageFix"/>
<feColorMatrix in="SourceAlpha" type="matrix" values="0 0 0 0 0 0 0 0 0 0 0 0 0 0 0 0 0 0 127 0" result="hardAlpha"/>
<feOffset dy="2"/>
<feGaussianBlur stdDeviation="0.5"/>
<feComposite in2="hardAlpha" operator="out"/>
<feColorMatrix type="matrix" values="0 0 0 0 0 0 0 0 0 0 0 0 0 0 0 0 0 0 0.25 0"/>
<feBlend mode="normal" in2="BackgroundImageFix" result="effect1_dropShadow_130_1080"/>
<feBlend mode="normal" in="SourceGraphic" in2="effect1_dropShadow_130_1080" result="shape"/>
</filter>
</defs>
</svg>
