<svg width="1000" height="1000" viewBox="0 0 1000 1000" fill="none" xmlns="http://www.w3.org/2000/svg">
<path d="M458.57 857.88C373.284 857.865 290.555 828.749 224.059 775.345C157.563 721.941 111.279 647.446 92.8582 564.173C74.4375 480.9 84.9825 393.833 122.75 317.365C160.518 240.897 223.247 179.605 300.57 143.62C302.481 142.679 304.561 142.129 306.687 142.002C308.814 141.875 310.944 142.175 312.954 142.882C314.963 143.59 316.811 144.692 318.389 146.123C319.967 147.554 321.243 149.286 322.142 151.217C323.042 153.148 323.547 155.239 323.627 157.368C323.708 159.497 323.363 161.62 322.612 163.614C321.861 165.607 320.719 167.431 319.254 168.977C317.789 170.524 316.03 171.762 314.08 172.62C193.75 228.69 116 350.64 116 483.31C116 672.2 269.68 825.88 458.57 825.88C568 825.88 668.26 775.45 733.63 687.52C736.179 684.164 739.95 681.949 744.123 681.356C748.296 680.764 752.534 681.842 755.917 684.357C759.299 686.872 761.553 690.619 762.188 694.786C762.824 698.952 761.789 703.201 759.31 706.61C724.984 752.666 680.605 790.287 629.55 816.61C576.696 843.892 518.05 858.047 458.57 857.88Z" fill="#00ADB9"/>
<path d="M595.25 746.42C525.844 746.417 457.803 727.131 398.719 690.713C339.635 654.296 291.83 602.179 260.637 540.177C229.445 478.175 216.092 408.726 222.068 339.578C228.043 270.43 253.113 204.301 294.48 148.57C295.734 146.884 297.308 145.461 299.112 144.383C300.916 143.305 302.915 142.593 304.994 142.288C307.073 141.982 309.192 142.089 311.229 142.603C313.267 143.116 315.184 144.026 316.87 145.28C318.556 146.534 319.979 148.108 321.057 149.912C322.135 151.716 322.847 153.714 323.152 155.793C323.458 157.873 323.351 159.991 322.837 162.029C322.324 164.067 321.414 165.984 320.16 167.67C276.157 226.63 252.477 298.279 252.68 371.85C252.68 560.74 406.36 714.42 595.25 714.42C644.944 714.54 694.061 703.764 739.14 682.85C741.029 681.913 743.085 681.358 745.19 681.219C747.294 681.079 749.405 681.357 751.402 682.036C753.399 682.716 755.241 683.783 756.824 685.177C758.407 686.571 759.698 688.264 760.624 690.159C761.55 692.053 762.093 694.113 762.22 696.218C762.347 698.323 762.057 700.433 761.366 702.425C760.675 704.418 759.597 706.254 758.194 707.829C756.791 709.403 755.09 710.685 753.19 711.6C703.739 734.663 649.815 746.552 595.25 746.42Z" fill="#00ADB9"/>
<path d="M637.16 436.56C634.568 436.559 632.014 435.927 629.72 434.72L554.72 395.3L479.72 434.72C477.078 436.107 474.101 436.728 471.125 436.512C468.149 436.297 465.292 435.253 462.878 433.499C460.464 431.746 458.588 429.352 457.463 426.588C456.338 423.825 456.008 420.801 456.51 417.86L470.83 334.36L410.16 275.22C408.022 273.136 406.51 270.495 405.795 267.597C405.08 264.698 405.19 261.657 406.113 258.818C407.036 255.979 408.735 253.455 411.017 251.53C413.3 249.606 416.076 248.359 419.03 247.93L502.87 235.75L540.36 159.75C541.681 157.072 543.725 154.816 546.261 153.239C548.797 151.662 551.724 150.827 554.71 150.827C557.696 150.827 560.623 151.662 563.159 153.239C565.695 154.816 567.739 157.072 569.06 159.75L606.55 235.75L690.39 247.93C693.344 248.359 696.12 249.606 698.403 251.53C700.685 253.455 702.384 255.979 703.307 258.818C704.23 261.657 704.34 264.698 703.625 267.597C702.909 270.495 701.398 273.136 699.26 275.22L638.59 334.36L652.91 417.86C653.303 420.156 653.19 422.511 652.579 424.759C651.967 427.007 650.873 429.094 649.371 430.875C647.869 432.656 645.996 434.087 643.884 435.069C641.771 436.051 639.47 436.56 637.14 436.56H637.16ZM554.73 361.22C557.325 361.223 559.882 361.854 562.18 363.06L615.91 391.31L605.65 331.48C605.21 328.922 605.399 326.296 606.2 323.827C607.002 321.358 608.391 319.122 610.25 317.31L653.73 274.94L593.65 266.21C591.091 265.829 588.662 264.833 586.572 263.307C584.482 261.782 582.793 259.772 581.65 257.45L554.73 203L527.86 257.44C526.717 259.762 525.028 261.772 522.938 263.297C520.848 264.823 518.419 265.819 515.86 266.2L455.77 274.93L499.25 317.3C501.109 319.112 502.498 321.348 503.3 323.817C504.101 326.286 504.29 328.912 503.85 331.47L493.59 391.3L547.33 363.05C549.613 361.853 552.152 361.225 554.73 361.22ZM717.9 631C715.57 631 713.269 630.491 711.156 629.509C709.044 628.527 707.171 627.096 705.669 625.315C704.167 623.534 703.073 621.447 702.461 619.199C701.85 616.951 701.737 614.596 702.13 612.3L714 543.16L663.75 494.16C661.612 492.076 660.101 489.435 659.385 486.537C658.67 483.638 658.78 480.597 659.703 477.758C660.626 474.919 662.325 472.395 664.607 470.47C666.89 468.546 669.666 467.299 672.62 466.87L742.06 456.78L773.12 393.86C774.442 391.184 776.486 388.932 779.021 387.357C781.556 385.781 784.481 384.947 787.465 384.947C790.449 384.947 793.374 385.781 795.909 387.357C798.444 388.932 800.488 391.184 801.81 393.86L832.87 456.78L902.31 466.87C905.264 467.299 908.04 468.546 910.323 470.47C912.605 472.395 914.304 474.919 915.227 477.758C916.15 480.597 916.26 483.638 915.545 486.537C914.829 489.435 913.318 492.076 911.18 494.16L860.93 543.16L872.79 612.32C873.295 615.262 872.966 618.287 871.842 621.052C870.718 623.817 868.842 626.213 866.427 627.968C864.013 629.723 861.155 630.767 858.178 630.983C855.201 631.199 852.223 630.578 849.58 629.19L787.46 596.53L725.35 629.19C723.05 630.388 720.493 631.009 717.9 631ZM709.29 493.87L742.35 526.09C744.207 527.901 745.596 530.136 746.397 532.602C747.199 535.069 747.388 537.694 746.95 540.25L739.15 585.76L780 564.29C782.296 563.083 784.851 562.452 787.445 562.452C790.039 562.452 792.594 563.083 794.89 564.29L835.75 585.78L828 540.27C827.562 537.714 827.751 535.089 828.553 532.622C829.354 530.156 830.743 527.921 832.6 526.11L865.66 493.89L819.97 487.25C817.411 486.87 814.983 485.876 812.893 484.352C810.803 482.828 809.114 480.82 807.97 478.5L787.54 437.1L767 478.5C765.856 480.82 764.167 482.828 762.077 484.352C759.987 485.876 757.558 486.87 755 487.25L709.29 493.87Z" fill="#00ADB9"/>
</svg>
