<svg width="450" height="98" viewBox="0 0 450 98" fill="none" xmlns="http://www.w3.org/2000/svg">
<path fill-rule="evenodd" clip-rule="evenodd" d="M428.509 19.7898C424.623 14.3902 425.499 8.32476 430.919 3.98996C436.213 1.04732 441.348 1.72947 444.92 5.71258C448.582 9.79672 448.733 14.6879 445.363 19.6661C445.261 19.8178 445.152 19.9682 445.042 20.1188C444.394 21.0127 443.738 21.9166 444.361 23.1886C448.681 21.3392 450.975 15.3706 449.604 9.64647C448.109 3.40106 442.435 -0.402537 435.265 0.0339492C429.423 0.389594 424.251 5.91465 423.724 12.362C423.376 16.6304 426.418 22.2268 429.577 23.0726C430.012 21.831 429.374 20.9651 428.719 20.0768C428.672 20.0126 428.624 19.9482 428.577 19.8836C428.554 19.8524 428.532 19.8212 428.509 19.7898ZM135.632 1.06021C137.824 1.99982 138.583 3.5734 138.527 5.65884C138.506 6.46232 138.517 7.26663 138.528 8.07098C138.534 8.48987 138.54 8.90877 138.541 9.32757C138.546 11.0721 139.432 11.9094 141.157 11.9177C141.591 11.9198 142.027 11.9151 142.462 11.9103C143.626 11.8977 144.791 11.885 145.942 12.0026C148.301 12.2435 149.82 13.5596 149.757 16.0426C149.695 18.4465 148.268 19.8614 145.884 20.0968C144.601 20.2235 143.3 20.1949 142.004 20.1665L142.003 20.1665C141.795 20.1619 141.587 20.1573 141.379 20.1534C139.543 20.1188 138.537 20.9093 138.538 22.8148C138.54 25.5482 138.536 28.2817 138.532 31.0152C138.521 37.9718 138.511 44.9283 138.594 51.8838C138.631 54.9814 140.37 56.5394 143.409 57.2216C144.901 57.5567 146.397 57.5464 147.892 57.5362C148.736 57.5304 149.579 57.5246 150.421 57.5809C152.767 57.7377 154.545 58.7193 154.609 61.2305C154.669 63.6268 152.936 64.6034 150.763 64.9306C147.777 65.3804 144.762 65.54 141.772 65.2719C135.732 64.7303 130.157 58.8666 129.737 52.2498C129.156 43.0922 129.294 33.9189 129.432 24.7477V24.7465V24.7453V24.744V24.7428V24.7416V24.7403V24.7391V24.7378V24.7366V24.7353V24.7341V24.7329V24.7316V24.7304V24.7291V24.7279V24.7267V24.7254V24.7242V24.7229V24.7217V24.7204C129.461 22.8015 129.489 20.8827 129.512 18.9641L129.534 17.028V17.0279V17.0277V17.0275V17.0273V17.0272V17.027V17.0269V17.0267V17.0266V17.0264V17.0262V17.0261V17.0259V17.0258V17.0256V17.0255V17.0253V17.0252V17.025V17.0249V17.0247C129.577 13.2514 129.62 9.47799 129.678 5.70488C129.739 1.74514 131.323 0.452293 135.632 1.06021ZM393.059 45.6322C389.282 46.4179 388.455 48.2911 390.439 51.2435C392.237 53.9184 394.775 55.7043 397.859 56.5264C402.834 57.8531 407.842 58.0823 412.84 56.4784C416.22 55.3938 418.278 56.162 419.104 58.6972C419.854 61.0004 418.328 63.3163 415.347 64.391C408.105 67.0021 400.839 67.0546 393.562 64.5576C385.381 61.7503 378.963 52.9817 378.411 44.2015C377.792 34.3498 381.085 26.2464 389.608 21.1556C398.344 15.9378 407.642 15.7369 416.736 20.5866C423.931 24.4242 428.161 32.8791 427.238 40.9441C426.876 44.11 425.285 45.5977 422.04 45.6087C415.565 45.6307 409.09 45.6304 402.539 45.6301C399.399 45.63 396.242 45.6299 393.059 45.6322ZM392.66 37.8901C394.5 37.8905 396.34 37.8917 398.181 37.8928C403.469 37.8962 408.757 37.8995 414.046 37.8846C414.255 37.884 414.47 37.892 414.686 37.9001C415.881 37.9447 417.123 37.9911 417.755 36.5978C418.336 35.3157 417.725 34.2535 417.108 33.1797C417.013 33.0135 416.917 32.8469 416.825 32.6792C412.221 24.2397 395.818 23.1226 389.354 33.7028C387.818 36.2181 388.725 37.5283 392.66 37.8901ZM12.4008 44.0258L12.4006 44.0274L12.4006 44.0274L12.4006 44.0277C11.9505 49.9445 11.5096 55.7415 11.0001 61.5324C10.7925 63.892 8.61502 65.4695 6.19713 65.3031C3.67417 65.1296 2.11218 63.5083 2.27542 60.7853C2.66339 54.3138 3.11208 47.8424 3.73805 41.3906C3.83686 40.3721 3.88723 39.3528 3.93763 38.3328C4.02569 36.5505 4.11385 34.7664 4.4607 32.9821C7.01412 19.8467 20.3177 13.4263 31.8337 20.3639C35.6081 22.6377 38.1439 22.8226 41.7287 20.3649C46.3771 17.178 51.7858 17.0185 57.1947 18.3587C64.9219 20.2734 69.5791 25.937 70.2663 34.4234C70.8969 42.2091 70.7571 50.0143 70.6174 57.8127V57.8128V57.8129V57.813V57.8131V57.8133V57.8134V57.8135V57.8136V57.8137V57.8138V57.8139V57.814V57.8141V57.8142V57.8143V57.8144V57.8145V57.8146V57.8147V57.8148V57.8149V57.815V57.8151V57.8152V57.8153V57.8154V57.8155C70.6021 58.6678 70.5869 59.5199 70.5726 60.372C70.5057 64.3722 67.1605 66.4132 63.8733 64.7498C62.0139 63.8089 61.5745 62.1755 61.5774 60.2719C61.5881 53.4037 61.5982 46.5354 61.56 39.6674V39.6674C61.5506 37.9806 61.5411 36.2583 61.2155 34.6152C60.0119 28.5402 56.5995 25.979 50.4484 26.3509C45.6642 26.6402 42.7072 30.0004 42.0605 35.6674C41.3098 42.2456 41.443 48.8405 41.5762 55.4289L41.5762 55.4294C41.6121 57.2062 41.648 58.9824 41.6665 60.7578C41.7044 64.3855 37.8643 66.4775 34.6657 64.5837C32.9683 63.5787 32.7408 61.9541 32.7447 60.1854C32.7539 55.9446 32.7505 51.7037 32.7471 47.4628C32.7449 44.7414 32.7428 42.02 32.7439 39.2986C32.7449 36.9297 32.4374 34.5985 31.7165 32.351C30.4714 28.4696 27.6546 26.452 23.4847 26.3247C18.6329 26.1766 15.5665 27.973 14.0609 31.9236C13.2764 33.982 13.0607 36.1648 12.8227 38.5732L12.7992 38.8108C12.6643 40.5612 12.5322 42.2986 12.4008 44.0258ZM308.074 17.4695C288.174 15.6769 274.896 33.6147 282.55 52.2589C289.333 67.1454 306.781 68.731 318.243 63.9813C320.703 62.9617 321.765 60.6132 321.033 58.5115C320.267 56.3128 318.223 55.5422 315.433 56.2999C315.12 56.3848 314.807 56.4734 314.493 56.5622C313.085 56.9603 311.664 57.3622 310.232 57.4504C303.915 57.8399 297.79 57.3865 293.148 52.2107C291.911 50.8325 290.848 49.2827 291.624 47.3871C292.357 45.598 294.039 45.6087 295.642 45.619C295.762 45.6197 295.88 45.6205 295.998 45.6205C298.536 45.6209 301.076 45.5962 303.615 45.5715H303.615C309.341 45.5158 315.066 45.4601 320.78 45.6918C329.463 46.0437 329.356 42.9536 329.137 36.6954L329.131 36.5045C329.108 35.8533 328.966 35.1998 328.823 34.56C326.584 24.5497 319.2 18.4718 308.074 17.4695ZM302.144 37.8994C300.13 37.8955 298.117 37.8915 296.103 37.8911C295.682 37.89 295.356 37.8882 295.083 37.8868H295.082H295.081C294.708 37.8847 294.437 37.8833 294.165 37.8848C292.909 37.892 291.621 37.824 291.009 36.5166C290.367 35.1437 291.045 33.9398 291.877 32.878C295.112 28.7457 299.224 26.1589 304.589 26.08C310.874 25.9876 316.316 27.6704 319.445 33.7616C320.853 36.5007 320.093 37.8487 316.955 37.876C312.019 37.9189 307.081 37.9092 302.144 37.8994ZM360.226 64.0123L360.219 64.0247C358.273 67.9136 356.397 71.6624 353.785 75.0071C350.692 78.9683 346.646 80.6691 341.732 80.4833C338.795 80.3723 336.929 78.8388 336.742 76.5069C336.535 73.9369 338.079 72.2346 341.183 71.7454C343.979 71.3047 346.426 70.3303 348.033 67.8221C349.796 65.0711 350.152 62.4396 348.328 59.4132C342.26 49.346 336.322 39.1998 330.384 29.0541L328.963 26.6257C327.44 24.0247 327.891 21.5677 329.95 20.0962C332.305 18.413 335.492 18.7184 337.355 20.8681C337.897 21.4931 338.318 22.2338 338.73 22.9589L338.745 22.9854C341.727 28.2279 344.7 33.4751 347.673 38.7223L347.674 38.7238L347.675 38.7254L347.676 38.727L347.678 38.7301L347.679 38.7332L347.682 38.7379L347.686 38.7442L347.689 38.7505C348.604 40.3648 349.519 41.9791 350.434 43.5933C350.528 43.7597 350.621 43.9269 350.714 44.0941C350.941 44.5024 351.168 44.9108 351.414 45.3069C353.686 48.957 355.649 49.0003 357.756 45.3182C359.322 42.5806 360.802 39.7933 362.282 37.0062L362.282 37.0058L362.283 37.0052L362.283 37.0045L362.283 37.0037L362.284 37.0026L362.285 37.0013C362.744 36.1355 363.204 35.2697 363.666 34.4055C364.612 32.6381 365.55 30.8666 366.488 29.0952L366.488 29.0946L366.488 29.0941C367.75 26.7109 369.011 24.3278 370.291 21.9546C371.991 18.8026 374.845 17.7602 377.531 19.2431C380.103 20.6625 380.588 22.9629 378.932 26.3123C373.645 37.004 368.34 47.6868 362.969 58.5015L360.918 62.6326C360.685 63.0942 360.455 63.5542 360.226 64.0123ZM177.95 54.8348C186.225 67.3373 203.282 69.4694 215.796 59.7292C225.661 51.3786 226.612 36.6292 219.331 27.509C213.365 20.0352 205.552 16.5918 196.024 17.6171C187.134 18.5738 180.462 23.2522 176.527 31.1831C172.567 39.165 173.021 47.387 177.95 54.8348ZM197.59 57.0816C189.365 56.5923 181.85 49.061 183.574 38.9814C185.22 29.7345 192.885 25.4569 199.884 26.0408C208.791 26.7841 214.597 32.8162 214.862 41.038C215.168 50.5564 207.531 57.673 197.59 57.0816ZM83.2633 59.962C75.8983 53.0201 73.2904 44.6553 75.9301 35.1768C78.5492 25.7722 85.2017 19.9191 94.686 18.0016C105.209 15.8741 114.104 19.35 120.541 27.9477C126.393 35.7644 126.593 44.3713 122.218 52.9633C117.329 62.5666 105.562 67.5591 94.2698 65.1943C90.2272 64.3477 86.6161 62.6865 83.2633 59.962ZM114.323 34.8359C111.34 28.8137 106.232 25.9491 99.7831 25.9975C93.6782 26.0432 88.6128 28.7329 85.9352 34.4994C83.203 40.3833 83.5478 46.2242 87.7157 51.4356C91.8327 56.5833 97.4208 58.0302 103.629 56.7813C113.256 54.8444 117.973 45.2793 114.323 34.8359ZM266.97 23.6427C260.157 17.1156 248.637 15.9379 238.616 20.8823C233.705 23.9976 230.79 28.3568 230.178 33.8443C229.223 42.4143 228.615 51.0256 228.007 59.6309L227.925 60.7962C227.725 63.6164 229.492 65.2929 232.146 65.3422C234.845 65.3923 236.458 63.9234 236.713 61.1041C236.992 58.0163 237.262 54.9277 237.531 51.8392L237.531 51.8388L237.532 51.8385L237.532 51.8381L237.532 51.8378L237.532 51.8374L237.532 51.8371L237.532 51.8368L237.532 51.8364L237.532 51.8361L237.532 51.8357L237.532 51.8354L237.532 51.835L237.532 51.8347L237.532 51.8344L237.532 51.834L237.532 51.8337L237.532 51.8333L237.532 51.833L237.532 51.8326L237.532 51.8323L237.532 51.8319L237.532 51.8316C237.974 46.7826 238.415 41.7337 238.895 36.6884C239.333 32.0835 241.593 28.7534 246.048 27.1073C255.711 23.5367 263.89 29.2033 263.95 39.5524C263.969 42.9899 263.965 46.4275 263.961 49.8651C263.956 53.3912 263.952 56.9172 263.974 60.4431C263.993 63.6037 265.495 65.2717 268.185 65.3405C271.034 65.4133 272.719 63.6999 272.735 60.4941C272.742 59.015 272.752 57.5357 272.763 56.0564V56.0557V56.055V56.0543V56.0536V56.053V56.0523V56.0516V56.0509V56.0502V56.0495V56.0488V56.0481V56.0475V56.0468V56.0461V56.0454V56.0447V56.044V56.0433V56.0427V56.042V56.0373V56.0353C272.805 49.8042 272.848 43.5721 272.678 37.3463C272.537 32.1377 270.872 27.3814 266.97 23.6427ZM158.563 59.5517C158.576 64.6493 161.702 66.5087 166.664 64.211C168.272 62.8073 168.289 61.1041 168.288 59.3931C168.288 56.1558 168.289 52.9185 168.289 49.6812L168.289 49.5745C168.29 47.2961 168.291 45.0176 168.291 42.7392C168.291 41.0753 168.295 39.4113 168.299 37.7473L168.299 37.7274C168.308 33.6584 168.318 29.5894 168.272 25.521C168.233 22.0544 167.154 20.633 164.486 20.1259C160.848 19.4344 158.613 21.4355 158.589 25.6795C158.525 36.9699 158.536 48.261 158.563 59.5517ZM186.178 83.2342C189.531 79.9697 193.713 79.2408 197.356 81.1416C200.216 82.634 201.996 86.4254 201.519 90.0096C200.741 95.8536 196.458 98.7175 190.301 97.5108C186.088 96.6849 183.352 91.3642 184.7 86.4724C184.922 85.6671 185.315 84.9093 185.749 84.0742L185.749 84.074L185.75 84.0723L185.751 84.0696L185.753 84.0654C185.892 83.7977 186.035 83.522 186.178 83.2342ZM192.026 94.1203C195.846 94.1655 197.902 89.8484 195.968 85.8748C195.383 84.6732 194.508 83.9473 193.138 83.9007C191.785 83.8546 190.814 84.4617 190.126 85.6086C188.543 88.2496 189.183 91.7663 192.026 94.1203ZM49.2188 92.1847C50.4539 95.8986 52.9238 97.5302 57.6863 97.6084C62.069 97.3652 64.8306 95.1933 65.6811 91.5198C66.6605 87.2901 65.1885 83.1758 62.0426 81.3498C58.793 79.4636 54.527 79.7875 51.7621 82.1304C49.0418 84.4355 48.005 88.5345 49.2188 92.1847ZM60.8941 90.7405C60.3509 93.5363 58.6121 94.607 55.8949 93.8191C53.288 91.4952 53.4951 88.8818 54.1944 86.2992C54.6552 84.5971 55.9635 83.6946 57.8269 83.9251C60.3699 84.2396 61.616 87.0259 60.8941 90.7405ZM113.744 80.1484C120.817 80.5034 124.387 85.2713 122.502 91.8407C120.883 97.4862 116.433 98.4473 111.24 97.2903C106.817 96.3051 104.593 90.5708 106.379 85.6904C107.598 82.3582 110.037 80.5764 113.744 80.1484ZM113.094 84.0972C110.74 86.0833 109.999 90.3471 111.683 92.6982C112.626 94.0151 113.865 94.7757 115.565 93.9921C117.623 93.0433 118.564 90.1821 117.795 87.009C117.255 84.7841 115.947 83.5656 113.094 84.0972ZM219.731 86.8382C219.604 82.4111 217.315 80.2645 212.602 80.2467C211.538 80.3521 210.74 80.8281 209.943 81.304C209.569 81.5271 209.195 81.7502 208.794 81.9351C208.087 80.3272 206.784 80.0814 205.326 80.5459C204.116 80.9314 204.173 81.907 204.227 82.8342C204.239 83.0341 204.25 83.2318 204.249 83.4208C204.237 85.2151 204.244 87.0095 204.25 88.8039C204.258 90.8584 204.265 92.9128 204.244 94.967C204.227 96.6785 204.8 97.5482 206.669 97.5857C208.576 97.6239 209.108 96.7648 209.061 95.0329C208.995 92.5945 208.941 90.1427 209.123 87.7148C209.266 85.8039 210.24 84.0897 212.379 84.1638C214.496 84.2372 214.952 86.0172 214.964 87.8543C214.968 88.4831 214.973 89.112 214.979 89.7408C214.994 91.4588 215.009 93.1769 214.991 94.8946C214.975 96.5332 215.409 97.5609 217.352 97.5732C219.233 97.5852 219.814 96.7381 219.772 95.0045C219.74 93.6889 219.748 92.3722 219.755 91.0555C219.763 89.6493 219.771 88.2431 219.731 86.8382ZM84.3374 88.4852C84.3367 89.2694 84.334 90.0259 84.3313 90.7637V90.7639V90.7642V90.7644V90.7646V90.7648V90.765V90.7652V90.7654V90.7656V90.7658V90.7659V90.7661V90.7663V90.7664V90.7666C84.3257 92.3127 84.3204 93.7766 84.3348 95.2404C84.351 96.893 83.6072 97.5839 81.9296 97.5697C80.2943 97.5558 79.4905 96.9713 79.5197 95.2633C79.5615 92.8187 79.5816 90.3697 79.4791 87.9281C79.4 86.045 78.8852 84.1135 76.5711 84.1755C74.4145 84.2332 73.6349 85.9016 73.6305 87.9323C73.6286 88.7945 73.6225 89.6567 73.6165 90.5189C73.6054 92.1022 73.5942 93.6855 73.6089 95.2685C73.6246 96.9557 72.8202 97.5767 71.1757 97.571C69.506 97.5652 68.8038 96.8981 68.8202 95.2165C68.8397 93.2114 68.8293 91.2061 68.8189 89.2007V89.1993C68.8078 87.0665 68.7968 84.9337 68.8217 82.8014C68.8483 80.5361 70.3237 79.7056 72.388 80.8054C72.524 80.8779 72.6488 80.9556 72.7692 81.0307L72.7693 81.0308C73.2326 81.3195 73.6317 81.5683 74.357 81.3205C81.04 79.0376 83.7954 80.9696 84.3374 88.4852ZM142.747 97.0856C143.852 96.9226 144.961 96.759 146.076 96.663C146.072 94.9068 146.03 93.2255 145.989 91.5757L145.989 91.5744C145.959 90.3657 145.93 89.174 145.916 87.9821C145.838 81.4181 141.697 78.5294 135.368 80.6639L135.288 80.6907L135.147 80.7372C134.042 81.1021 132.901 81.479 133.245 83.0748C133.572 84.5978 134.475 84.3939 135.427 84.1791C135.662 84.1259 135.901 84.072 136.135 84.0435C136.371 84.0148 136.611 83.9759 136.854 83.9365L136.854 83.9365C138.374 83.6902 139.977 83.4303 141 85.6019C140.329 85.8116 139.672 86.0011 139.029 86.1867L139.029 86.1868C137.621 86.5928 136.28 86.9798 135.001 87.5179C132.699 88.4871 131.555 90.4786 131.651 92.9211C131.728 94.9044 132.732 96.8104 134.711 97.2666C137.367 97.8791 140.043 97.4844 142.747 97.0856ZM136.586 91.4367C137.326 89.8306 139.661 89.3915 141.456 90.4837L141.456 90.5657C141.461 91.1793 141.464 91.458 141.372 91.7009C140.728 93.4005 139.752 94.7787 137.683 94.1336C136.466 93.754 136.006 92.6955 136.586 91.4367ZM8.16376 91.518L8.16609 91.5252L8.1741 91.5502C8.4943 90.5825 8.79708 89.6667 9.08762 88.7879C9.80886 86.6063 10.4547 84.6529 11.1042 82.7007C11.1462 82.5743 11.185 82.4437 11.2241 82.3122C11.4309 81.6157 11.6456 80.8932 12.3941 80.6285C13.5495 80.22 14.8897 79.9546 15.8819 80.792C16.5852 81.3856 16.2295 82.1471 15.8959 82.8613C15.8127 83.0394 15.7309 83.2145 15.6673 83.3834C15.1578 84.7346 14.6393 86.0825 14.1209 87.4305L14.1208 87.4308L14.1204 87.4319L14.1202 87.4323C13.1211 90.03 12.1221 92.6276 11.187 95.2482C10.5961 96.9042 9.68735 97.6239 7.88385 97.6078C6.11082 97.5919 5.45693 96.6772 4.93598 95.1998C4.00348 92.5553 3.02014 89.9288 2.03678 87.3023L2.03675 87.3022L2.03628 87.301C1.5374 85.9685 1.03851 84.636 0.54626 83.3011C0.491071 83.1514 0.428125 83.0025 0.365066 82.8534C0.101854 82.2309 -0.163337 81.6037 0.125377 80.8947C3.86301 79.7051 4.35363 79.9922 5.89057 84.4163C6.62697 86.7212 7.29729 88.8135 8.15865 91.502L8.16376 91.518ZM165.799 92.0202C165.866 96.2414 167.149 97.5201 171.62 97.6028C172.983 97.5749 173.968 97.3996 174.022 95.9708C174.066 94.8126 173.806 93.9112 172.415 93.8228C170.948 93.7297 170.576 92.7069 170.545 91.4762C170.525 90.6596 170.522 89.8426 170.519 89.0256C170.515 88.0562 170.512 87.0868 170.479 86.1184C170.432 84.7091 170.982 83.9797 172.451 84.0862C173.558 84.1665 174.279 83.7755 174.296 82.538C174.312 81.3607 173.926 80.4846 172.607 80.3942C171.459 80.3154 170.598 79.9977 170.553 78.624C170.455 75.6763 168.41 76.179 167.108 77.1854C165.654 78.3094 164.572 79.9747 163.537 81.5667L163.533 81.5739L163.346 81.8614C162.917 82.5198 163.075 83.7748 164.095 83.9518C165.822 84.2511 165.805 85.3553 165.788 86.5032C165.785 86.6494 165.783 86.7964 165.784 86.9426C165.792 87.6947 165.79 88.447 165.788 89.1993C165.786 90.1397 165.784 91.0801 165.799 92.0202ZM33.4505 92.1394C32.759 91.2512 31.8693 90.8876 31.0021 90.5332C30.6448 90.3871 30.2913 90.2427 29.9572 90.0637C27.9331 88.9798 26.3388 87.5024 26.6497 85.0026C26.9772 82.3694 28.7516 80.9072 31.2536 80.3065C32.8387 79.9259 34.4274 80.0307 35.9695 80.5312C36.9085 80.8359 37.7097 81.3177 37.4016 82.5567C37.116 83.7052 36.5796 84.4381 35.2285 84.0496C34.7823 83.9213 34.3041 83.8583 33.8392 83.8515L33.759 83.8503C32.8369 83.8357 31.8147 83.8196 31.568 84.9831C31.3715 85.9101 32.086 86.2674 32.7462 86.5975C32.8529 86.6508 32.9582 86.7035 33.058 86.7577C33.4613 86.9769 33.8794 87.1697 34.2973 87.3625L34.2975 87.3625L34.2976 87.3626L34.2977 87.3627L34.2979 87.3627L34.298 87.3628L34.2982 87.3629L34.2983 87.3629L34.2985 87.363L34.2986 87.3631L34.2988 87.3631L34.2989 87.3632C34.8171 87.6022 35.335 87.841 35.8241 88.1296C37.9646 89.3928 38.6133 91.3691 38.1232 93.6944C37.6404 95.9852 36.0353 97.2645 33.7889 97.491C32.0299 97.6683 30.2227 97.6156 28.4608 97.4332C27.1467 97.297 26.2003 96.6025 26.5463 94.949C26.9094 93.214 27.8849 93.4825 29.0178 93.7944C29.1156 93.8213 29.2145 93.8485 29.3144 93.8748C29.5148 93.9276 29.7198 93.9886 29.9261 94.0499L29.9266 94.05C31.4913 94.5152 33.132 95.0031 33.4505 92.1394ZM95.5071 87.3283C95.4868 87.0422 95.4867 86.7601 95.4865 86.487C95.4858 85.4079 95.4853 84.4683 94.2435 83.9654C93.2398 83.5589 93.3887 82.5818 93.5848 81.7619C94.1332 79.4689 97.1496 76.9431 99.8298 76.6319C100.028 78.7927 100.591 80.6633 103.417 80.7042C104.216 80.7158 104.173 81.7771 104.14 82.5981L104.14 82.5987C104.135 82.6996 104.131 82.7969 104.129 82.8881C104.104 83.9175 103.381 84.1362 102.58 84.0639C100.423 83.869 100.09 85.1121 100.195 86.8627C100.238 87.5733 100.23 88.2869 100.223 89.0006C100.216 89.696 100.209 90.3914 100.248 91.0841C100.327 92.489 100.776 93.7141 102.468 93.8232C103.845 93.9121 104.141 94.7452 104.106 95.9293C104.063 97.3526 103.127 97.5125 102.007 97.6057C97.898 97.9477 96.3035 96.7244 95.8117 92.631C95.6693 91.445 95.624 90.2472 95.5754 88.9591C95.5555 88.4324 95.5351 87.8906 95.5071 87.3283ZM158.917 84.0282C159.749 84.0352 160.58 84.037 161.558 83.891C162.559 80.9039 162.302 80.4951 159.397 80.219C155.45 79.8438 152.142 80.9595 150.044 84.5385C148.16 87.7531 148.497 92.0124 150.716 94.8815C153.143 98.0193 156.471 97.7668 159.772 97.5164C160.024 97.4973 160.275 97.4782 160.526 97.4606C161.732 97.3762 162.312 96.5741 162.178 95.3075C162.033 93.9441 161.222 93.6139 160.014 93.8004C159.645 93.8574 159.267 93.8677 158.892 93.8722C155.522 93.9124 153.778 92.2387 153.781 88.9731C153.784 85.7841 155.637 84.0008 158.917 84.0282ZM433.939 14.9008C432.91 15.5581 432.051 16.0894 431.215 16.6066L431.213 16.6079C429.074 13.8765 429.356 10.3702 431.769 7.88571C434.285 5.29366 438.413 4.99052 441.275 7.18761C444.188 9.42393 444.91 13.1169 442.971 16.5946C442.63 16.4084 442.269 16.2494 441.911 16.0919C440.416 15.4337 438.981 14.802 439.344 12.3189C439.579 10.713 438.453 9.51936 436.826 9.60145C435.131 9.68695 434.167 10.8883 434.221 12.6636C434.227 12.8568 434.272 13.0508 434.317 13.2467C434.44 13.7746 434.566 14.3172 433.939 14.9008ZM43.9509 80.3868C42.4033 80.3471 41.0827 80.5307 41.195 82.8337C41.1953 84.1795 41.1987 85.498 41.202 86.7978C41.2091 89.5479 41.216 92.2148 41.1929 94.8814C41.1788 96.5017 41.5228 97.5656 43.4885 97.5748C45.2871 97.5832 46.0374 96.8869 46.0203 95.1036C45.9806 90.9896 45.9988 86.875 46.0196 82.7607C46.0268 81.328 45.5325 80.4275 43.9509 80.3868ZM181.341 96.079C180.71 97.8523 179.474 97.6528 178.357 97.4726C178.219 97.4502 178.082 97.4281 177.948 97.4102C176.661 97.2369 176.661 96.119 176.662 95.142L176.662 95.0075L176.662 94.9625C176.653 93.077 176.658 91.1913 176.664 89.3057C176.67 87.1608 176.676 85.0159 176.661 82.8711C176.649 81.1043 177.39 80.3098 179.199 80.3753C180.905 80.4371 181.45 81.286 181.428 82.8823C181.397 85.221 181.388 87.5599 181.378 89.9408V89.942V89.9431V89.9441V89.9452V89.9463C181.37 91.9524 181.362 93.9884 181.341 96.079ZM23.3878 82.8305C23.3913 81.0428 22.4914 80.2654 20.4979 80.4064C18.9007 80.5371 18.6137 81.4348 18.6162 82.5885C18.6174 83.1739 18.6189 83.7594 18.6203 84.3448V84.345V84.3451V84.3453V84.3455C18.6294 87.9832 18.6384 91.6211 18.6043 95.2584C18.5884 96.9489 19.3523 97.56 20.9983 97.571C22.6926 97.5824 23.3907 96.8352 23.3873 95.2186C23.3786 91.0893 23.3795 86.9598 23.3878 82.8305ZM159.991 7.81795C158.594 5.57528 158.602 3.50528 160.178 1.68361C161.346 0.334755 162.952 -0.135162 164.753 0.388253C166.654 0.94084 167.772 2.21764 168.053 4.14286C168.334 6.06123 167.664 7.70717 166.001 8.70938C163.931 9.95751 161.913 9.72346 159.991 7.81795ZM181.631 75.8526C181.242 74.1713 180.131 73.3489 178.13 73.8711C176.62 74.9273 176.122 76.1197 177.118 77.5463C177.815 78.5455 178.846 78.9524 180.046 78.4602C181.191 77.9905 181.921 77.1029 181.631 75.8526ZM23.4203 76.4083C22.8144 78.3797 21.6377 79.027 19.9025 78.4036C18.6096 77.9392 18.3867 76.8601 18.573 75.6283C18.7566 74.415 19.5718 73.7666 20.6752 73.6894C22.3564 73.5718 23.2859 74.498 23.4203 76.4083ZM42.0892 74.2356C40.6084 75.6191 40.7705 77.1642 42.7054 78.4794C45.6877 78.3448 46.9714 76.6319 45.6731 74.8053C44.7156 73.4582 43.2951 73.1089 42.0892 74.2356Z" fill="black"/>
</svg>
