<svg width="64" height="64" viewBox="0 0 64 64" fill="none" xmlns="http://www.w3.org/2000/svg">
<path fill-rule="evenodd" clip-rule="evenodd" d="M5.20002 47.5601C5.20002 47.5601 13.2 57.9301 13.68 58.3901C14.84 59.5001 16.41 60.0801 18.01 59.9901C26.38 59.5701 45.55 58.6101 53.58 58.2101C56.69 58.0501 59.13 55.4901 59.14 52.3801L59.24 16.8801C59.24 14.8901 58.21 13.0501 56.52 12.0101C53.53 10.1701 47.61 6.52012 45.82 5.33012C44.36 4.36012 42.62 3.90012 40.86 4.01012C34.9 4.39012 17.41 5.52012 10.01 5.99012C7.05002 6.18012 4.77002 8.61012 4.77002 11.5301V46.3101C4.77002 46.7601 4.92002 47.2001 5.20002 47.5501V47.5601ZM55.21 18.6501V18.6701L55.11 52.3701C55.11 53.3401 54.34 54.1401 53.37 54.1901L17.8 55.9701C17.3 56.0001 16.81 55.8101 16.45 55.4701C16.09 55.1301 15.88 54.6501 15.88 54.1501V20.7101C15.88 19.7401 16.63 18.9401 17.6 18.8901L53.27 16.8301C53.77 16.8001 54.26 16.9801 54.63 17.3301C54.99 17.6701 55.2 18.1501 55.2 18.6501H55.21ZM43.23 40.0701V26.3501C42.6 25.6301 41.6 25.6801 40.16 25.2401C40.06 25.2101 39.97 25.1301 39.93 25.0301C39.89 24.9301 39.9 24.8101 39.96 24.7201C41.68 22.1901 46.59 23.7701 49.79 22.7601C49.88 22.7301 49.99 22.7401 50.07 22.8101C50.15 22.8801 50.18 22.9801 50.16 23.0801C49.85 24.4701 48.76 25.1801 47.21 25.4801V48.0501C47.21 48.8001 46.76 49.4901 46.06 49.7701C45.42 50.0301 44.75 50.3101 44.75 50.3101C43.21 51.1101 41.32 50.6001 40.38 49.1401L28.92 31.2701V47.5401C29.54 48.2601 30.55 48.2101 31.99 48.6501C32.09 48.6801 32.18 48.7601 32.22 48.8601C32.26 48.9601 32.25 49.0801 32.19 49.1701C30.46 51.7001 25.56 50.1201 22.36 51.1301C22.27 51.1701 22.16 51.1501 22.08 51.0801C22 51.0201 21.97 50.9101 21.99 50.8101C22.3 49.4201 23.39 48.7101 24.94 48.4101V27.1001L21.92 26.8101C21.92 26.8101 22.13 24.3601 25.01 24.0801C26.43 23.9401 30.14 23.7801 31.48 23.7201C31.78 23.7101 32.07 23.8501 32.25 24.1001L43.24 40.0501L43.23 40.0701ZM15.03 14.2801C15.58 14.7001 16.27 14.9101 16.96 14.8701C22.05 14.5801 43.78 13.3401 49.17 13.0301C49.34 13.0201 49.48 12.9001 49.52 12.7401C49.56 12.5801 49.49 12.4101 49.35 12.3201C46.96 10.8301 44.61 9.37012 43.59 8.69012C42.86 8.21012 41.99 7.98012 41.11 8.03012C41.11 8.03012 16.41 9.39012 11.33 9.94012C10.69 10.0101 10.55 10.2401 10.53 10.3301C10.44 10.6401 10.55 10.8701 10.8 11.0701C11.82 11.8501 13.87 13.4001 15.03 14.2801Z" fill="#03E8F9"/>
</svg>
