<svg width="169" height="169" viewBox="0 0 169 169" fill="none" xmlns="http://www.w3.org/2000/svg">
<path d="M84 144C99.913 144 115.174 137.679 126.426 126.426C137.679 115.174 144 99.913 144 84V82.5C144 81.7044 144.316 80.9413 144.879 80.3787C145.441 79.8161 146.204 79.5 147 79.5C147.796 79.5 148.559 79.8161 149.121 80.3787C149.684 80.9413 150 81.7044 150 82.5V84C150 101.504 143.046 118.292 130.669 130.669C118.292 143.046 101.504 150 84 150C83.2043 150 82.4413 149.684 81.8787 149.121C81.3161 148.559 81 147.796 81 147C81 146.204 81.3161 145.441 81.8787 144.879C82.4413 144.316 83.2043 144 84 144ZM140.94 50.82C140.948 50.9399 140.948 51.0602 140.94 51.18C140.96 51.3795 140.96 51.5806 140.94 51.78C140.982 52.1589 140.982 52.5412 140.94 52.92C140.957 53.0997 140.957 53.2804 140.94 53.46C140.95 53.5999 140.95 53.7402 140.94 53.88C129.788 71.3165 116.727 87.4561 102 102C97.62 106.38 93.18 110.58 88.8 114.54C88.5136 114.832 88.1706 115.062 87.792 115.217C87.4134 115.371 87.0072 115.447 86.5984 115.439C86.1896 115.43 85.7867 115.339 85.4146 115.169C85.0425 115 84.709 114.756 84.4345 114.453C84.1601 114.15 83.9505 113.794 83.8187 113.406C83.6868 113.019 83.6355 112.609 83.6678 112.202C83.7002 111.794 83.8155 111.397 84.0068 111.036C84.198 110.675 84.4612 110.356 84.78 110.1C89.1 106.2 93.42 102.06 97.74 98.1C111.689 84.4016 124.139 69.2562 134.88 52.92C130.162 45.0277 123.694 38.3253 115.974 33.3303C108.254 28.3354 99.489 25.1815 90.3565 24.1124C81.2239 23.0432 71.9678 24.0873 63.3029 27.1641C54.638 30.2409 46.7962 35.268 40.383 41.8572C33.9698 48.4464 29.1569 56.4214 26.3158 65.1665C23.4747 73.9115 22.6816 83.1924 23.9976 92.2927C25.3136 101.393 28.7035 110.069 33.9056 117.651C39.1077 125.233 45.9828 131.518 54 136.02C54.3427 136.217 54.6433 136.48 54.8846 136.793C55.1259 137.106 55.3031 137.464 55.4062 137.845C55.5093 138.227 55.5362 138.625 55.4853 139.017C55.4345 139.409 55.307 139.787 55.11 140.13C54.913 140.473 54.6504 140.773 54.3373 141.015C54.0241 141.256 53.6665 141.433 53.2849 141.536C52.9032 141.639 52.505 141.666 52.113 141.615C51.7209 141.565 51.3427 141.437 51 141.24C42.2425 136.186 34.7635 129.187 29.1401 120.783C23.5167 112.38 19.8993 102.796 18.5671 92.7732C17.235 82.7499 18.2236 72.5546 21.4567 62.974C24.6899 53.3934 30.0811 44.6838 37.2143 37.5174C44.3474 30.3509 53.0319 24.9192 62.5973 21.6415C72.1627 18.3638 82.3533 17.3277 92.3827 18.6132C102.412 19.8987 112.012 23.4714 120.441 29.0556C128.871 34.6398 135.905 42.0862 141 50.82H140.94Z" fill="white"/>
<path d="M13.08 113.46C13.4778 112.768 14.1343 112.262 14.9051 112.054C15.6759 111.846 16.4978 111.952 17.19 112.35C17.8822 112.748 18.388 113.405 18.5962 114.175C18.8044 114.946 18.6978 115.768 18.3 116.46C6.29998 137.04 2.81998 153 8.87998 159.12C19.44 169.62 61.98 150.54 106.26 106.26C150.54 61.9802 169.62 19.4402 159.12 8.88024C153.12 2.88024 137.1 6.30024 116.46 18.3002C116.121 18.5471 115.733 18.72 115.322 18.8078C114.912 18.8955 114.488 18.8961 114.077 18.8095C113.666 18.723 113.278 18.5512 112.938 18.3053C112.598 18.0593 112.313 17.7448 112.102 17.3819C111.891 17.019 111.759 16.6158 111.713 16.1985C111.668 15.7812 111.71 15.359 111.838 14.9593C111.966 14.5595 112.177 14.191 112.456 13.8777C112.735 13.5643 113.077 13.3131 113.46 13.1402C137.46 -0.659762 154.98 -3.71976 163.38 4.68024C180 21.2402 149.52 71.4602 110.52 110.46C78.96 142.02 40.02 168 17.52 168C15.1697 168.136 12.816 167.797 10.5996 167.004C8.38318 166.21 6.34949 164.978 4.61999 163.38C-3.72001 154.98 -0.720015 137.22 13.08 113.46Z" fill="white"/>
<path d="M78.4198 119.64C78.9171 120.254 79.152 121.04 79.0733 121.826C78.9947 122.613 78.6089 123.336 77.9998 123.84C73.0798 127.86 68.1598 131.64 63.2998 135.06C62.9767 135.289 62.6118 135.451 62.2259 135.539C61.84 135.626 61.4406 135.637 61.0506 135.57C60.6606 135.503 60.2876 135.36 59.9529 135.149C59.6181 134.938 59.3283 134.663 59.0998 134.34C58.8713 134.017 58.7086 133.652 58.6211 133.266C58.5337 132.88 58.5231 132.481 58.5899 132.091C58.6568 131.701 58.7998 131.328 59.0108 130.993C59.2218 130.658 59.4967 130.369 59.8198 130.14C64.5598 126.78 69.4198 123.12 74.1598 119.22C74.4655 118.964 74.8192 118.772 75.2 118.655C75.5809 118.538 75.9813 118.497 76.3779 118.536C76.7744 118.576 77.1593 118.693 77.5098 118.883C77.8604 119.072 78.1698 119.33 78.4198 119.64ZM14.9998 12H11.9998V15C11.9998 15.7956 11.6837 16.5587 11.1211 17.1213C10.5585 17.6839 9.79541 18 8.99976 18C8.20411 18 7.44104 17.6839 6.87843 17.1213C6.31582 16.5587 5.99976 15.7956 5.99976 15V12H2.99976C2.20411 12 1.44104 11.6839 0.878433 11.1213C0.315824 10.5587 -0.000244141 9.79565 -0.000244141 9C-0.000244141 8.20435 0.315824 7.44129 0.878433 6.87868C1.44104 6.31607 2.20411 6 2.99976 6H5.99976V3C5.99976 2.20435 6.31582 1.44129 6.87843 0.87868C7.44104 0.316071 8.20411 0 8.99976 0C9.79541 0 10.5585 0.316071 11.1211 0.87868C11.6837 1.44129 11.9998 2.20435 11.9998 3V6H14.9998C15.7954 6 16.5585 6.31607 17.1211 6.87868C17.6837 7.44129 17.9998 8.20435 17.9998 9C17.9998 9.79565 17.6837 10.5587 17.1211 11.1213C16.5585 11.6839 15.7954 12 14.9998 12ZM56.9998 12H53.9998V15C53.9998 15.7956 53.6837 16.5587 53.1211 17.1213C52.5585 17.6839 51.7954 18 50.9998 18C50.2041 18 49.441 17.6839 48.8784 17.1213C48.3158 16.5587 47.9998 15.7956 47.9998 15V12H44.9998C44.2041 12 43.441 11.6839 42.8784 11.1213C42.3158 10.5587 41.9998 9.79565 41.9998 9C41.9998 8.20435 42.3158 7.44129 42.8784 6.87868C43.441 6.31607 44.2041 6 44.9998 6H47.9998V3C47.9998 2.20435 48.3158 1.44129 48.8784 0.87868C49.441 0.316071 50.2041 0 50.9998 0C51.7954 0 52.5585 0.316071 53.1211 0.87868C53.6837 1.44129 53.9998 2.20435 53.9998 3V6H56.9998C57.7954 6 58.5585 6.31607 59.1211 6.87868C59.6837 7.44129 59.9998 8.20435 59.9998 9C59.9998 9.79565 59.6837 10.5587 59.1211 11.1213C58.5585 11.6839 57.7954 12 56.9998 12ZM20.9998 48H17.9998V51C17.9998 51.7956 17.6837 52.5587 17.1211 53.1213C16.5585 53.6839 15.7954 54 14.9998 54C14.2041 54 13.441 53.6839 12.8784 53.1213C12.3158 52.5587 11.9998 51.7956 11.9998 51V48H8.99976C8.20411 48 7.44104 47.6839 6.87843 47.1213C6.31582 46.5587 5.99976 45.7956 5.99976 45C5.99976 44.2044 6.31582 43.4413 6.87843 42.8787C7.44104 42.3161 8.20411 42 8.99976 42H11.9998V39C11.9998 38.2044 12.3158 37.4413 12.8784 36.8787C13.441 36.3161 14.2041 36 14.9998 36C15.7954 36 16.5585 36.3161 17.1211 36.8787C17.6837 37.4413 17.9998 38.2044 17.9998 39V42H20.9998C21.7954 42 22.5585 42.3161 23.1211 42.8787C23.6837 43.4413 23.9998 44.2044 23.9998 45C23.9998 45.7956 23.6837 46.5587 23.1211 47.1213C22.5585 47.6839 21.7954 48 20.9998 48ZM153 156H156V153C156 152.204 156.316 151.441 156.878 150.879C157.441 150.316 158.204 150 159 150C159.795 150 160.558 150.316 161.121 150.879C161.684 151.441 162 152.204 162 153V156H165C165.795 156 166.558 156.316 167.121 156.879C167.684 157.441 168 158.204 168 159C168 159.796 167.684 160.559 167.121 161.121C166.558 161.684 165.795 162 165 162H162V165C162 165.796 161.684 166.559 161.121 167.121C160.558 167.684 159.795 168 159 168C158.204 168 157.441 167.684 156.878 167.121C156.316 166.559 156 165.796 156 165V162H153C152.204 162 151.441 161.684 150.878 161.121C150.316 160.559 150 159.796 150 159C150 158.204 150.316 157.441 150.878 156.879C151.441 156.316 152.204 156 153 156ZM147 120H150V117C150 116.204 150.316 115.441 150.878 114.879C151.441 114.316 152.204 114 153 114C153.795 114 154.558 114.316 155.121 114.879C155.684 115.441 156 116.204 156 117V120H159C159.795 120 160.558 120.316 161.121 120.879C161.684 121.441 162 122.204 162 123C162 123.796 161.684 124.559 161.121 125.121C160.558 125.684 159.795 126 159 126H156V129C156 129.796 155.684 130.559 155.121 131.121C154.558 131.684 153.795 132 153 132C152.204 132 151.441 131.684 150.878 131.121C150.316 130.559 150 129.796 150 129V126H147C146.204 126 145.441 125.684 144.878 125.121C144.316 124.559 144 123.796 144 123C144 122.204 144.316 121.441 144.878 120.879C145.441 120.316 146.204 120 147 120ZM117 150H120V147C120 146.204 120.316 145.441 120.878 144.879C121.441 144.316 122.204 144 123 144C123.795 144 124.558 144.316 125.121 144.879C125.684 145.441 126 146.204 126 147V150H129C129.795 150 130.558 150.316 131.121 150.879C131.684 151.441 132 152.204 132 153C132 153.796 131.684 154.559 131.121 155.121C130.558 155.684 129.795 156 129 156H126V159C126 159.796 125.684 160.559 125.121 161.121C124.558 161.684 123.795 162 123 162C122.204 162 121.441 161.684 120.878 161.121C120.316 160.559 120 159.796 120 159V156H117C116.204 156 115.441 155.684 114.878 155.121C114.316 154.559 114 153.796 114 153C114 152.204 114.316 151.441 114.878 150.879C115.441 150.316 116.204 150 117 150Z" fill="white"/>
</svg>
