<svg width="76" height="76" viewBox="0 0 76 76" fill="none" xmlns="http://www.w3.org/2000/svg">
<path fill-rule="evenodd" clip-rule="evenodd" d="M15 5C9.47705 5 5 9.47705 5 15V61C5 66.5229 9.47705 71 15 71H61C66.5229 71 71 66.5229 71 61V15C71 9.47705 66.5229 5 61 5H15ZM19.085 25.2539V50H24.2119V41.9336H28.6553C34.3633 41.9336 37.6445 38.5327 37.6445 33.5938C37.6445 28.7231 34.4146 25.2539 28.792 25.2539H19.085ZM27.835 37.7979H24.2119V29.458H27.835C30.877 29.4751 32.3638 31.1328 32.3467 33.5938C32.3638 36.0889 30.877 37.7979 27.835 37.7979ZM49.0427 34.79C50.7346 34.8071 51.8625 35.6445 52.0847 36.9434H56.8357C56.5623 33.4229 53.657 31.2012 48.9744 31.2012C44.1892 31.2012 41.1301 33.4229 41.1472 36.9775C41.1301 39.729 42.9417 41.5405 46.4792 42.2412L49.5554 42.8564C51.2986 43.2153 52.0847 43.8135 52.0847 44.7705C52.0847 45.9668 50.8542 46.7017 49.0085 46.7188C47.1458 46.7017 45.9666 45.9497 45.7273 44.4971H40.6345C41.0618 48.1201 44.0012 50.3589 49.0085 50.376C53.9475 50.3589 57.2288 47.915 57.2458 44.2578C57.2288 41.5918 55.4856 39.9854 51.8796 39.2334L48.5642 38.5498C46.804 38.1909 46.1545 37.5415 46.1716 36.7041C46.1545 35.5762 47.4021 34.8071 49.0427 34.79Z" fill="white"/>
</svg>
