<svg width="226" height="181" viewBox="0 0 226 181" fill="none" xmlns="http://www.w3.org/2000/svg">
<path d="M3.73116 54.7911C6.35627 58.3712 26.8827 59.8033 28.5531 61.474C29.3088 62.2298 28.1462 70.2028 28.5531 79.136C29.0457 89.9508 31.1501 102.395 32.8493 108.016C35.236 122.336 42.635 139.521 50.2726 149.545C57.9102 159.57 72.9467 171.801 88.938 175.799C104.929 179.798 116.148 179.618 127.604 177.709C139.06 175.799 166.507 161.002 174.622 154.08C182.737 147.158 189.389 137.85 196.103 122.814C202.299 108.938 204.218 103.242 205.173 94.8886C206.128 86.5349 206.891 50.7336 207.321 48.5856C207.751 46.4375 214.243 46.1988 217.823 45.0054C221.403 43.8121 227.608 17.5578 222.358 11.5909C217.107 5.62401 205.173 2.75991 195.865 1.08918C190.68 0.1586 132.616 6.81739 82.9711 6.81737C46.366 10.3247 22.8252 16.1257 22.8252 16.1257C22.8252 16.1257 8.26598 20.8992 3.73115 28.5368C-0.803678 36.1744 1.10605 51.211 3.73116 54.7911Z" fill="white"/>
<path fill-rule="evenodd" clip-rule="evenodd" d="M83.0189 7.81742C64.7693 9.56757 49.7775 11.8881 39.3489 13.771C34.1302 14.7132 30.0547 15.5457 27.286 16.1421C25.9016 16.4404 24.844 16.6796 24.1336 16.8439C23.7784 16.9261 23.51 16.9896 23.3309 17.0324C23.2414 17.0538 23.1742 17.07 23.1297 17.0808L23.1019 17.0876L23.1006 17.088C23.0749 17.0966 23.0358 17.1098 22.984 17.1275C22.8804 17.1629 22.7262 17.2164 22.5273 17.2875C22.1294 17.4297 21.5533 17.6421 20.8467 17.9211C19.4322 18.4795 17.5012 19.302 15.4335 20.3578C11.2439 22.4972 6.70175 25.4925 4.591 29.0474C2.47347 32.6138 1.80944 38.0441 2.0451 43.1394C2.1619 45.6648 2.49756 48.0571 2.95948 50.024C3.4298 52.0266 4.00513 53.4737 4.53759 54.1999C4.71454 54.4412 5.13545 54.7679 5.90975 55.1334C6.65674 55.486 7.62301 55.8248 8.75727 56.1494C11.0243 56.7982 13.8454 57.3577 16.6763 57.8643C17.798 58.065 18.9268 58.2583 20.0186 58.4453C21.6541 58.7253 23.2068 58.9912 24.5288 59.2467C25.6361 59.4606 26.619 59.674 27.3875 59.892C27.7712 60.0009 28.1227 60.1168 28.419 60.2427C28.6916 60.3585 29.0158 60.5225 29.2603 60.767C29.4703 60.9771 29.5713 61.2264 29.6244 61.3905C29.683 61.571 29.7195 61.7644 29.7445 61.9505C29.7945 62.3232 29.8128 62.7829 29.8147 63.2927C29.8184 64.2971 29.7574 65.6407 29.687 67.1937L29.6829 67.2838C29.5375 70.4903 29.351 74.6749 29.5521 79.0905C30.042 89.8454 32.137 102.204 33.8065 107.726L33.8251 107.788L33.8357 107.851C36.1975 122.023 43.5357 139.053 51.068 148.939C58.6037 158.83 73.4606 170.899 89.1805 174.829C105.032 178.792 116.111 178.611 127.439 176.723C132.994 175.797 142.593 171.692 151.907 166.885C161.205 162.088 170.009 156.701 173.973 153.319C181.941 146.524 188.515 137.355 195.19 122.406C201.376 108.553 203.243 102.972 204.18 94.775C204.651 90.6481 205.08 79.6624 205.445 69.3746C205.501 67.7816 205.556 66.2066 205.609 64.6786C205.728 61.2872 205.838 58.1267 205.939 55.5132C206.013 53.6177 206.082 52.0045 206.146 50.7962C206.208 49.6336 206.269 48.7474 206.34 48.3895C206.546 47.3587 207.429 46.7545 208.212 46.3839C209.043 45.9909 210.097 45.7032 211.171 45.4619C211.908 45.2963 212.702 45.1427 213.479 44.9924C213.837 44.9231 214.192 44.8545 214.536 44.7857C215.652 44.5625 216.676 44.3338 217.507 44.0568C217.512 44.0544 217.609 44.0117 217.789 43.8186C217.965 43.6284 218.172 43.3461 218.402 42.9605C218.86 42.19 219.351 41.1061 219.842 39.7743C220.821 37.1176 221.754 33.5957 222.418 29.9111C223.081 26.2248 223.466 22.4195 223.368 19.1917C223.319 17.5779 223.15 16.1349 222.848 14.9356C222.543 13.7268 222.119 12.8329 221.607 12.2516C219.155 9.46539 215.059 7.32745 210.304 5.67353C205.575 4.02857 200.325 2.90577 195.688 2.07351C195.172 1.98096 193.823 1.97266 191.604 2.06728C189.438 2.15966 186.563 2.34257 183.09 2.58917C179.697 2.83013 175.756 3.13012 171.368 3.46423C166.756 3.81537 161.65 4.20418 156.163 4.60175C134.802 6.14945 107.866 7.81529 83.0189 7.81742ZM22.8252 16.1258C22.5859 15.1548 22.5861 15.1548 22.5864 15.1547L22.6048 15.1502L22.6579 15.1372C22.7047 15.1259 22.7742 15.1091 22.866 15.0872C23.0497 15.0433 23.3228 14.9787 23.6828 14.8954C24.4027 14.7288 25.4702 14.4874 26.8648 14.187C29.6539 13.5862 33.7514 12.7492 38.9935 11.8028C49.4775 9.90993 64.5417 7.57868 82.8757 5.82198L82.9233 5.81742H82.9711C107.755 5.81743 134.653 4.15503 156.018 2.60698C161.479 2.21128 166.591 1.8221 171.212 1.47038C175.611 1.13544 179.565 0.834465 182.948 0.59419C186.424 0.347384 189.323 0.162752 191.519 0.0690989C193.662 -0.0223133 195.261 -0.0351312 196.041 0.104965C200.713 0.943432 206.084 2.08804 210.961 3.78454C215.813 5.47207 220.31 7.74962 223.108 10.9303C223.91 11.8408 224.44 13.0726 224.787 14.4463C225.136 15.8295 225.315 17.4259 225.367 19.1311C225.471 22.5415 225.065 26.4932 224.386 30.2654C223.707 34.0395 222.746 37.6778 221.718 40.4659C221.206 41.8565 220.666 43.0661 220.12 43.9831C219.848 44.4413 219.559 44.8512 219.254 45.1796C218.959 45.4978 218.588 45.8044 218.139 45.9542C217.18 46.2739 216.05 46.5225 214.928 46.7468C214.556 46.8213 214.186 46.8928 213.821 46.9635C213.06 47.1106 212.317 47.2542 211.61 47.4132C210.56 47.6492 209.687 47.8986 209.067 48.1917C208.4 48.5074 208.31 48.7385 208.301 48.7817C208.266 48.9609 208.209 49.6633 208.143 50.9024C208.08 52.0958 208.011 53.6973 207.938 55.5907C207.836 58.2006 207.726 61.3551 207.608 64.7447C207.555 66.2733 207.5 67.8496 207.443 69.4455C207.08 79.6837 206.65 90.7755 206.167 95.0022C205.194 103.513 203.223 109.322 197.016 123.221C190.263 138.345 183.534 147.793 175.271 154.841C171.121 158.381 162.144 163.854 152.825 168.663C143.522 173.463 133.669 177.712 127.768 178.695C116.184 180.626 104.827 180.803 88.6954 176.77C72.4328 172.704 57.2167 160.309 49.4771 150.151C41.7455 140.003 34.2962 122.7 31.8734 108.243C30.148 102.496 28.0477 90.0174 27.5542 79.1815C27.3484 74.664 27.5397 70.3955 27.6849 67.1932L27.6867 67.1531C27.7591 65.5582 27.8182 64.2549 27.8147 63.3C27.8129 62.8165 27.7949 62.4595 27.7623 62.2166C27.7581 62.1857 27.754 62.1585 27.75 62.1347C27.7198 62.12 27.6825 62.1028 27.6369 62.0834C27.4477 62.003 27.1843 61.9133 26.8417 61.8161C26.1577 61.6221 25.2424 61.4215 24.1494 61.2103C22.8412 60.9576 21.3318 60.6992 19.7191 60.4232C18.6247 60.2358 17.4828 60.0404 16.324 59.833C13.4863 59.3252 10.5792 58.7511 8.20701 58.0722C7.02167 57.733 5.94059 57.3595 5.05605 56.942C4.19882 56.5374 3.40404 56.0362 2.92471 55.3825C2.14461 54.3186 1.49681 52.5436 1.01246 50.4812C0.519709 48.3831 0.169154 45.8678 0.0472383 43.2318C-0.194533 38.0044 0.453991 32.0976 2.87129 28.0264C5.29537 23.9437 10.3002 20.7334 14.5239 18.5766C16.6629 17.4844 18.6551 16.6361 20.1122 16.0608C20.8414 15.773 21.4381 15.5528 21.8542 15.4041C22.0622 15.3298 22.2252 15.2732 22.3371 15.235C22.3931 15.2159 22.4362 15.2013 22.4659 15.1914L22.5002 15.18L22.5095 15.1769L22.5122 15.176C22.5125 15.1759 22.5136 15.1755 22.8252 16.1258ZM22.8252 16.1258L22.5136 15.1755L22.5494 15.1638L22.5864 15.1547L22.8252 16.1258Z" fill="black"/>
<path fill-rule="evenodd" clip-rule="evenodd" d="M163.317 109.034C163.385 109.582 162.996 110.082 162.448 110.149L87.1226 119.458C86.5745 119.526 86.0752 119.136 86.0075 118.588C85.9398 118.04 86.3292 117.541 86.8773 117.473L162.202 108.165C162.75 108.097 163.25 108.486 163.317 109.034Z" fill="black"/>
<path fill-rule="evenodd" clip-rule="evenodd" d="M44.5 103.631C82.8838 103.631 114 72.8338 114 34.8432C114 24.933 111.883 15.5123 108.071 7C99.9893 7.27711 91.8735 7.4441 83.9711 7.4441C47.366 10.9156 23.8252 16.6571 23.8252 16.6571C23.8252 16.6571 9.26598 21.3817 4.73115 28.9411C0.196322 36.5005 2.10605 51.383 4.73116 54.9265C6.30774 57.0546 14.3412 58.4159 20.869 59.522C25.2104 60.2576 28.8859 60.8804 29.5531 61.5409C29.9283 61.9124 29.8306 64.045 29.6869 67.1807C29.5412 70.36 29.3483 74.5706 29.5531 79.022C29.9291 87.1905 31.2436 96.2983 32.6004 102.627C36.4669 103.287 40.4429 103.631 44.5 103.631Z" fill="#7092BF" fill-opacity="0.5"/>
<path d="M104.296 76.0577C104.296 77.2441 103.334 78.2058 102.148 78.2058C100.962 78.2058 100 77.2441 100 76.0577C100 74.8714 100.962 73.9097 102.148 73.9097C103.334 73.9097 104.296 74.8714 104.296 76.0577Z" fill="black"/>
<path d="M140.097 74.1481C140.097 75.3344 139.135 76.2962 137.949 76.2962C136.763 76.2962 135.801 75.3344 135.801 74.1481C135.801 72.9617 136.763 72 137.949 72C139.135 72 140.097 72.9617 140.097 74.1481Z" fill="black"/>
<path fill-rule="evenodd" clip-rule="evenodd" d="M91.5588 49.3697C77.8953 49.7583 67.1338 61.1498 67.5224 74.8133C67.911 88.4768 79.3024 99.2383 92.9659 98.8497C106.629 98.4612 117.391 87.0697 117.002 73.4062C116.959 71.8961 116.782 70.4214 116.482 68.9934C115.741 69.2981 115.261 69.6048 115.034 69.8445C114.56 70.3464 113.769 70.3689 113.267 69.8948C112.765 69.4207 112.743 68.6296 113.217 68.1277C113.83 67.4783 114.784 66.9605 115.839 66.5593C112.567 56.325 102.837 49.049 91.5588 49.3697ZM118.24 65.8574C114.657 54.5574 103.927 46.517 91.4878 46.8707C80.0598 47.1957 70.4756 54.5116 66.7163 64.6043C66.7016 64.6019 66.6867 64.5998 66.6718 64.5979L60.146 63.7831C59.461 63.6976 58.8363 64.1836 58.7508 64.8686C58.6652 65.5536 59.1512 66.1783 59.8363 66.2638L65.9417 67.0262C65.2701 69.5259 64.9461 72.1642 65.0234 74.8843C65.4512 89.928 77.9933 101.777 93.037 101.349C108.081 100.921 119.929 88.3788 119.501 73.3351C119.452 71.6015 119.242 69.9104 118.886 68.2756C119.695 68.1028 120.572 67.9725 121.475 67.9001C122.814 67.7928 124.137 67.8178 125.343 67.9883C125.068 69.6734 124.949 71.4088 124.999 73.1788C125.427 88.2224 137.969 100.071 153.013 99.6431C168.056 99.2153 179.905 86.6732 179.477 71.6295C179.41 69.284 179.049 67.0162 178.43 64.8604L184.694 63.7135C185.373 63.5892 185.823 62.9379 185.699 62.2589C185.574 61.5798 184.923 61.1301 184.244 61.2544L177.775 62.4388C177.723 62.4483 177.672 62.4609 177.623 62.4764C173.551 52.0662 163.279 44.8291 151.463 45.1652C139.061 45.5178 128.831 54.104 125.86 65.5376C124.335 65.306 122.747 65.2901 121.275 65.4081C120.227 65.4922 119.198 65.6468 118.24 65.8574ZM127.777 68.6073C128.37 68.8451 128.893 69.1401 129.323 69.4951C129.855 69.9347 130.643 69.8596 131.083 69.3274C131.522 68.7951 131.447 68.0072 130.915 67.5676C130.16 66.9435 129.264 66.4735 128.29 66.1297C131.001 55.764 140.284 47.9841 151.535 47.6641C165.198 47.2756 176.589 58.0371 176.978 71.7006C177.367 85.3641 166.605 96.7556 152.942 97.1441C139.278 97.5327 127.887 86.7712 127.498 73.1077C127.455 71.5748 127.551 70.0706 127.777 68.6073Z" fill="black"/>
</svg>
