<svg width="226" height="181" viewBox="0 0 226 181" fill="none" xmlns="http://www.w3.org/2000/svg">
<path d="M3.73116 54.7931C6.35627 58.3732 26.8827 59.8053 28.5531 61.476C29.3088 62.2317 28.1462 70.2047 28.5531 79.1379C29.0457 89.9528 31.1501 102.397 32.8493 108.018C35.236 122.338 42.635 139.523 50.2726 149.547C57.9102 159.572 72.9467 171.803 88.938 175.801C104.929 179.8 116.148 179.62 127.604 177.711C139.06 175.801 166.507 161.004 174.622 154.082C182.737 147.16 189.389 137.852 196.103 122.816C202.299 108.939 204.218 103.244 205.173 94.8905C206.128 86.5369 206.891 50.7356 207.321 48.5875C207.751 46.4394 214.243 46.2008 217.823 45.0074C221.403 43.814 227.608 17.5597 222.358 11.5928C217.107 5.62597 205.173 2.76186 195.865 1.09114C190.68 0.160553 132.616 6.81934 82.9711 6.81932C46.366 10.3267 22.8252 16.1277 22.8252 16.1277C22.8252 16.1277 8.26598 20.9012 3.73115 28.5388C-0.803678 36.1764 1.10605 51.2129 3.73116 54.7931Z" fill="white"/>
<path fill-rule="evenodd" clip-rule="evenodd" d="M83.0189 7.81937C64.7693 9.56952 49.7775 11.8901 39.3489 13.7729C34.1302 14.7151 30.0547 15.5476 27.286 16.1441C25.9016 16.4423 24.844 16.6815 24.1336 16.8459C23.7784 16.9281 23.51 16.9915 23.3309 17.0343C23.2414 17.0557 23.1742 17.072 23.1297 17.0828L23.1019 17.0895L23.1006 17.09C23.0749 17.0986 23.0358 17.1118 22.984 17.1295C22.8804 17.1649 22.7262 17.2183 22.5273 17.2894C22.1294 17.4316 21.5533 17.6441 20.8467 17.9231C19.4322 18.4815 17.5012 19.304 15.4335 20.3598C11.2439 22.4991 6.70175 25.4944 4.591 29.0494C2.47347 32.6157 1.80944 38.046 2.0451 43.1413C2.1619 45.6667 2.49756 48.0591 2.95948 50.0259C3.4298 52.0285 4.00513 53.4756 4.53759 54.2018C4.71454 54.4431 5.13545 54.7698 5.90975 55.1353C6.65674 55.4879 7.62301 55.8267 8.75727 56.1513C11.0243 56.8001 13.8454 57.3597 16.6763 57.8662C17.798 58.067 18.9268 58.2603 20.0186 58.4472C21.6541 58.7273 23.2068 58.9932 24.5288 59.2486C25.6361 59.4626 26.619 59.676 27.3875 59.894C27.7712 60.0028 28.1227 60.1187 28.419 60.2446C28.6916 60.3605 29.0158 60.5245 29.2603 60.769C29.4703 60.979 29.5713 61.2284 29.6244 61.3924C29.683 61.5729 29.7195 61.7664 29.7445 61.9525C29.7945 62.3252 29.8128 62.7848 29.8147 63.2947C29.8184 64.2991 29.7574 65.6426 29.687 67.1956L29.6829 67.2858C29.5375 70.4923 29.351 74.6769 29.5521 79.0925C30.042 89.8473 32.137 102.206 33.8065 107.728L33.8251 107.79L33.8357 107.853C36.1975 122.024 43.5357 139.055 51.068 148.941C58.6037 158.832 73.4606 170.901 89.1805 174.831C105.032 178.794 116.111 178.613 127.439 176.725C132.994 175.799 142.593 171.694 151.907 166.887C161.205 162.09 170.009 156.703 173.973 153.321C181.941 146.526 188.515 137.357 195.19 122.408C201.376 108.555 203.243 102.974 204.18 94.777C204.651 90.65 205.08 79.6644 205.445 69.3766C205.501 67.7836 205.556 66.2086 205.609 64.6805C205.728 61.2891 205.838 58.1287 205.939 55.5152C206.013 53.6196 206.082 52.0064 206.146 50.7982C206.208 49.6356 206.269 48.7493 206.34 48.3915C206.546 47.3607 207.429 46.7564 208.212 46.3859C209.043 45.9928 210.097 45.7052 211.171 45.4638C211.908 45.2982 212.702 45.1447 213.479 44.9943C213.837 44.9251 214.192 44.8565 214.536 44.7876C215.652 44.5644 216.676 44.3357 217.507 44.0588C217.512 44.0564 217.609 44.0136 217.789 43.8206C217.965 43.6304 218.172 43.348 218.402 42.9624C218.86 42.192 219.351 41.108 219.842 39.7763C220.821 37.1196 221.754 33.5976 222.418 29.9131C223.081 26.2267 223.466 22.4215 223.368 19.1937C223.319 17.5798 223.15 16.1368 222.848 14.9375C222.543 13.7287 222.119 12.8348 221.607 12.2535C219.155 9.46735 215.059 7.3294 210.304 5.67548C205.575 4.03053 200.325 2.90772 195.688 2.07546C195.172 1.98291 193.823 1.97461 191.604 2.06924C189.438 2.16161 186.563 2.34453 183.09 2.59112C179.697 2.83208 175.756 3.13208 171.368 3.46618C166.756 3.81732 161.65 4.20614 156.163 4.60371C134.802 6.15141 107.866 7.81724 83.0189 7.81937ZM22.8252 16.1277C22.5859 15.1568 22.5861 15.1567 22.5864 15.1567L22.6048 15.1521L22.6579 15.1392C22.7047 15.1278 22.7742 15.1111 22.866 15.0891C23.0497 15.0452 23.3228 14.9806 23.6828 14.8974C24.4027 14.7308 25.4702 14.4894 26.8648 14.189C29.6539 13.5881 33.7514 12.7512 38.9935 11.8047C49.4775 9.91188 64.5417 7.58063 82.8757 5.82393L82.9233 5.81937H82.9711C107.755 5.81938 134.653 4.15698 156.018 2.60894C161.479 2.21324 166.591 1.82405 171.212 1.47233C175.611 1.13739 179.565 0.836419 182.948 0.596143C186.424 0.349338 189.323 0.164705 191.519 0.0710521C193.662 -0.0203601 195.261 -0.0331781 196.041 0.106918C200.713 0.945385 206.084 2.08999 210.961 3.78649C215.813 5.47402 220.31 7.75157 223.108 10.9323C223.91 11.8427 224.44 13.0745 224.787 14.4482C225.136 15.8315 225.315 17.4279 225.367 19.1331C225.471 22.5435 225.065 26.4951 224.386 30.2674C223.707 34.0414 222.746 37.6798 221.718 40.4678C221.206 41.8585 220.666 43.0681 220.12 43.9851C219.848 44.4433 219.559 44.8532 219.254 45.1816C218.959 45.4997 218.588 45.8064 218.139 45.9561C217.18 46.2758 216.05 46.5245 214.928 46.7488C214.556 46.8232 214.186 46.8948 213.821 46.9655C213.06 47.1126 212.317 47.2561 211.61 47.4152C210.56 47.6511 209.687 47.9005 209.067 48.1937C208.4 48.5093 208.31 48.7404 208.301 48.7837C208.266 48.9628 208.209 49.6653 208.143 50.9043C208.08 52.0977 208.011 53.6992 207.938 55.5926C207.836 58.2025 207.726 61.357 207.608 64.7467C207.555 66.2752 207.5 67.8516 207.443 69.4474C207.08 79.6857 206.65 90.7775 206.167 95.0042C205.194 103.515 203.223 109.324 197.016 123.223C190.263 138.347 183.534 147.795 175.271 154.843C171.121 158.383 162.144 163.856 152.825 168.665C143.522 173.465 133.669 177.714 127.768 178.697C116.184 180.628 104.827 180.805 88.6954 176.772C72.4328 172.706 57.2167 160.311 49.4771 150.153C41.7455 140.005 34.2962 122.702 31.8734 108.245C30.148 102.498 28.0477 90.0194 27.5542 79.1835C27.3484 74.6659 27.5397 70.3974 27.6849 67.1952L27.6867 67.1551C27.7591 65.5601 27.8182 64.2568 27.8147 63.302C27.8129 62.8185 27.7949 62.4615 27.7623 62.2186C27.7581 62.1877 27.754 62.1605 27.75 62.1367C27.7198 62.122 27.6825 62.1048 27.6369 62.0854C27.4477 62.005 27.1843 61.9153 26.8417 61.8181C26.1577 61.624 25.2424 61.4235 24.1494 61.2123C22.8412 60.9595 21.3318 60.7011 19.7191 60.4251C18.6247 60.2378 17.4828 60.0423 16.324 59.835C13.4863 59.3272 10.5792 58.753 8.20701 58.0742C7.02167 57.7349 5.94059 57.3615 5.05605 56.944C4.19882 56.5393 3.40404 56.0382 2.92471 55.3844C2.14461 54.3205 1.49681 52.5455 1.01246 50.4832C0.519709 48.3851 0.169154 45.8697 0.0472383 43.2337C-0.194533 38.0063 0.453991 32.0995 2.87129 28.0283C5.29537 23.9456 10.3002 20.7354 14.5239 18.5786C16.6629 17.4863 18.6551 16.6381 20.1122 16.0628C20.8414 15.7749 21.4381 15.5548 21.8542 15.4061C22.0622 15.3317 22.2252 15.2752 22.3371 15.237C22.3931 15.2178 22.4362 15.2033 22.4659 15.1933L22.5002 15.1819L22.5095 15.1788L22.5122 15.178C22.5125 15.1779 22.5136 15.1775 22.8252 16.1277ZM22.8252 16.1277L22.5136 15.1775L22.5494 15.1658L22.5864 15.1567L22.8252 16.1277Z" fill="black"/>
<path fill-rule="evenodd" clip-rule="evenodd" d="M44.5 103.633C82.8838 103.633 114 72.8358 114 34.8451C114 24.9349 111.883 15.5142 108.071 7.00195C99.9893 7.27906 91.8735 7.44605 83.9711 7.44605C47.366 10.9175 23.8252 16.6591 23.8252 16.6591C23.8252 16.6591 9.26598 21.3837 4.73115 28.9431C0.196322 36.5024 2.10605 51.385 4.73116 54.9284C6.30774 57.0565 14.3412 58.4178 20.869 59.5239C25.2104 60.2596 28.8859 60.8824 29.5531 61.5429C29.9283 61.9143 29.8306 64.0469 29.6869 67.1826C29.5412 70.362 29.3483 74.5725 29.5531 79.0239C29.9291 87.1925 31.2436 96.3002 32.6004 102.629C36.4669 103.289 40.4429 103.633 44.5 103.633Z" fill="#B84B0D" fill-opacity="0.5"/>
<path d="M105.296 76.0597C105.296 77.246 104.334 78.2078 103.148 78.2078C101.962 78.2078 101 77.246 101 76.0597C101 74.8733 101.962 73.9116 103.148 73.9116C104.334 73.9116 105.296 74.8733 105.296 76.0597Z" fill="black"/>
<path d="M141.097 74.15C141.097 75.3364 140.135 76.2981 138.949 76.2981C137.763 76.2981 136.801 75.3364 136.801 74.15C136.801 72.9637 137.763 72.002 138.949 72.002C140.135 72.002 141.097 72.9637 141.097 74.15Z" fill="black"/>
<path d="M70 99.0005C70 103.419 66.4183 107 62 107C57.5817 107 54 103.419 54 99.0005C54 94.5822 57.5817 91.0005 62 91.0005C66.4183 91.0005 70 94.5822 70 99.0005Z" fill="#FF6C6C"/>
<path d="M188 94.0005C188 98.4188 184.418 102 180 102C175.582 102 172 98.4188 172 94.0005C172 89.5822 175.582 86.0005 180 86.0005C184.418 86.0005 188 89.5822 188 94.0005Z" fill="#FF6C6C"/>
<path fill-rule="evenodd" clip-rule="evenodd" d="M163.317 109.035C163.385 109.583 162.996 110.082 162.448 110.15L87.1226 119.458C86.5745 119.526 86.0752 119.137 86.0075 118.588C85.9398 118.04 86.3292 117.541 86.8773 117.473L162.202 108.165C162.75 108.097 163.25 108.487 163.317 109.035Z" fill="black"/>
<path d="M31.1774 22.1681C34.3142 22.274 38.7012 25.3103 41.5887 27.4042C37.9067 31.8451 41.6523 36.257 41.9388 37.2151C42.6263 39.5145 47.2456 38.7596 49.4811 38.0912C46.759 40.1576 46.2806 55.2262 45.2988 55.5198C44.796 55.6702 40.9219 49.5223 40.2759 49.1936C39.6299 48.865 36.897 51.7695 35.772 51.5841C34.2647 49.9473 38.76 39.3833 41.9388 37.2151C31.9747 40.1945 27.8095 38.8309 26.1114 36.729C24.4134 34.6272 24.9945 27.6699 25.8586 25.3241C26.7227 22.9783 28.6293 22.082 31.1774 22.1681Z" fill="#FF714D"/>
<path fill-rule="evenodd" clip-rule="evenodd" d="M27.642 22.3982C28.6493 21.8332 29.8617 21.6235 31.1943 21.6685C32.8894 21.7257 34.8592 22.5638 36.7205 23.6043C38.5979 24.6538 40.4367 25.9513 41.8823 26.9995L42.3142 27.3127L41.9737 27.7234C40.2625 29.7873 40.2782 31.8181 40.7561 33.4775C40.9978 34.3168 41.3589 35.061 41.6853 35.6648C41.7924 35.8629 41.8913 36.038 41.9827 36.1999C42.0333 36.2895 42.0815 36.375 42.1277 36.4581C42.2439 36.6675 42.3635 36.8904 42.4179 37.072C42.5367 37.4695 42.8237 37.7567 43.29 37.9566C43.769 38.162 44.4063 38.259 45.1345 38.2662C46.5873 38.2807 48.2484 37.938 49.3379 37.6122L49.7835 38.4895C49.5436 38.6716 49.2805 39.0408 49.0159 39.6271C48.7567 40.2014 48.5192 40.9305 48.3013 41.7705C47.8657 43.4499 47.5232 45.5133 47.2323 47.5414C47.098 48.4776 46.9737 49.4152 46.8564 50.2994C46.7224 51.3093 46.5977 52.2495 46.478 53.0384C46.365 53.7835 46.2522 54.4248 46.1335 54.8941C46.0747 55.1265 46.0092 55.3386 45.9323 55.5066C45.8941 55.5902 45.8448 55.6813 45.7797 55.7626C45.7182 55.8394 45.6095 55.9489 45.4421 55.999C45.2931 56.0436 45.1628 56.0162 45.0865 55.9912C45.0073 55.9653 44.9411 55.9273 44.8923 55.8953C44.7947 55.8313 44.6992 55.7455 44.6127 55.6594C44.4357 55.4836 44.2259 55.2357 44.0008 54.9517C43.5478 54.3799 42.9891 53.605 42.434 52.8268C42.3245 52.6733 42.2151 52.5196 42.1066 52.367C41.6611 51.7412 41.2297 51.135 40.8616 50.6407C40.6325 50.3331 40.4336 50.0764 40.275 49.8892C40.201 49.8018 40.1403 49.7349 40.0927 49.6871C40.006 49.7187 39.8824 49.7811 39.7189 49.8811C39.4155 50.0669 39.0545 50.3315 38.6541 50.6251C38.603 50.6625 38.5512 50.7005 38.4989 50.7388C38.0492 51.0678 37.5597 51.4201 37.1064 51.6775C36.8791 51.8066 36.6461 51.9205 36.4197 51.9958C36.1987 52.0692 35.9443 52.1194 35.6907 52.0776L35.5208 52.0496L35.4042 51.9229C35.0916 51.5835 34.9904 51.0876 34.9741 50.6026C34.9571 50.0979 35.0293 49.4996 35.163 48.8523C35.4311 47.5544 35.964 45.9795 36.6384 44.4024C37.3137 42.8232 38.139 41.2232 39.001 39.8755C39.3836 39.2774 39.78 38.7185 40.1804 38.2297C36.1411 39.2926 33.1277 39.5836 30.8793 39.3755C28.2793 39.135 26.6754 38.2228 25.7225 37.0434C25.2169 36.4175 24.9167 35.486 24.7414 34.4758C24.5635 33.4505 24.5034 32.2769 24.5243 31.1092C24.5658 28.7876 24.9299 26.3988 25.3894 25.1514C25.8584 23.8783 26.6247 22.9687 27.642 22.3982ZM41.7642 37.9939C41.1666 38.5381 40.5064 39.3779 39.8434 40.4143C39.0157 41.7083 38.2153 43.2582 37.5579 44.7956C36.8995 46.3351 36.3925 47.8436 36.1423 49.0546C36.0169 49.6617 35.9603 50.1742 35.9735 50.569C35.9811 50.7947 36.0107 50.9546 36.0465 51.0646C36.0644 51.0595 36.0837 51.0536 36.1044 51.0468C36.2453 50.9999 36.4154 50.9199 36.6126 50.8079C37.0083 50.5832 37.4534 50.2647 37.9084 49.9318C37.9599 49.894 38.0117 49.856 38.0636 49.818C38.4566 49.5297 38.8549 49.2375 39.1968 49.0282C39.3899 48.9101 39.5906 48.802 39.7808 48.7368C39.9479 48.6794 40.2319 48.6103 40.5027 48.7481C40.6163 48.8059 40.7153 48.8965 40.7842 48.9644C40.8632 49.0423 40.949 49.1376 41.0382 49.243C41.2171 49.4543 41.4308 49.7307 41.6636 50.0434C42.0389 50.5473 42.4786 51.1652 42.9246 51.7918C43.0323 51.9432 43.1405 52.0952 43.2482 52.2462C43.8052 53.0272 44.3497 53.7817 44.7846 54.3306C44.9163 54.4969 45.0341 54.6392 45.1361 54.7552C45.1452 54.7218 45.1545 54.6864 45.164 54.6489C45.27 54.2299 45.3769 53.6297 45.4894 52.8885C45.6095 52.0967 45.731 51.1793 45.8627 50.1853C45.9793 49.3053 46.1039 48.3653 46.2424 47.3994C46.5341 45.3654 46.883 43.2558 47.3333 41.5195C47.5584 40.6516 47.8126 39.8622 48.1044 39.2157C48.1502 39.1143 48.1976 39.0149 48.2466 38.9181C47.2786 39.1221 46.1633 39.2765 45.1245 39.2662C44.3324 39.2583 43.5463 39.1546 42.8959 38.8757C42.443 38.6815 42.0435 38.3955 41.7642 37.9939ZM41.2304 36.9023C36.5795 38.2454 33.2887 38.5942 30.9714 38.3798C28.5733 38.1579 27.2455 37.3373 26.5004 36.4149C26.157 35.9899 25.893 35.2635 25.7267 34.3048C25.563 33.3612 25.504 32.2547 25.5241 31.1271C25.5647 28.8582 25.9232 26.5954 26.3278 25.497C26.723 24.4243 27.342 23.7129 28.1311 23.2704C28.9301 22.8222 29.945 22.6269 31.1605 22.6679C32.6023 22.7166 34.3944 23.4496 36.2326 24.4772C37.882 25.3992 39.5118 26.5252 40.8755 27.5059C39.2367 29.7431 39.2812 31.9697 39.7951 33.7542C40.0654 34.6927 40.4642 35.5087 40.8056 36.1403C40.9161 36.3448 41.0252 36.538 41.1199 36.7058C41.1596 36.7761 41.1968 36.842 41.2304 36.9023ZM40.1649 49.667C40.1649 49.6671 40.1626 49.6675 40.1585 49.6677C40.163 49.6669 40.165 49.6668 40.1649 49.667Z" fill="black"/>
<path d="M54.6264 15.1566C52.0626 16.9671 50.0625 21.9132 48.7983 25.2485C54.3138 26.9392 53.605 32.6831 53.8914 33.6412C54.579 35.9406 50.3036 37.8453 48.068 38.5138C51.4777 38.7467 60.1494 51.0793 61.1313 50.7858C61.6341 50.6355 61.4973 43.37 61.8569 42.7407C62.2165 42.1114 66.0952 43.039 66.9338 42.2664C67.2952 40.0708 57.7386 33.7085 53.8914 33.6412C63.8555 30.6618 66.5885 27.2355 66.854 24.5465C67.1196 21.8576 62.8147 16.3612 60.8047 14.8748C58.7946 13.3884 56.709 13.6859 54.6264 15.1566Z" fill="#FF714D"/>
<path fill-rule="evenodd" clip-rule="evenodd" d="M57.7078 13.408C56.5557 13.4888 55.4272 13.9791 54.338 14.7482C52.9526 15.7266 51.7662 17.5084 50.7816 19.3999C49.7885 21.3076 48.9637 23.4016 48.3308 25.0713L48.1418 25.5702L48.6518 25.7265C51.2151 26.5123 52.3167 28.2184 52.8282 29.8677C53.087 30.702 53.1936 31.5222 53.2523 32.2061C53.2715 32.4305 53.285 32.6311 53.2974 32.8166C53.3043 32.9192 53.3109 33.0172 53.318 33.1121C53.3358 33.3508 53.3581 33.6028 53.4124 33.7844C53.5313 34.182 53.4491 34.5795 53.169 35.0027C52.8814 35.4373 52.4019 35.8682 51.7973 36.2739C50.5909 37.0836 49.0143 37.709 47.9248 38.0347L48.034 39.0126C48.3344 39.0331 48.757 39.1973 49.3001 39.5421C49.832 39.8798 50.4307 40.3589 51.0739 40.9415C52.3599 42.106 53.7789 43.6427 55.1354 45.1783C55.7615 45.8871 56.3802 46.6025 56.9636 47.2772C57.6299 48.0478 58.2503 48.7652 58.7834 49.3589C59.2869 49.9197 59.7332 50.3938 60.0901 50.7209C60.2667 50.8828 60.438 51.0242 60.5944 51.1224C60.6723 51.1713 60.7635 51.2204 60.8625 51.2526C60.9561 51.283 61.1071 51.3149 61.2745 51.2649C61.4235 51.2203 61.5173 51.1259 61.5675 51.0631C61.6194 50.998 61.6539 50.9299 61.6771 50.8764C61.7236 50.7693 61.7562 50.6452 61.7814 50.5257C61.8327 50.2816 61.8721 49.9592 61.9043 49.5983C61.9691 48.8716 62.0107 47.9173 62.0475 46.9621C62.0547 46.7737 62.0618 46.5851 62.0688 46.3981C62.0975 45.6304 62.1254 44.8869 62.1617 44.2716C62.1843 43.8888 62.2097 43.5651 62.2395 43.3215C62.2534 43.2078 62.2674 43.1186 62.2809 43.0525C62.3708 43.0313 62.5083 43.0156 62.6999 43.0095C63.0555 42.9982 63.5024 43.0212 63.9983 43.0468C64.0616 43.05 64.1257 43.0534 64.1905 43.0566C64.7469 43.0848 65.3494 43.1105 65.8696 43.0769C66.1305 43.06 66.3878 43.0273 66.6183 42.9659C66.8434 42.906 67.0836 42.8083 67.2726 42.6341L67.3993 42.5175L67.4272 42.3476C67.5022 41.8923 67.3145 41.4222 67.0619 41.0079C66.799 40.5767 66.4103 40.1162 65.9432 39.6486C65.0067 38.7109 63.6967 37.687 62.2672 36.739C60.8358 35.7897 59.2678 34.9054 57.8074 34.2521C57.1593 33.9622 56.5212 33.7127 55.9182 33.5239C59.8779 32.1949 62.5564 30.784 64.3215 29.3758C66.3627 27.7475 67.2027 26.1046 67.3517 24.5957C67.4307 23.7949 67.1703 22.8516 66.7622 21.911C66.3481 20.9563 65.7541 19.9424 65.0957 18.9778C63.7865 17.06 62.1709 15.2632 61.102 14.4728C60.0112 13.6662 58.8713 13.3265 57.7078 13.408ZM54.4649 34.1962C55.2631 34.3231 56.2759 34.6626 57.399 35.165C58.8012 35.7922 60.3211 36.6483 61.7145 37.5724C63.11 38.4978 64.3618 39.4803 65.2357 40.3553C65.6738 40.7939 66.0024 41.1911 66.2081 41.5284C66.3256 41.7213 66.3887 41.8711 66.4192 41.9827C66.4014 41.9884 66.3821 41.994 66.361 41.9996C66.2175 42.0378 66.0314 42.0643 65.8051 42.079C65.3509 42.1084 64.8041 42.0864 64.241 42.0579C64.1772 42.0547 64.1131 42.0514 64.0488 42.048C63.5621 42.0228 63.0688 41.9972 62.6681 42.01C62.4418 42.0172 62.2148 42.0371 62.0199 42.0869C61.8488 42.1308 61.5735 42.2289 61.4228 42.4927C61.3596 42.6034 61.3266 42.7335 61.3062 42.8281C61.2829 42.9365 61.2636 43.0633 61.2468 43.2003C61.2133 43.4751 61.1864 43.8235 61.1634 44.2126C61.1264 44.8398 61.098 45.5977 61.0693 46.3663C61.0623 46.552 61.0553 46.7384 61.0482 46.9237C61.0113 47.8823 60.9704 48.8119 60.9082 49.5095C60.8894 49.7207 60.8691 49.9043 60.8475 50.0572C60.8216 50.0344 60.7943 50.0099 60.7658 49.9837C60.4472 49.6917 60.0283 49.2487 59.5275 48.6909C58.9924 48.095 58.3872 47.3949 57.7315 46.6363C57.1509 45.9648 56.5308 45.2475 55.8848 44.5162C54.5244 42.9762 53.0748 41.4044 51.7452 40.2002C51.0806 39.5984 50.4348 39.0781 49.836 38.6979C49.7421 38.6383 49.6479 38.5812 49.5538 38.5272C50.4749 38.1664 51.492 37.6832 52.3545 37.1043C53.0123 36.6629 53.6124 36.1447 54.003 35.5545C54.275 35.1435 54.4519 34.6852 54.4649 34.1962ZM54.3118 32.9908C58.9366 31.5604 61.8787 30.0454 63.6979 28.5941C65.5806 27.0922 66.24 25.6774 66.3565 24.4974C66.4102 23.9537 66.2321 23.2016 65.8448 22.3089C65.4637 21.4303 64.9056 20.4731 64.2698 19.5416C62.9904 17.6674 61.4486 15.9728 60.5074 15.2769C59.5882 14.5971 58.6803 14.3423 57.7778 14.4056C56.8639 14.4697 55.9084 14.8635 54.9149 15.565C53.7365 16.3972 52.641 17.9937 51.6686 19.8616C50.7961 21.5377 50.0518 23.3736 49.4503 24.9419C52.0482 25.9123 53.2333 27.7978 53.7834 29.5715C54.0727 30.5043 54.1872 31.4053 54.2486 32.1207C54.2685 32.3522 54.2834 32.5737 54.2963 32.7658C54.3017 32.8464 54.3068 32.9219 54.3118 32.9908ZM62.2095 43.0753C62.2097 43.0754 62.2117 43.0745 62.2153 43.0724C62.2111 43.0742 62.2094 43.0753 62.2095 43.0753Z" fill="black"/>
<path fill-rule="evenodd" clip-rule="evenodd" d="M38.8874 35.3312C33.8934 32.0198 27.9791 33.5705 25.6485 34.7717C25.4031 34.8983 25.1015 34.8018 24.975 34.5564C24.8485 34.3109 24.9449 34.0094 25.1904 33.8829C27.6831 32.5981 34.0191 30.9033 39.44 34.4977C39.6702 34.6503 39.7331 34.9606 39.5805 35.1908C39.4278 35.4209 39.1176 35.4838 38.8874 35.3312Z" fill="black"/>
<path fill-rule="evenodd" clip-rule="evenodd" d="M60.737 24.6783C62.8533 23.5356 64.9687 22.9704 66.2496 22.8005C66.5233 22.7642 66.7158 22.5129 66.6795 22.2391C66.6432 21.9654 66.3918 21.7729 66.1181 21.8092C64.7217 21.9944 62.4891 22.5957 60.2619 23.7984C58.0332 25.0019 55.7756 26.8265 54.3861 29.4765C54.2579 29.7211 54.3522 30.0233 54.5967 30.1515C54.8413 30.2797 55.1435 30.1854 55.2717 29.9409C56.541 27.5201 58.6223 25.8203 60.737 24.6783Z" fill="black"/>
<path d="M54.9721 30.1876C56.1588 34.1561 53.4747 38.4634 48.977 39.8083C44.4793 41.1531 39.8713 39.0262 38.6847 35.0577C37.498 31.0892 40.1821 26.7818 44.6798 25.437C49.1775 24.0921 53.7855 26.219 54.9721 30.1876Z" fill="#FF714D"/>
<path fill-rule="evenodd" clip-rule="evenodd" d="M48.6905 38.8502C52.7753 37.6288 55.0098 33.8042 54.0141 30.474C53.0183 27.1438 49.051 25.1737 44.9663 26.3951C40.8816 27.6165 38.647 31.441 39.6428 34.7712C40.6385 38.1014 44.6058 40.0716 48.6905 38.8502ZM48.977 39.8083C53.4747 38.4634 56.1588 34.1561 54.9721 30.1876C53.7855 26.219 49.1775 24.0921 44.6798 25.437C40.1821 26.7818 37.498 31.0892 38.6847 35.0577C39.8713 39.0262 44.4793 41.1531 48.977 39.8083Z" fill="black"/>
</svg>
