<svg width="226" height="181" viewBox="0 0 226 181" fill="none" xmlns="http://www.w3.org/2000/svg">
<path d="M3.73116 54.7911C6.35627 58.3712 26.8827 59.8033 28.5531 61.474C29.3088 62.2298 28.1462 70.2028 28.5531 79.136C29.0457 89.9508 31.1501 102.395 32.8493 108.016C35.236 122.336 42.635 139.521 50.2726 149.545C57.9102 159.57 72.9467 171.801 88.938 175.799C104.929 179.798 116.148 179.618 127.604 177.709C139.06 175.799 166.507 161.002 174.622 154.08C182.737 147.158 189.389 137.85 196.103 122.814C202.299 108.938 204.218 103.242 205.173 94.8886C206.128 86.5349 206.891 50.7336 207.321 48.5856C207.751 46.4375 214.243 46.1988 217.823 45.0054C221.403 43.8121 227.608 17.5578 222.358 11.5909C217.107 5.62401 205.173 2.75991 195.865 1.08918C190.68 0.1586 132.616 6.81739 82.9711 6.81737C46.366 10.3247 22.8252 16.1257 22.8252 16.1257C22.8252 16.1257 8.26598 20.8992 3.73115 28.5368C-0.803678 36.1744 1.10605 51.211 3.73116 54.7911Z" fill="white"/>
<path fill-rule="evenodd" clip-rule="evenodd" d="M83.0189 7.81742C64.7693 9.56757 49.7775 11.8881 39.3489 13.771C34.1302 14.7132 30.0547 15.5457 27.286 16.1421C25.9016 16.4404 24.844 16.6796 24.1336 16.8439C23.7784 16.9261 23.51 16.9896 23.3309 17.0324C23.2414 17.0538 23.1742 17.07 23.1297 17.0808L23.1019 17.0876L23.1006 17.088C23.0749 17.0966 23.0358 17.1098 22.984 17.1275C22.8804 17.1629 22.7262 17.2164 22.5273 17.2875C22.1294 17.4297 21.5533 17.6421 20.8467 17.9211C19.4322 18.4795 17.5012 19.302 15.4335 20.3578C11.2439 22.4972 6.70175 25.4925 4.591 29.0474C2.47347 32.6138 1.80944 38.0441 2.0451 43.1394C2.1619 45.6648 2.49756 48.0571 2.95948 50.024C3.4298 52.0266 4.00513 53.4737 4.53759 54.1999C4.71454 54.4412 5.13545 54.7679 5.90975 55.1334C6.65674 55.486 7.62301 55.8248 8.75727 56.1494C11.0243 56.7982 13.8454 57.3577 16.6763 57.8643C17.798 58.065 18.9268 58.2583 20.0186 58.4453C21.6541 58.7253 23.2068 58.9912 24.5288 59.2467C25.6361 59.4606 26.619 59.674 27.3875 59.892C27.7712 60.0009 28.1227 60.1168 28.419 60.2427C28.6916 60.3585 29.0158 60.5225 29.2603 60.767C29.4703 60.9771 29.5713 61.2264 29.6244 61.3905C29.683 61.571 29.7195 61.7644 29.7445 61.9505C29.7945 62.3232 29.8128 62.7829 29.8147 63.2927C29.8184 64.2971 29.7574 65.6407 29.687 67.1937L29.6829 67.2838C29.5375 70.4903 29.351 74.6749 29.5521 79.0905C30.042 89.8454 32.137 102.204 33.8065 107.726L33.8251 107.788L33.8357 107.851C36.1975 122.023 43.5357 139.053 51.068 148.939C58.6037 158.83 73.4606 170.899 89.1805 174.829C105.032 178.792 116.111 178.611 127.439 176.723C132.994 175.797 142.593 171.692 151.907 166.885C161.205 162.088 170.009 156.701 173.973 153.319C181.941 146.524 188.515 137.355 195.19 122.406C201.376 108.553 203.243 102.972 204.18 94.775C204.651 90.6481 205.08 79.6624 205.445 69.3746C205.501 67.7816 205.556 66.2066 205.609 64.6786C205.728 61.2872 205.838 58.1267 205.939 55.5132C206.013 53.6177 206.082 52.0045 206.146 50.7962C206.208 49.6336 206.269 48.7474 206.34 48.3895C206.546 47.3587 207.429 46.7545 208.212 46.3839C209.043 45.9909 210.097 45.7032 211.171 45.4619C211.908 45.2963 212.702 45.1427 213.479 44.9924C213.837 44.9231 214.192 44.8545 214.536 44.7857C215.652 44.5625 216.676 44.3338 217.507 44.0568C217.512 44.0544 217.609 44.0117 217.789 43.8186C217.965 43.6284 218.172 43.3461 218.402 42.9605C218.86 42.19 219.351 41.1061 219.842 39.7743C220.821 37.1176 221.754 33.5957 222.418 29.9111C223.081 26.2248 223.466 22.4195 223.368 19.1917C223.319 17.5779 223.15 16.1349 222.848 14.9356C222.543 13.7268 222.119 12.8329 221.607 12.2516C219.155 9.46539 215.059 7.32745 210.304 5.67353C205.575 4.02857 200.325 2.90577 195.688 2.07351C195.172 1.98096 193.823 1.97266 191.604 2.06728C189.438 2.15966 186.563 2.34257 183.09 2.58917C179.697 2.83013 175.756 3.13012 171.368 3.46423C166.756 3.81537 161.65 4.20418 156.163 4.60175C134.802 6.14945 107.866 7.81529 83.0189 7.81742ZM22.8252 16.1258C22.5859 15.1548 22.5861 15.1548 22.5864 15.1547L22.6048 15.1502L22.6579 15.1372C22.7047 15.1259 22.7742 15.1091 22.866 15.0872C23.0497 15.0433 23.3228 14.9787 23.6828 14.8954C24.4027 14.7288 25.4702 14.4874 26.8648 14.187C29.6539 13.5862 33.7514 12.7492 38.9935 11.8028C49.4775 9.90993 64.5417 7.57868 82.8757 5.82198L82.9233 5.81742H82.9711C107.755 5.81743 134.653 4.15503 156.018 2.60698C161.479 2.21128 166.591 1.8221 171.212 1.47038C175.611 1.13544 179.565 0.834465 182.948 0.59419C186.424 0.347384 189.323 0.162752 191.519 0.0690989C193.662 -0.0223133 195.261 -0.0351312 196.041 0.104965C200.713 0.943432 206.084 2.08804 210.961 3.78454C215.813 5.47207 220.31 7.74962 223.108 10.9303C223.91 11.8408 224.44 13.0726 224.787 14.4463C225.136 15.8295 225.315 17.4259 225.367 19.1311C225.471 22.5415 225.065 26.4932 224.386 30.2654C223.707 34.0395 222.746 37.6778 221.718 40.4659C221.206 41.8565 220.666 43.0661 220.12 43.9831C219.848 44.4413 219.559 44.8512 219.254 45.1796C218.959 45.4978 218.588 45.8044 218.139 45.9542C217.18 46.2739 216.05 46.5225 214.928 46.7468C214.556 46.8213 214.186 46.8928 213.821 46.9635C213.06 47.1106 212.317 47.2542 211.61 47.4132C210.56 47.6492 209.687 47.8986 209.067 48.1917C208.4 48.5074 208.31 48.7385 208.301 48.7817C208.266 48.9609 208.209 49.6633 208.143 50.9024C208.08 52.0958 208.011 53.6973 207.938 55.5907C207.836 58.2006 207.726 61.3551 207.608 64.7447C207.555 66.2733 207.5 67.8496 207.443 69.4455C207.08 79.6837 206.65 90.7755 206.167 95.0022C205.194 103.513 203.223 109.322 197.016 123.221C190.263 138.345 183.534 147.793 175.271 154.841C171.121 158.381 162.144 163.854 152.825 168.663C143.522 173.463 133.669 177.712 127.768 178.695C116.184 180.626 104.827 180.803 88.6954 176.77C72.4328 172.704 57.2167 160.309 49.4771 150.151C41.7455 140.003 34.2962 122.7 31.8734 108.243C30.148 102.496 28.0477 90.0174 27.5542 79.1815C27.3484 74.664 27.5397 70.3955 27.6849 67.1932L27.6867 67.1531C27.7591 65.5582 27.8182 64.2549 27.8147 63.3C27.8129 62.8165 27.7949 62.4595 27.7623 62.2166C27.7581 62.1857 27.754 62.1585 27.75 62.1347C27.7198 62.12 27.6825 62.1028 27.6369 62.0834C27.4477 62.003 27.1843 61.9133 26.8417 61.8161C26.1577 61.6221 25.2424 61.4215 24.1494 61.2103C22.8412 60.9576 21.3318 60.6992 19.7191 60.4232C18.6247 60.2358 17.4828 60.0404 16.324 59.833C13.4863 59.3252 10.5792 58.7511 8.20701 58.0722C7.02167 57.733 5.94059 57.3595 5.05605 56.942C4.19882 56.5374 3.40404 56.0362 2.92471 55.3825C2.14461 54.3186 1.49681 52.5436 1.01246 50.4812C0.519709 48.3831 0.169154 45.8678 0.0472383 43.2318C-0.194533 38.0044 0.453991 32.0976 2.87129 28.0264C5.29537 23.9437 10.3002 20.7334 14.5239 18.5766C16.6629 17.4844 18.6551 16.6361 20.1122 16.0608C20.8414 15.773 21.4381 15.5528 21.8542 15.4041C22.0622 15.3298 22.2252 15.2732 22.3371 15.235C22.3931 15.2159 22.4362 15.2013 22.4659 15.1914L22.5002 15.18L22.5095 15.1769L22.5122 15.176C22.5125 15.1759 22.5136 15.1755 22.8252 16.1258ZM22.8252 16.1258L22.5136 15.1755L22.5494 15.1638L22.5864 15.1547L22.8252 16.1258Z" fill="black"/>
<path fill-rule="evenodd" clip-rule="evenodd" d="M44.5 103.631C82.8838 103.631 114 72.8338 114 34.8432C114 24.933 111.883 15.5123 108.071 7C99.9893 7.27711 91.8735 7.4441 83.9711 7.4441C47.366 10.9156 23.8252 16.6571 23.8252 16.6571C23.8252 16.6571 9.26598 21.3817 4.73115 28.9411C0.196322 36.5005 2.10605 51.383 4.73116 54.9265C6.30774 57.0546 14.3412 58.4159 20.869 59.522C25.2104 60.2576 28.8859 60.8804 29.5531 61.5409C29.9283 61.9124 29.8306 64.045 29.6869 67.1807C29.5412 70.36 29.3483 74.5706 29.5531 79.022C29.9291 87.1905 31.2436 96.2983 32.6004 102.627C36.4669 103.287 40.4429 103.631 44.5 103.631Z" fill="#FF8661" fill-opacity="0.5"/>
<path d="M105.296 76.0577C105.296 77.2441 104.334 78.2058 103.148 78.2058C101.962 78.2058 101 77.2441 101 76.0577C101 74.8714 101.962 73.9097 103.148 73.9097C104.334 73.9097 105.296 74.8714 105.296 76.0577Z" fill="black"/>
<path d="M141.097 74.1481C141.097 75.3344 140.135 76.2962 138.949 76.2962C137.763 76.2962 136.801 75.3344 136.801 74.1481C136.801 72.9617 137.763 72 138.949 72C140.135 72 141.097 72.9617 141.097 74.1481Z" fill="black"/>
<path d="M161.761 0.916621C164.736 1.91676 168.07 6.08256 170.236 8.91589C165.436 12.1158 167.761 17.4159 167.761 18.4159C167.761 20.8159 172.403 21.416 174.736 21.416C171.536 22.616 166.761 36.9159 165.736 36.916C165.211 36.916 163.261 29.9159 162.736 29.416C162.211 28.916 158.761 30.9159 157.736 30.416C156.761 28.4159 164.094 19.5826 167.761 18.4159C157.361 18.4159 153.761 15.9161 152.736 13.416C151.712 10.9158 154.261 4.41654 155.761 2.41661C157.261 0.416675 159.345 0.104198 161.761 0.916621Z" fill="#FF6196"/>
<path fill-rule="evenodd" clip-rule="evenodd" d="M158.308 0.124122C159.435 -0.128562 160.657 0.0178429 161.921 0.442714C163.528 0.983177 165.176 2.35043 166.661 3.88058C168.159 5.42386 169.549 7.19378 170.634 8.61219L170.958 9.036L170.514 9.33194C168.283 10.8191 167.716 12.7693 167.699 14.496C167.69 15.3694 167.823 16.1859 167.962 16.8579C168.008 17.0783 168.053 17.2744 168.094 17.4557C168.117 17.556 168.139 17.6518 168.159 17.7447C168.21 17.9785 168.261 18.2264 168.261 18.4159C168.261 18.8308 168.454 19.1881 168.843 19.5134C169.243 19.8473 169.826 20.1228 170.522 20.3384C171.909 20.7684 173.599 20.916 174.736 20.916L174.912 21.8841C174.63 21.9899 174.272 22.2682 173.851 22.7542C173.438 23.2301 173.001 23.8606 172.552 24.603C171.653 26.0872 170.734 27.966 169.874 29.8258C169.478 30.6842 169.09 31.5469 168.724 32.3605C168.307 33.2896 167.918 34.1547 167.577 34.8763C167.255 35.5578 166.963 36.1398 166.715 36.5555C166.592 36.7613 166.469 36.9458 166.347 37.0846C166.286 37.1539 166.213 37.227 166.128 37.2862C166.047 37.3422 165.911 37.416 165.736 37.416C165.581 37.416 165.464 37.3525 165.398 37.3066C165.329 37.2591 165.277 37.2038 165.239 37.1592C165.164 37.0698 165.097 36.9603 165.039 36.8531C164.92 36.6339 164.79 36.3363 164.656 35.9997C164.385 35.322 164.072 34.4196 163.763 33.515C163.702 33.3366 163.641 33.158 163.581 32.9807C163.334 32.2535 163.094 31.5491 162.883 30.97C162.752 30.6097 162.634 30.3069 162.536 30.0821C162.49 29.9771 162.451 29.8956 162.419 29.8362C162.327 29.8416 162.191 29.8659 162.006 29.915C161.662 30.006 161.24 30.1561 160.772 30.3227C160.713 30.3439 160.652 30.3655 160.591 30.3872C160.066 30.5736 159.496 30.7708 158.988 30.8876C158.733 30.9462 158.477 30.9886 158.239 30.9958C158.006 31.0029 157.748 30.9781 157.517 30.8654L157.362 30.7899L157.287 30.6351C157.085 30.2203 157.13 29.7162 157.253 29.2469C157.381 28.7585 157.622 28.2059 157.935 27.6241C158.564 26.4574 159.526 25.1011 160.624 23.7834C161.723 22.4638 162.972 21.1673 164.184 20.1231C164.722 19.6597 165.262 19.2378 165.786 18.8841C161.611 18.7452 158.641 18.1608 156.546 17.3173C154.124 16.342 152.849 15.0086 152.274 13.6056C151.969 12.8611 151.948 11.8827 152.069 10.8646C152.193 9.83128 152.471 8.68968 152.826 7.57693C153.531 5.36445 154.564 3.18013 155.361 2.11664C156.175 1.03129 157.17 0.379292 158.308 0.124122ZM167.371 19.1119C166.642 19.4622 165.769 20.0776 164.837 20.8807C163.673 21.8833 162.462 23.1389 161.392 24.4235C160.32 25.7099 159.402 27.0099 158.816 28.0985C158.522 28.6442 158.321 29.119 158.22 29.501C158.163 29.7195 158.145 29.8811 158.148 29.9968C158.167 29.9971 158.187 29.9969 158.209 29.9963C158.357 29.9918 158.543 29.9639 158.764 29.9131C159.208 29.8111 159.725 29.6334 160.257 29.4448C160.317 29.4234 160.377 29.4019 160.438 29.3802C160.897 29.2167 161.362 29.0508 161.75 28.9483C161.969 28.8904 162.192 28.8444 162.393 28.8363C162.569 28.8293 162.861 28.8444 163.081 29.054C163.173 29.1419 163.242 29.2571 163.289 29.3419C163.342 29.4391 163.397 29.555 163.452 29.6815C163.563 29.9352 163.689 30.2613 163.822 30.6275C164.038 31.2178 164.282 31.9358 164.53 32.6639C164.589 32.8399 164.65 33.0164 164.709 33.1919C165.019 34.0999 165.325 34.9787 165.584 35.6292C165.663 35.8262 165.735 35.9963 165.799 36.1366C165.818 36.1073 165.837 36.0761 165.857 36.0428C166.078 35.6718 166.353 35.1273 166.673 34.4494C167.015 33.7252 167.394 32.8811 167.805 31.9665C168.169 31.1568 168.557 30.2919 168.967 29.4062C169.829 27.541 170.767 25.6197 171.696 24.0852C172.161 23.3182 172.63 22.6347 173.095 22.0989C173.168 22.0148 173.242 21.9332 173.317 21.8545C172.331 21.7726 171.218 21.6011 170.226 21.2935C169.469 21.0591 168.746 20.7345 168.202 20.281C167.824 19.9651 167.523 19.5767 167.371 19.1119ZM167.172 17.9132C162.331 17.8676 159.078 17.259 156.92 16.3897C154.686 15.4901 153.649 14.3236 153.199 13.2264C152.992 12.7208 152.947 11.9492 153.062 10.983C153.176 10.032 153.436 8.95506 153.779 7.88049C154.467 5.71833 155.459 3.65308 156.161 2.71663C156.847 1.80205 157.644 1.29784 158.527 1.09989C159.421 0.899463 160.449 1.00303 161.602 1.39058C162.969 1.85026 164.476 3.06597 165.943 4.57709C167.259 5.93297 168.498 7.47865 169.524 8.80894C167.313 10.4829 166.718 12.6289 166.699 14.4858C166.689 15.4624 166.837 16.3585 166.983 17.0614C167.031 17.289 167.08 17.5054 167.122 17.6932C167.14 17.772 167.157 17.8457 167.172 17.9132ZM162.494 29.8376C162.494 29.8377 162.492 29.8375 162.488 29.8365C162.492 29.837 162.494 29.8375 162.494 29.8376Z" fill="black"/>
<path d="M186.236 0.916621C183.261 1.91676 179.928 6.08256 177.761 8.91589C182.561 12.1158 180.237 17.4159 180.237 18.4159C180.237 20.8159 175.595 21.416 173.261 21.416C176.461 22.616 181.237 36.9159 182.261 36.916C182.786 36.916 184.737 29.9159 185.261 29.416C185.786 28.916 189.237 30.9159 190.261 30.416C191.237 28.4159 183.903 19.5826 180.237 18.4159C190.637 18.4159 194.237 15.9161 195.261 13.416C196.286 10.9158 193.736 4.41654 192.236 2.41661C190.736 0.416675 188.653 0.104198 186.236 0.916621Z" fill="#FF6196"/>
<path fill-rule="evenodd" clip-rule="evenodd" d="M189.689 0.124122C188.562 -0.128562 187.341 0.0178429 186.077 0.442714C184.469 0.983177 182.822 2.35043 181.337 3.88058C179.839 5.42386 178.449 7.19378 177.364 8.61219L177.04 9.036L177.484 9.33194C179.715 10.8191 180.281 12.7693 180.299 14.496C180.308 15.3694 180.175 16.1859 180.035 16.8579C179.989 17.0783 179.945 17.2744 179.904 17.4557C179.881 17.556 179.859 17.6518 179.839 17.7447C179.787 17.9785 179.737 18.2264 179.737 18.4159C179.737 18.8308 179.544 19.1881 179.154 19.5134C178.754 19.8473 178.172 20.1228 177.476 20.3384C176.088 20.7684 174.399 20.916 173.261 20.916L173.086 21.8841C173.368 21.9899 173.726 22.2682 174.147 22.7542C174.56 23.2301 174.996 23.8606 175.446 24.603C176.344 26.0872 177.264 27.966 178.123 29.8258C178.52 30.6842 178.908 31.5469 179.274 32.3605C179.691 33.2896 180.08 34.1547 180.421 34.8763C180.742 35.5578 181.034 36.1398 181.282 36.5555C181.405 36.7613 181.529 36.9458 181.651 37.0846C181.711 37.1539 181.785 37.227 181.87 37.2862C181.951 37.3422 182.087 37.416 182.261 37.416C182.417 37.416 182.534 37.3525 182.6 37.3066C182.668 37.2591 182.721 37.2038 182.758 37.1592C182.834 37.0698 182.9 36.9603 182.959 36.8531C183.078 36.6339 183.208 36.3363 183.342 35.9997C183.612 35.322 183.926 34.4196 184.235 33.515C184.296 33.3366 184.356 33.158 184.417 32.9807C184.664 32.2535 184.904 31.5491 185.115 30.97C185.246 30.6097 185.363 30.3069 185.461 30.0821C185.507 29.9771 185.546 29.8956 185.578 29.8362C185.67 29.8416 185.807 29.8659 185.992 29.915C186.336 30.006 186.758 30.1561 187.225 30.3227C187.285 30.3439 187.345 30.3655 187.407 30.3872C187.932 30.5736 188.502 30.7708 189.01 30.8876C189.264 30.9462 189.52 30.9886 189.759 30.9958C189.992 31.0029 190.25 30.9781 190.481 30.8654L190.635 30.7899L190.711 30.6351C190.913 30.2203 190.868 29.7162 190.745 29.2469C190.616 28.7585 190.376 28.2059 190.062 27.6241C189.434 26.4574 188.472 25.1011 187.374 23.7834C186.274 22.4638 185.025 21.1673 183.813 20.1231C183.276 19.6597 182.736 19.2378 182.212 18.8841C186.386 18.7452 189.357 18.1608 191.451 17.3173C193.874 16.342 195.149 15.0086 195.724 13.6056C196.029 12.8611 196.05 11.8827 195.928 10.8646C195.805 9.83128 195.526 8.68968 195.172 7.57693C194.467 5.36445 193.434 3.18013 192.636 2.11664C191.822 1.03129 190.827 0.379292 189.689 0.124122ZM180.627 19.1119C181.355 19.4622 182.229 20.0776 183.161 20.8807C184.324 21.8833 185.535 23.1389 186.606 24.4235C187.677 25.7099 188.595 27.0099 189.182 28.0985C189.476 28.6442 189.677 29.119 189.777 29.501C189.835 29.7195 189.852 29.8811 189.85 29.9968C189.831 29.9971 189.811 29.9969 189.789 29.9963C189.641 29.9918 189.455 29.9639 189.234 29.9131C188.79 29.8111 188.272 29.6334 187.741 29.4448C187.681 29.4234 187.62 29.4019 187.56 29.3802C187.101 29.2167 186.635 29.0508 186.248 28.9483C186.029 28.8904 185.806 28.8444 185.605 28.8363C185.428 28.8293 185.136 28.8444 184.917 29.054C184.824 29.1419 184.755 29.2571 184.709 29.3419C184.655 29.4391 184.6 29.555 184.545 29.6815C184.434 29.9352 184.309 30.2613 184.175 30.6275C183.96 31.2178 183.716 31.9358 183.468 32.6639C183.408 32.8399 183.348 33.0164 183.288 33.1919C182.978 34.0999 182.673 34.9787 182.413 35.6292C182.335 35.8262 182.263 35.9963 182.198 36.1366C182.18 36.1073 182.161 36.0761 182.141 36.0428C181.919 35.6718 181.645 35.1273 181.325 34.4494C180.983 33.7252 180.604 32.8811 180.193 31.9665C179.829 31.1568 179.44 30.2919 179.031 29.4062C178.169 27.541 177.23 25.6197 176.301 24.0852C175.837 23.3182 175.367 22.6347 174.903 22.0989C174.83 22.0148 174.756 21.9332 174.681 21.8545C175.667 21.7726 176.78 21.6011 177.772 21.2935C178.529 21.0591 179.252 20.7345 179.795 20.281C180.174 19.9651 180.474 19.5767 180.627 19.1119ZM180.826 17.9132C185.666 17.8676 188.919 17.259 191.078 16.3897C193.312 15.4901 194.349 14.3236 194.799 13.2264C195.006 12.7208 195.051 11.9492 194.935 10.983C194.822 10.032 194.562 8.95506 194.219 7.88049C193.53 5.71833 192.539 3.65308 191.836 2.71663C191.15 1.80205 190.353 1.29784 189.471 1.09989C188.577 0.899463 187.548 1.00303 186.396 1.39058C185.028 1.85026 183.521 3.06597 182.054 4.57709C180.738 5.93297 179.499 7.47865 178.474 8.80894C180.685 10.4829 181.28 12.6289 181.299 14.4858C181.309 15.4624 181.161 16.3585 181.014 17.0614C180.967 17.289 180.918 17.5054 180.875 17.6932C180.857 17.772 180.841 17.8457 180.826 17.9132ZM185.503 29.8376C185.503 29.8377 185.506 29.8375 185.51 29.8365C185.505 29.837 185.503 29.8375 185.503 29.8376Z" fill="black"/>
<path fill-rule="evenodd" clip-rule="evenodd" d="M165.377 15.7367C161.541 11.1334 155.431 10.9248 152.854 11.408C152.582 11.4589 152.321 11.2801 152.27 11.0087C152.219 10.7373 152.398 10.476 152.669 10.4251C155.426 9.90832 161.982 10.0997 166.146 15.0965C166.322 15.3086 166.294 15.6239 166.082 15.8007C165.869 15.9775 165.554 15.9488 165.377 15.7367Z" fill="black"/>
<path fill-rule="evenodd" clip-rule="evenodd" d="M189.363 11.7898C191.718 11.3012 193.907 11.3658 195.182 11.5699C195.455 11.6136 195.711 11.4279 195.755 11.1552C195.799 10.8825 195.613 10.6261 195.34 10.5825C193.95 10.3599 191.638 10.2964 189.16 10.8107C186.68 11.3252 183.994 12.4266 181.904 14.5674C181.711 14.765 181.715 15.0816 181.912 15.2745C182.11 15.4674 182.426 15.4636 182.619 15.2661C184.529 13.3103 187.01 12.2781 189.363 11.7898Z" fill="black"/>
<path d="M182.261 15.4167C182.261 19.5589 178.456 22.9167 173.761 22.9167C169.067 22.9167 165.261 19.5589 165.261 15.4167C165.261 11.2746 169.067 7.91675 173.761 7.91675C178.456 7.91675 182.261 11.2746 182.261 15.4167Z" fill="#FF6196"/>
<path fill-rule="evenodd" clip-rule="evenodd" d="M173.761 21.9167C178.025 21.9167 181.261 18.8926 181.261 15.4167C181.261 11.9408 178.025 8.91675 173.761 8.91675C169.498 8.91675 166.261 11.9408 166.261 15.4167C166.261 18.8926 169.498 21.9167 173.761 21.9167ZM173.761 22.9167C178.456 22.9167 182.261 19.5589 182.261 15.4167C182.261 11.2746 178.456 7.91675 173.761 7.91675C169.067 7.91675 165.261 11.2746 165.261 15.4167C165.261 19.5589 169.067 22.9167 173.761 22.9167Z" fill="black"/>
<path d="M70 95.5C70 97.9853 66.4183 100 62 100C57.5817 100 54 97.9853 54 95.5C54 93.0147 57.5817 91 62 91C66.4183 91 70 93.0147 70 95.5Z" fill="#FF6C6C"/>
<path d="M188 90.5C188 92.9853 184.418 95 180 95C175.582 95 172 92.9853 172 90.5C172 88.0147 175.582 86 180 86C184.418 86 188 88.0147 188 90.5Z" fill="#FF6C6C"/>
<path fill-rule="evenodd" clip-rule="evenodd" d="M163.317 109.034C163.385 109.582 162.996 110.082 162.448 110.149L87.1226 119.458C86.5745 119.526 86.0752 119.136 86.0075 118.588C85.9398 118.04 86.3292 117.541 86.8773 117.473L162.202 108.165C162.75 108.097 163.25 108.486 163.317 109.034Z" fill="black"/>
</svg>
