<svg width="76" height="76" viewBox="0 0 76 76" fill="none" xmlns="http://www.w3.org/2000/svg">
<path fill-rule="evenodd" clip-rule="evenodd" d="M38 71C56.2254 71 71 56.2254 71 38C71 19.7746 56.2254 5 38 5C19.7746 5 5 19.7746 5 38C5 56.2254 19.7746 71 38 71ZM27.8615 55.8435C28.4962 56.3288 29.1122 56.6462 29.7095 56.7955L29.6535 56.2915C29.3175 56.2915 29.0375 56.1235 28.8135 55.7875C28.5895 55.4515 28.4775 55.1528 28.4775 54.8915V54.6675C28.7389 53.9208 29.3362 53.2115 30.2695 52.5395C31.2402 51.8675 32.2855 51.2702 33.4055 50.7475C34.5629 50.2248 35.5149 49.8328 36.2615 49.5715C37.1949 49.2728 38.2215 48.9928 39.3415 48.7315C40.4989 48.4328 41.6375 48.2088 42.7575 48.0595C42.8322 48.6195 42.6082 49.1608 42.0855 49.6835C41.6002 50.2062 41.0215 50.6915 40.3495 51.1395C39.7149 51.5875 39.1922 51.9422 38.7815 52.2035C38.6695 52.2035 38.6135 52.2782 38.6135 52.4275C38.5762 52.6142 38.2589 52.8382 37.6615 53.0995C37.1015 53.3235 36.4855 53.5475 35.8135 53.7715C35.1789 53.9582 34.7309 54.1075 34.4695 54.2195L33.2375 54.6675C32.9762 54.7048 32.7335 54.7422 32.5095 54.7795C32.2855 54.8542 32.0429 54.8915 31.7815 54.8915C31.6322 54.8915 31.4642 54.8728 31.2775 54.8355H30.7175C30.4935 54.7235 30.3255 54.6675 30.2135 54.6675H30.1015L30.0455 54.7235C29.8962 54.7982 29.8775 54.9102 29.9895 55.0595C30.1389 55.2088 30.2322 55.3208 30.2695 55.3955C30.7922 55.5448 31.4455 55.6568 32.2295 55.7315C33.0135 55.8435 33.6482 55.8995 34.1335 55.8995H34.6375C34.7869 55.8995 34.9362 55.8808 35.0855 55.8435C36.2802 55.6568 37.5122 55.3768 38.7815 55.0035C40.0509 54.6302 41.1895 54.1075 42.1975 53.4355C43.2429 52.7262 44.0269 51.8302 44.5495 50.7475C44.7362 50.2622 44.8295 49.8142 44.8295 49.4035C44.8295 49.0302 44.7549 48.6942 44.6055 48.3955C44.5309 48.2462 44.4375 48.0968 44.3256 47.9475C44.6989 47.9102 45.0722 47.8915 45.4455 47.8915C45.8189 47.8915 46.3042 47.9288 46.9016 48.0035C47.4989 48.0408 48.0402 48.1715 48.5255 48.3955C49.0482 48.5822 49.3282 48.9182 49.3655 49.4035C49.4029 49.8142 49.2349 50.2622 48.8615 50.7475C48.4882 51.2328 48.0402 51.6995 47.5175 52.1475C47.0322 52.5582 46.6029 52.9128 46.2295 53.2115C45.8935 53.3608 45.7255 53.5475 45.7255 53.7715C45.7255 53.8462 45.7815 53.9208 45.8935 53.9955C46.0429 53.9955 46.1735 53.9582 46.2855 53.8835C46.6215 53.8462 47.0135 53.7155 47.4615 53.4915L48.5816 52.9315C49.1415 52.6328 49.5335 52.3342 49.7575 52.0355C50.0189 51.7368 50.1495 51.2888 50.1495 50.6915C50.1495 50.6168 50.1309 50.5235 50.0935 50.4115V50.0195C50.0189 48.8622 49.5522 47.8542 48.6935 46.9955C47.8349 46.1368 46.7895 45.7075 45.5575 45.7075C45.0722 45.7075 44.5682 45.7448 44.0455 45.8195L42.5895 46.0435C41.8055 45.3715 40.9469 44.7742 40.0135 44.2515C39.0802 43.7288 38.2402 43.2622 37.4935 42.8515C36.0749 42.0302 34.8242 41.2648 33.7415 40.5555C32.6589 39.8088 32.1175 38.9688 32.1175 38.0355C32.1175 37.4008 32.3975 36.8222 32.9575 36.2995C33.5175 35.7768 33.9842 35.2915 34.3575 34.8435L35.1415 34.5635C35.6642 34.3768 36.1682 34.0782 36.6535 33.6675C37.1389 33.2568 37.6429 32.9208 38.1655 32.6595C39.5469 32.0248 40.9282 31.5022 42.3095 31.0915C43.6909 30.6808 45.1469 30.4008 46.6775 30.2515C47.2375 30.1768 47.7789 30.1022 48.3015 30.0275C48.8615 29.9528 49.4215 29.9155 49.9815 29.9155H50.8775C51.2882 29.9155 51.6615 29.9715 51.9975 30.0835C52.3335 30.1955 52.5015 30.5502 52.5015 31.1475C52.5015 31.8568 52.2775 32.5475 51.8295 33.2195C51.3815 33.8542 51.0082 34.4888 50.7095 35.1235C50.5602 35.2728 50.5042 35.4408 50.5415 35.6275C50.6162 35.8142 50.7282 35.9075 50.8775 35.9075C51.0642 35.9075 51.2322 35.7582 51.3815 35.4595C51.6055 35.0488 51.8482 34.6568 52.1095 34.2835C52.3709 33.9102 52.6882 33.5742 53.0615 33.2755C53.3602 32.9768 53.6215 32.6968 53.8455 32.4355C54.0695 32.1368 54.1815 31.7448 54.1815 31.2595C54.1815 30.7368 53.9389 30.1208 53.4535 29.4115C52.9682 28.6648 52.4455 28.1982 51.8855 28.0115C51.7362 27.9368 51.4749 27.8435 51.1015 27.7315C50.7282 27.5822 50.4482 27.5075 50.2615 27.5075C50.0375 27.5075 49.8135 27.4888 49.5895 27.4515C49.3655 27.3768 49.1415 27.3395 48.9175 27.3395C48.7682 27.3395 48.6002 27.3768 48.4135 27.4515C48.2642 27.4888 48.0962 27.5075 47.9095 27.5075H47.4055C47.2562 27.4702 47.0882 27.4515 46.9016 27.4515H46.7895L46.6775 27.5075C46.5282 27.5822 46.3415 27.6382 46.1175 27.6755H45.5575H45.2215C45.1095 27.6755 44.9975 27.6942 44.8855 27.7315C44.3255 27.8808 43.7655 27.9742 43.2055 28.0115C42.6829 28.0488 42.1602 28.1422 41.6375 28.2915C41.3015 28.3662 40.9655 28.4968 40.6295 28.6835C40.3309 28.8328 40.0135 28.9448 39.6775 29.0195C39.3042 29.0942 38.9495 29.2435 38.6135 29.4675C38.2775 29.6915 37.9229 29.8595 37.5495 29.9715C36.6909 30.2328 35.6829 30.6808 34.5255 31.3155C33.3682 31.9502 32.3602 32.7155 31.5015 33.6115C30.6802 34.4702 30.2695 35.4222 30.2695 36.4675C30.2695 36.9528 30.4189 37.5502 30.7175 38.2595C31.0162 38.9315 31.3335 39.4915 31.6695 39.9395C32.2295 40.6862 32.7709 41.2648 33.2935 41.6755C33.8162 42.0488 34.3762 42.3848 34.9735 42.6835C35.6082 42.9448 36.2989 43.2808 37.0455 43.6915C37.4562 43.9155 37.8669 44.1582 38.2775 44.4195C38.6882 44.6808 39.0989 44.9235 39.5095 45.1475C39.7709 45.2968 40.0695 45.4648 40.4055 45.6515C40.7415 45.8382 41.0775 46.0622 41.4135 46.3235C41.1895 46.3608 40.9469 46.4168 40.6855 46.4915C40.4242 46.5662 40.1629 46.6222 39.9015 46.6595C39.5655 46.7342 38.9122 46.9395 37.9415 47.2755C36.9709 47.5742 35.8695 47.9662 34.6375 48.4515C33.4055 48.9368 32.1922 49.4968 30.9975 50.1315C29.8402 50.7288 28.8695 51.3822 28.0855 52.0915C27.3015 52.8008 26.9095 53.5102 26.9095 54.2195C26.9095 54.8168 27.2269 55.3582 27.8615 55.8435Z" fill="white"/>
</svg>
