<svg width="381" height="100" viewBox="0 0 381 100" fill="none" xmlns="http://www.w3.org/2000/svg">
<g clip-path="url(#clip0_1_2)">
<path d="M99.7657 47.7742C99.801 48.5058 99.822 49.2328 99.8266 49.9575V49.9972C99.8266 73.1291 84.1494 92.5937 62.8535 98.304C59.3589 99.2341 55.7745 99.7851 52.1623 99.9473C51.0746 99.9967 49.9915 100.011 48.9154 99.992C23.656 99.4963 2.9973 80.2024 0.298798 55.4971C0.183821 54.4272 0.104474 53.3537 0.060891 52.2785C0.0254 51.5536 0.00509854 50.828 0 50.1022L0 49.9972C0 22.3886 22.344 0 49.912 0C73.4232 0 93.1316 16.2809 98.4285 38.1949C99.1813 41.3373 99.6292 44.5454 99.7657 47.7742ZM76.2572 24.9063C73.3367 24.0976 71.1776 23.4033 70.5404 22.0593C70.2393 21.4233 70.4236 20.7829 70.8392 20.4836C71.2897 20.1539 71.8966 20.2639 72.604 20.6099C73.6498 21.1173 74.9289 21.8699 75.9118 21.9913C78.7733 22.3373 78.2506 17.9523 73.1081 15.4066C70.0829 13.9013 67.1228 13.2843 63.1127 13.4336C61.628 13.4946 60.2275 13.4406 58.9854 13.2443C57.1111 12.9546 54.8142 12.1573 53.2666 11.835C52.0831 11.5846 51.4083 11.6176 51.1258 12.0126C50.8646 12.3866 50.9485 12.9383 51.6698 13.8523C53.1173 15.6799 55.3978 17.7136 54.2306 22.4706C51.3431 34.2632 55.2973 39.6605 59.3265 40.5465C61.5838 41.0492 63.6634 40.5185 64.9334 39.1979C66.1403 37.9332 66.6607 35.7942 65.4984 33.9829C63.7196 31.2082 63.0917 28.7959 64.6812 27.7929C66.1333 26.8746 68.1966 27.7206 69.7655 31.2362C72.2746 36.8695 75.5404 38.3632 78.8063 34.3569C81.4811 31.0749 81.3763 26.3229 76.2572 24.9063ZM67.1698 55.6865C53.633 47.5615 46.9197 44.3472 41.4408 40.4295C32.3627 33.9456 30.9273 29.1139 30.6495 25.7526C30.1547 19.7356 34.6996 14.3196 39.3259 11.767C39.6833 11.5496 40.2949 11.0496 40.0287 10.3646C39.7602 9.67263 38.9316 9.80597 38.6212 9.87363C28.2731 12.0733 18.2171 21.2013 19.7786 33.3869C20.4018 38.2135 23.4667 46.3645 39.3376 55.7265C44.7509 58.9171 49.4242 61.3365 56.7611 65.5438C66.6959 71.2334 71.2688 78.5637 65.1154 86.5604C64.6486 87.119 64.247 87.6987 64.415 88.2037C64.6044 88.788 65.3723 88.8887 66.089 88.566C70.8112 86.3874 74.7119 83.1174 76.5699 80.0857C79.8404 74.7467 81.4695 64.2771 67.1698 55.6865ZM51.3361 88.1314C50.1363 87.7854 48.3155 87.2197 46.7982 86.5557C44.884 85.719 43.1544 84.8004 42.3911 84.0431C41.8913 83.5404 41.8145 82.9724 42.2138 82.3881C44.5013 79.0944 45.1455 77.7901 45.785 76.2404C47.1436 72.9584 45.8013 72.6408 43.6935 73.2484C41.4012 73.9051 39.5875 74.5761 38.1823 75.1044C36.2122 75.8407 34.9937 76.2917 34.277 75.9411C33.53 75.5787 33.3922 74.2791 33.1237 72.1241C32.9347 70.5908 32.6126 68.8421 32.2017 67.1358C31.3545 63.7161 29.8932 64.3728 28.6863 65.7708C27.183 67.5984 26.3545 69.8614 25.7309 71.0488C25.3972 71.6844 25.0146 71.8951 24.5477 71.7944C23.5066 71.5724 22.1317 69.9571 20.6307 68.0381C18.4387 65.2308 17.4607 63.0731 16.3191 62.9398C13.8938 62.6571 14.9722 68.4028 17.2481 73.1384C19.4682 77.7737 22.9113 82.3367 28.6793 85.9877C35.2596 90.1604 44.9845 91.675 50.9578 90.8334C52.8441 90.567 53.2174 88.6737 51.3361 88.1314Z" fill="#0046FF"/>
<path d="M118.155 54.1572C118.861 54.0855 119.707 53.8628 120.71 53.4758C121.709 53.0865 122.764 52.5852 123.877 51.9752C124.977 51.3641 126.055 50.7152 127.11 50.0295C130.788 47.5728 133.874 44.5722 136.368 41.0215C137.415 42.4812 138.698 43.8539 140.225 45.1508C141.734 46.4401 143.335 47.6158 145.017 48.6685C147.976 50.4845 150.276 51.5765 151.932 51.9385C153.594 52.3025 154.643 52.0742 155.098 51.2532L158.031 45.7318C156.035 45.0482 154.043 44.2119 152.063 43.2032C150.092 42.2082 148.326 41.0215 146.753 39.6605C145.193 38.2935 143.91 36.7139 142.913 34.9172C141.908 33.1186 141.41 31.1092 141.41 28.8809V19.8066H129.631C129.13 19.8066 128.788 20.0159 128.608 20.4206C128.425 20.8309 128.541 21.2859 128.944 21.7816C129.586 22.5153 129.98 23.2296 130.139 23.9343C130.301 24.6369 130.377 25.5626 130.377 26.6989V29.5582C130.377 31.7422 129.938 33.7459 129.053 35.5695C128.166 37.3875 126.952 39.0465 125.408 40.5472C123.86 42.0512 122.082 43.4025 120.061 44.6012C118.043 45.8112 115.894 46.8448 113.625 47.7102L116.756 53.6442C116.986 54.0545 117.446 54.2248 118.155 54.1572ZM136.645 73.2601C135.96 72.7374 135.618 71.6804 135.618 70.0851V57.6695H124.044C123.538 57.6695 123.202 57.8728 123.026 58.2831C122.84 58.6935 122.953 59.1428 123.368 59.6401C124.004 60.4281 124.4 61.1368 124.556 61.7951C124.713 62.4611 124.798 63.3768 124.798 64.5614V71.1131C124.798 73.1981 125.068 74.9347 125.612 76.2917C126.158 77.6587 126.993 78.7487 128.134 79.5694C129.27 80.3904 130.675 80.9557 132.356 81.2751C134.034 81.5927 136.007 81.7551 138.274 81.7551H175.052V74.0461H139.982C138.432 74.0461 137.325 73.7807 136.645 73.2601ZM174.032 61.1525V18.7076H162.388C161.888 18.7076 161.536 18.9109 161.331 19.2903C161.127 19.6816 161.229 20.1266 161.637 20.6283C162.273 21.3563 162.713 22.0763 162.966 22.8043C163.213 23.5343 163.343 24.4906 163.343 25.6696V61.1525H174.032ZM192.217 76.2927C192.758 77.6651 193.602 78.7534 194.731 79.5721C195.871 80.3891 197.28 80.9507 198.955 81.2777C200.637 81.5991 202.614 81.7617 204.883 81.7617H241.12V74.0468H206.722C205.132 74.0468 203.984 73.7641 203.284 73.2297C202.579 72.6838 202.229 71.5881 202.229 69.9484V60.3941H190.653C190.147 60.3941 189.809 60.6071 189.627 61.0175C189.447 61.4201 189.559 61.8731 189.967 62.3768C190.468 62.9711 190.833 63.5381 191.057 64.0861C191.285 64.6281 191.401 65.2438 191.401 65.9254V71.0441C191.401 73.1774 191.668 74.9257 192.217 76.2927ZM197.19 34.5762C198.454 33.0059 200.3 32.2162 202.708 32.2162C205.068 32.2162 206.89 33.0059 208.187 34.5762C209.483 36.1482 210.134 38.0899 210.134 40.4112C210.134 42.5912 209.483 44.4692 208.187 46.0332C206.89 47.6112 205.068 48.3895 202.708 48.3895C200.3 48.3895 198.454 47.6112 197.19 46.0332C195.913 44.4692 195.285 42.5912 195.285 40.4112C195.285 38.0899 195.913 36.1482 197.19 34.5762ZM185.918 35.9042C185.354 37.3619 185.064 38.9765 185.064 40.7482C185.064 42.8892 185.46 44.8815 186.262 46.7185C187.052 48.5618 188.198 50.1705 189.686 51.5335C191.188 52.8945 193.03 53.9651 195.212 54.7395C197.391 55.5138 199.882 55.9011 202.708 55.9011C205.52 55.9011 208.034 55.5138 210.227 54.7395C212.432 53.9651 214.276 52.8945 215.776 51.5335C217.273 50.1705 218.412 48.5618 219.183 46.7185C219.954 44.8815 220.339 42.8892 220.339 40.7482C220.339 39.0212 220.033 37.4182 219.425 35.9389C218.821 34.4788 217.977 33.1301 216.929 31.9489H224.09V24.4449H208.629V16.8036H196.984C196.477 16.8036 196.13 16.9973 195.923 17.3826C195.722 17.7716 195.845 18.2169 196.298 18.7143C196.937 19.4889 197.335 20.2283 197.496 20.9329C197.654 21.6359 197.733 22.5766 197.733 23.7616V24.4449H181.189V31.9489H188.334C187.294 33.1339 186.482 34.4502 185.918 35.9042ZM240.296 18.7146H228.651C228.15 18.7146 227.799 18.9063 227.594 19.2953C227.387 19.6806 227.51 20.1223 227.976 20.6273C228.608 21.3979 229.033 22.1376 229.267 22.8403C229.484 23.5429 229.611 24.4896 229.611 25.6706V62.1005H240.296V42.1865H248.054V34.4756H240.296V18.7146ZM293.485 37.2039C291.301 38.3889 287.625 38.9812 282.455 38.9812C277.271 38.9812 273.601 38.3889 271.417 37.2039C269.237 36.0212 268.145 34.3599 268.145 32.2226C268.145 30.1319 269.237 28.4609 271.417 27.2102C273.601 25.9579 277.271 25.3306 282.455 25.3306C287.625 25.3306 291.301 25.9579 293.485 27.2102C295.661 28.4609 296.749 30.1319 296.749 32.2226C296.749 34.3599 295.661 36.0212 293.485 37.2039ZM301.348 21.9543C299.278 20.7036 296.681 19.7413 293.556 19.0539C290.423 18.3746 286.723 18.0356 282.455 18.0356C278.177 18.0356 274.486 18.3746 271.345 19.0539C268.221 19.7413 265.631 20.7036 263.582 21.9543C261.543 23.2086 260.017 24.7089 259.02 26.4552C258.022 28.2112 257.531 30.1319 257.531 32.2226C257.531 34.2689 258.022 36.1565 259.02 37.8892C260.017 39.6142 261.543 41.1012 263.582 42.3539C265.631 43.6045 268.221 44.5859 271.345 45.2888C274.486 45.9955 278.177 46.3438 282.455 46.3438C286.723 46.3438 290.423 45.9955 293.556 45.2888C296.681 44.5859 299.278 43.6045 301.348 42.3539C303.41 41.1012 304.956 39.6142 305.946 37.8892C306.941 36.1565 307.443 34.2689 307.443 32.2226C307.443 30.1319 306.941 28.2112 305.946 26.4552C304.956 24.7089 303.41 23.2086 301.348 21.9543ZM308.331 74.0468H272.102C270.97 74.0468 270.162 73.8821 269.685 73.5684C269.205 73.2511 268.968 72.4728 268.968 71.2511V61.1491H257.392C256.893 61.1491 256.553 61.3521 256.371 61.7665C256.188 62.1711 256.298 62.6281 256.707 63.1274C257.212 63.7201 257.573 64.2931 257.801 64.8331C258.029 65.3791 258.138 65.9948 258.138 66.6704V73.0884C258.138 74.8171 258.367 76.2421 258.851 77.3514C259.334 78.4627 260.056 79.3551 261.034 80.0134C262.007 80.6734 263.263 81.1267 264.782 81.3821C266.301 81.6337 268.08 81.7537 270.123 81.7537H308.331V74.0468ZM314.869 49.6198H249.967V57.0521H314.869V49.6198ZM330.53 36.2832C330.763 35.3925 331.129 34.5969 331.656 33.8922C332.177 33.1911 332.852 32.6194 333.629 32.2216C334.427 31.8112 335.361 31.6099 336.457 31.6099C337.545 31.6099 338.486 31.8112 339.282 32.2216C340.071 32.6319 340.733 33.1896 341.259 33.8922C341.787 34.6069 342.167 35.4197 342.378 36.2832C342.608 37.1867 342.722 38.1156 342.72 39.0479C342.72 39.9539 342.604 40.8445 342.378 41.7059C342.166 42.5463 341.785 43.3348 341.259 44.0235C340.733 44.7088 340.071 45.2565 339.282 45.6632C338.486 46.0698 337.545 46.2788 336.457 46.2788C335.361 46.2788 334.427 46.0698 333.629 45.6632C332.837 45.2565 332.18 44.7088 331.656 44.0235C331.129 43.3419 330.763 42.5675 330.53 41.7059C330.301 40.8385 330.186 39.945 330.188 39.0479C330.188 38.0855 330.301 37.1699 330.53 36.2832ZM321.236 34.8855C320.807 36.1612 320.586 37.5185 320.586 38.9782C320.586 41.1582 320.938 43.1579 321.644 44.9758C322.347 46.7995 323.369 48.3445 324.713 49.6202C326.046 50.8942 327.702 51.8815 329.679 52.5862C331.656 53.2908 333.919 53.6452 336.457 53.6452C338.998 53.6452 341.259 53.2908 343.228 52.5862C345.205 51.8815 346.867 50.8942 348.205 49.6202C349.538 48.3445 350.566 46.7995 351.272 44.9758C351.965 43.1579 352.325 41.1582 352.325 38.9782C352.325 37.5185 352.099 36.1612 351.645 34.8855C351.181 33.6096 350.576 32.4499 349.805 31.4066H354.369V23.8986H342.247V16.5979H331.007C330.51 16.5979 330.143 16.8033 329.923 17.2099C329.687 17.6259 329.797 18.1003 330.261 18.6483C330.895 19.3779 331.279 20.0906 331.424 20.7953C331.559 21.4979 331.618 22.4659 331.618 23.6973V23.8986H317.663V31.4066H323.041C322.268 32.4499 321.667 33.6096 321.236 34.8855ZM356.204 19.1249C355.753 19.1249 355.438 19.2913 355.255 19.6359C355.073 19.9786 355.179 20.4453 355.595 21.0376C355.999 21.6263 356.325 22.2013 356.584 22.7743C356.83 23.3416 356.951 24.2436 356.951 25.4672V52.4145H366.695V39.7299H371.258V54.2631H381V18.7143H371.258V31.6739H366.695V19.1249H356.204ZM343.37 66.9151C343.846 66.0751 344.626 65.3761 345.716 64.8341C346.805 64.2881 348.223 63.8738 349.976 63.5678C351.725 63.2698 353.864 63.1341 356.417 63.1341C358.95 63.1341 361.096 63.2698 362.85 63.5678C364.588 63.8738 365.999 64.2881 367.071 64.8341C368.138 65.3761 368.905 66.0751 369.378 66.9151C369.866 67.7574 370.105 68.7194 370.105 69.8134C370.105 70.8588 369.866 71.8054 369.378 72.6458C368.905 73.4878 368.138 74.1887 367.071 74.7561C365.999 75.3251 364.588 75.7607 362.85 76.0607C361.096 76.3531 358.95 76.5004 356.417 76.5004C353.864 76.5004 351.725 76.3531 349.976 76.0607C348.223 75.7607 346.805 75.3251 345.716 74.7561C344.626 74.1887 343.846 73.4878 343.37 72.6458C342.891 71.8054 342.653 70.8588 342.653 69.8134C342.653 68.7194 342.891 67.7574 343.37 66.9151ZM331.825 69.8134C331.825 71.9548 332.345 73.9081 333.393 75.6794C334.438 77.4471 336.001 78.9707 338.087 80.2154C340.185 81.4661 342.736 82.4341 345.778 83.1177C348.828 83.799 352.374 84.1474 356.417 84.1474C360.359 84.1474 363.863 83.799 366.93 83.1177C370.001 82.4341 372.557 81.4661 374.629 80.2154C376.691 78.9707 378.276 77.4471 379.356 75.6794C380.452 73.9081 380.995 71.9548 380.995 69.8134C380.995 65.4071 378.881 61.9125 374.656 59.3358C370.44 56.7745 364.352 55.4888 356.417 55.4888C348.287 55.4888 342.149 56.7745 338.015 59.3358C333.897 61.9125 331.825 65.4071 331.825 69.8134Z" fill="#0046FF"/>
</g>
<defs>
<clipPath id="clip0_1_2">
<rect width="381" height="100" fill="white"/>
</clipPath>
</defs>
</svg>
