<svg width="226" height="181" viewBox="0 0 226 181" fill="none" xmlns="http://www.w3.org/2000/svg">
<path d="M3.92452 54.9846C6.54963 58.5647 27.076 59.9968 28.7465 61.6675C29.5021 62.4233 28.3396 70.3963 28.7465 79.3295C29.2391 90.1443 31.3434 102.589 33.0426 108.209C35.4294 122.53 42.8283 139.714 50.4659 149.739C58.1035 159.763 73.1401 171.995 89.1313 175.993C105.123 179.991 116.341 179.812 127.797 177.902C139.253 175.993 166.701 161.195 174.816 154.274C182.931 147.352 189.582 138.044 196.297 123.007C202.493 109.131 204.411 103.436 205.366 95.082C206.321 86.7284 207.085 50.9271 207.514 48.779C207.944 46.631 214.436 46.3923 218.016 45.1989C221.596 44.0055 227.802 17.7513 222.551 11.7844C217.301 5.8175 205.366 2.95339 196.058 1.28266C190.873 0.352081 132.809 7.01087 83.1645 7.01085C46.5593 10.5182 23.0185 16.3192 23.0185 16.3192C23.0185 16.3192 8.45934 21.0927 3.92451 28.7303C-0.610318 36.3679 1.29941 51.4045 3.92452 54.9846Z" fill="#7092BF"/>
<path fill-rule="evenodd" clip-rule="evenodd" d="M83.2216 8.20418C64.9822 9.95364 49.999 12.2729 39.5766 14.1546C34.3602 15.0964 30.2868 15.9285 27.5201 16.5246C26.1367 16.8226 25.08 17.0616 24.3706 17.2257C24.0158 17.3078 23.7479 17.3712 23.5693 17.4138C23.48 17.4352 23.413 17.4514 23.3687 17.4621L23.349 17.4669C23.3237 17.4754 23.2872 17.4877 23.2399 17.5039C23.1371 17.539 22.9837 17.5922 22.7857 17.663C22.3896 17.8045 21.8155 18.0162 21.111 18.2944C19.7007 18.8512 17.7756 19.6711 15.7148 20.7234C11.5285 22.8611 7.03111 25.8356 4.95065 29.3395C2.8621 32.8571 2.19658 38.2413 2.43165 43.3238C2.54795 45.8385 2.88217 48.219 3.34111 50.1731C3.81008 52.17 4.3784 53.5854 4.88691 54.2789C5.03462 54.4803 5.41939 54.7902 6.18567 55.1519C6.91935 55.4982 7.87453 55.8337 9.00385 56.1569C11.2607 56.8027 14.0735 57.3609 16.9037 57.8673C18.0219 58.0674 19.1493 58.2605 20.2409 58.4474C21.8786 58.7279 23.4355 58.9945 24.7589 59.2502C25.8675 59.4644 26.857 59.679 27.6337 59.8994C28.0213 60.0094 28.3813 60.1278 28.688 60.2581C28.9664 60.3764 29.3188 60.5521 29.5904 60.8237C29.8319 61.0652 29.9447 61.3482 30.0018 61.5242C30.0652 61.7199 30.1037 61.9259 30.1295 62.1182C30.1813 62.5034 30.1996 62.973 30.2014 63.4854C30.2051 64.4946 30.144 65.8421 30.0737 67.3915L30.0694 67.486C29.924 70.6929 29.738 74.8694 29.9386 79.2751C30.428 90.0183 32.5213 102.361 34.185 107.864L34.2072 107.937L34.2198 108.013C36.5768 122.155 43.9033 139.156 51.4152 149.015C58.9312 158.88 73.7533 170.918 89.4208 174.835C105.245 178.791 116.298 178.609 127.601 176.725C133.122 175.805 142.696 171.714 152.012 166.907C161.307 162.11 170.094 156.732 174.041 153.365C181.98 146.594 188.539 137.453 195.207 122.52C201.391 108.672 203.247 103.113 204.181 94.9465C204.652 90.8291 205.08 79.8537 205.445 69.5611C205.501 67.9691 205.556 66.3949 205.609 64.8674C205.728 61.4751 205.838 58.3135 205.939 55.6991C206.013 53.8034 206.082 52.189 206.146 50.9793C206.208 49.8241 206.269 48.9201 206.344 48.545C206.569 47.4187 207.528 46.7784 208.323 46.4025C209.174 45.9998 210.246 45.7085 211.322 45.4666C212.062 45.3003 212.861 45.1459 213.639 44.9952C213.997 44.9261 214.35 44.8577 214.691 44.7894C215.801 44.5675 216.81 44.342 217.626 44.0711C217.631 44.0675 217.704 44.0272 217.84 43.8804C218.005 43.7036 218.203 43.4336 218.429 43.055C218.879 42.2987 219.365 41.2269 219.854 39.9009C220.828 37.2568 221.759 33.7462 222.421 30.0703C223.083 26.3922 223.466 22.6011 223.368 19.391C223.32 17.786 223.152 16.3578 222.853 15.1763C222.552 13.9834 222.139 13.1222 221.655 12.5727C219.237 9.82467 215.18 7.70023 210.434 6.04956C205.719 4.40959 200.481 3.28889 195.847 2.45723C195.357 2.36928 194.031 2.35894 191.806 2.45387C189.643 2.54613 186.769 2.72887 183.297 2.97544C179.903 3.21647 175.964 3.51637 171.577 3.8504C166.966 4.20148 161.859 4.59026 156.37 4.98801C135.011 6.53558 108.073 8.20164 83.2216 8.20418ZM23.0185 16.3192C22.733 15.1605 22.7332 15.1604 22.7335 15.1603L22.7522 15.1557L22.8057 15.1427C22.8527 15.1313 22.9224 15.1145 23.0144 15.0925C23.1986 15.0485 23.4721 14.9838 23.8326 14.9004C24.5534 14.7336 25.6219 14.492 27.0174 14.1913C29.8085 13.5901 33.9081 12.7527 39.1525 11.8059C49.641 9.9122 64.7106 7.58015 83.0506 5.82287L83.1074 5.81743H83.1645C107.941 5.81744 134.833 4.15548 156.197 2.6075C161.656 2.21198 166.769 1.82277 171.39 1.47099C175.79 1.13596 179.745 0.834896 183.128 0.594686C186.604 0.34786 189.505 0.163062 191.704 0.0692852C193.84 -0.0218167 195.463 -0.0366761 196.269 0.108017C200.944 0.947085 206.327 2.0938 211.218 3.79528C216.079 5.48606 220.615 7.77711 223.447 10.996C224.276 11.9382 224.817 13.2027 225.168 14.5923C225.521 15.9934 225.702 17.6046 225.754 19.3186C225.858 22.7467 225.45 26.7125 224.77 30.4931C224.089 34.2758 223.125 37.9254 222.093 40.7261C221.579 42.1225 221.034 43.3442 220.48 44.2754C220.203 44.7406 219.907 45.1628 219.589 45.5046C219.283 45.8341 218.886 46.1667 218.394 46.331C217.422 46.6548 216.282 46.9054 215.16 47.1298C214.785 47.2048 214.413 47.2766 214.047 47.3475C213.288 47.4943 212.55 47.6369 211.846 47.7953C210.798 48.0307 209.943 48.2764 209.343 48.5599C208.775 48.829 208.689 49.0113 208.683 49.0211C208.683 49.0228 208.682 49.0249 208.682 49.0273C208.68 49.037 208.678 49.0503 208.676 49.0674C208.671 49.1021 208.666 49.1474 208.66 49.2046C208.647 49.3193 208.634 49.4683 208.62 49.6528C208.591 50.0214 208.561 50.5095 208.53 51.106C208.466 52.298 208.398 53.8983 208.324 55.7916C208.223 58.4 208.113 61.5524 207.995 64.9403C207.942 66.4702 207.887 68.0481 207.83 69.6457C207.467 79.8792 207.036 90.9812 206.552 95.2175C205.576 103.758 203.595 109.59 197.386 123.494C190.625 138.634 183.881 148.109 175.59 155.181C171.422 158.736 162.428 164.218 153.107 169.028C143.806 173.828 133.928 178.09 127.993 179.079C116.384 181.014 105 181.19 88.8419 177.151C72.5268 173.072 57.2759 160.646 49.5167 150.462C41.7668 140.29 34.3078 122.964 31.8781 108.481C30.1476 102.71 28.0481 90.2238 27.5544 79.3837C27.3481 74.8563 27.5399 70.5797 27.6851 67.3778L27.6867 67.3431C27.7592 65.7437 27.8182 64.4442 27.8147 63.4941C27.813 63.0299 27.7961 62.6903 27.7672 62.4601C27.7631 62.4584 27.7589 62.4566 27.7546 62.4548C27.5758 62.3788 27.3209 62.2916 26.9823 62.1955C26.3064 62.0038 25.3977 61.8045 24.3061 61.5936C22.9993 61.3411 21.494 61.0834 19.8836 60.8078C18.789 60.6204 17.6458 60.4248 16.4833 60.2167C13.645 59.7088 10.7295 59.1333 8.34718 58.4515C7.1569 58.1109 6.06472 57.7341 5.16688 57.3103C4.30164 56.9019 3.47071 56.3838 2.96214 55.6902C2.1581 54.5937 1.50329 52.787 1.01758 50.7188C0.521849 48.6081 0.169854 46.0808 0.0474438 43.4341C-0.194918 38.1939 0.452107 32.2411 2.89839 28.121C5.35277 23.9873 10.4023 20.7563 14.6294 18.5978C16.7752 17.502 18.7734 16.6513 20.2346 16.0744C20.9659 15.7856 21.5647 15.5647 21.9825 15.4154C22.1914 15.3408 22.3553 15.2839 22.4679 15.2454C22.5243 15.2261 22.5679 15.2115 22.5979 15.2014L22.6328 15.1898L22.6424 15.1866L22.6462 15.1854C22.6465 15.1853 22.6467 15.1852 23.0185 16.3192ZM23.0185 16.3192L22.6467 15.1852L22.6894 15.1712L22.733 15.1605L23.0185 16.3192Z" fill="black"/>
<path d="M102.392 64.4425C102.392 65.6289 101.43 66.5906 100.244 66.5906C99.0573 66.5906 98.0956 65.6289 98.0956 64.4425C98.0956 63.2562 99.0573 62.2944 100.244 62.2944C101.43 62.2944 102.392 63.2562 102.392 64.4425Z" fill="black"/>
<path d="M138.193 62.533C138.193 63.7193 137.231 64.681 136.045 64.681C134.858 64.681 133.897 63.7193 133.897 62.533C133.897 61.3466 134.858 60.3849 136.045 60.3849C137.231 60.3849 138.193 61.3466 138.193 62.533Z" fill="black"/>
<path d="M136.63 98.5695L135.806 110.475L148.402 108.237L148.018 97.9224L136.63 98.5695Z" fill="white"/>
<path fill-rule="evenodd" clip-rule="evenodd" d="M148.822 97.04C149.059 97.2558 149.199 97.5578 149.211 97.8782L149.595 108.192C149.617 108.787 149.197 109.308 148.611 109.412L136.015 111.65C135.653 111.714 135.282 111.608 135.009 111.363C134.735 111.117 134.59 110.759 134.616 110.392L135.44 98.4872C135.481 97.8875 135.963 97.4123 136.563 97.3782L147.951 96.7311C148.271 96.7129 148.585 96.8242 148.822 97.04ZM137.748 99.7014L137.102 109.033L147.171 107.243L146.871 99.183L137.748 99.7014Z" fill="black"/>
<path fill-rule="evenodd" clip-rule="evenodd" d="M171.361 106.549C171.438 107.203 170.969 107.796 170.315 107.873L76.754 118.852C76.0994 118.929 75.5064 118.461 75.4296 117.806C75.3528 117.151 75.8212 116.559 76.4758 116.482L170.036 105.503C170.691 105.426 171.284 105.894 171.361 106.549Z" fill="black"/>
<path d="M93.7993 105.972L96.6634 114.803L111.939 112.416L108.12 102.392L93.7993 105.972Z" fill="white"/>
<path fill-rule="evenodd" clip-rule="evenodd" d="M107.83 101.234C108.417 101.087 109.02 101.402 109.235 101.967L113.054 111.991C113.182 112.328 113.151 112.704 112.971 113.015C112.79 113.327 112.479 113.54 112.123 113.595L96.8477 115.982C96.2684 116.073 95.7092 115.729 95.5283 115.171L92.6642 106.34C92.5621 106.026 92.5952 105.683 92.7556 105.393C92.9159 105.104 93.1891 104.894 93.5099 104.814L107.83 101.234ZM95.3288 106.82L97.4847 113.467L110.299 111.464L107.382 103.806L95.3288 106.82Z" fill="black"/>
<path fill-rule="evenodd" clip-rule="evenodd" d="M88.5588 40.3699C74.8953 40.7584 64.1338 52.1499 64.5224 65.8134C64.911 79.4769 76.3024 90.2384 89.9659 89.8498C103.629 89.4613 114.391 78.0698 114.002 64.4063C113.959 62.8962 113.782 61.4216 113.482 59.9935C112.741 60.2982 112.261 60.6049 112.034 60.8446C111.56 61.3465 110.769 61.369 110.267 60.8949C109.765 60.4208 109.743 59.6297 110.217 59.1278C110.83 58.4785 111.784 57.9607 112.839 57.5594C109.567 47.3251 99.837 40.0491 88.5588 40.3699ZM115.24 56.8575C111.657 45.5575 100.927 37.5171 88.4878 37.8709C77.0598 38.1958 67.4756 45.5117 63.7163 55.6044C63.7016 55.602 63.6867 55.5999 63.6718 55.598L57.146 54.7832C56.461 54.6977 55.8363 55.1837 55.7508 55.8687C55.6652 56.5537 56.1512 57.1784 56.8363 57.264L62.9417 58.0263C62.2701 60.526 61.9461 63.1643 62.0234 65.8845C62.4512 80.9281 74.9933 92.7766 90.037 92.3488C105.081 91.921 116.929 79.3789 116.501 64.3352C116.452 62.6017 116.242 60.9105 115.886 59.2757C116.695 59.1029 117.572 58.9726 118.475 58.9003C119.814 58.7929 121.137 58.818 122.343 58.9885C122.068 60.6735 121.949 62.4089 121.999 64.1789C122.427 79.2226 134.969 91.0711 150.013 90.6433C165.056 90.2154 176.905 77.6733 176.477 62.6296C176.41 60.2841 176.049 58.0163 175.43 55.8606L181.694 54.7137C182.373 54.5893 182.823 53.9381 182.699 53.259C182.574 52.5799 181.923 52.1302 181.244 52.2545L174.775 53.4389C174.723 53.4484 174.672 53.461 174.623 53.4765C170.551 43.0663 160.279 35.8293 148.463 36.1653C136.061 36.518 125.831 45.1041 122.86 56.5377C121.335 56.3061 119.747 56.2903 118.275 56.4083C117.227 56.4923 116.198 56.6469 115.24 56.8575ZM124.777 59.6074C125.37 59.8452 125.893 60.1402 126.323 60.4952C126.855 60.9348 127.643 60.8597 128.083 60.3275C128.522 59.7952 128.447 59.0073 127.915 58.5677C127.16 57.9437 126.264 57.4736 125.29 57.1298C128.001 46.7641 137.284 38.9842 148.535 38.6643C162.198 38.2757 173.589 49.0372 173.978 62.7007C174.367 76.3642 163.605 87.7557 149.942 88.1443C136.278 88.5328 124.887 77.7713 124.498 64.1078C124.455 62.575 124.551 61.0707 124.777 59.6074Z" fill="black"/>
</svg>
