<svg width="226" height="190" viewBox="0 0 226 190" fill="none" xmlns="http://www.w3.org/2000/svg">
<path d="M2.73116 63.7911C5.35627 67.3712 25.8827 68.8033 27.5531 70.474C28.3088 71.2298 27.1462 79.2028 27.5531 88.136C28.0457 98.9508 30.1501 111.395 31.8493 117.016C34.236 131.336 41.635 148.521 49.2726 158.545C56.9102 168.57 71.9467 180.801 87.938 184.799C103.929 188.798 115.148 188.618 126.604 186.709C138.06 184.799 165.507 170.002 173.622 163.08C181.737 156.158 188.389 146.85 195.103 131.814C201.299 117.938 203.218 112.242 204.173 103.889C205.128 95.5349 205.891 59.7336 206.321 57.5856C206.751 55.4375 213.243 55.1988 216.823 54.0054C220.403 52.8121 226.608 26.5578 221.358 20.5909C216.107 14.624 204.173 11.7599 194.865 10.0892C189.68 9.1586 131.616 15.8174 81.9711 15.8174C45.366 19.3247 21.8252 25.1257 21.8252 25.1257C21.8252 25.1257 7.26598 29.8992 2.73115 37.5368C-1.80368 45.1744 0.106048 60.211 2.73116 63.7911Z" fill="#7092BF"/>
<path fill-rule="evenodd" clip-rule="evenodd" d="M83.2216 17.2042C64.9822 18.9536 49.999 21.2729 39.5766 23.1546C34.3602 24.0964 30.2868 24.9285 27.5201 25.5246C26.1367 25.8226 25.08 26.0616 24.3706 26.2257C24.0158 26.3078 23.7479 26.3712 23.5693 26.4138C23.48 26.4352 23.413 26.4514 23.3687 26.4621L23.349 26.4669C23.3237 26.4754 23.2872 26.4877 23.2399 26.5039C23.1371 26.539 22.9837 26.5922 22.7857 26.663C22.3896 26.8045 21.8155 27.0162 21.111 27.2944C19.7007 27.8512 17.7756 28.6711 15.7148 29.7234C11.5285 31.8611 7.03111 34.8356 4.95065 38.3395C2.8621 41.8571 2.19658 47.2413 2.43165 52.3238C2.54795 54.8385 2.88217 57.219 3.34111 59.1731C3.81008 61.17 4.3784 62.5854 4.88691 63.2789C5.03462 63.4803 5.41939 63.7902 6.18567 64.1519C6.91935 64.4982 7.87453 64.8337 9.00385 65.1569C11.2607 65.8027 14.0735 66.3609 16.9037 66.8673C18.0219 67.0674 19.1493 67.2605 20.2409 67.4474C21.8786 67.7279 23.4355 67.9945 24.7589 68.2502C25.8675 68.4644 26.857 68.679 27.6337 68.8994C28.0213 69.0094 28.3813 69.1278 28.688 69.2581C28.9664 69.3764 29.3188 69.5521 29.5904 69.8237C29.8319 70.0652 29.9447 70.3482 30.0018 70.5242C30.0652 70.7199 30.1037 70.9259 30.1295 71.1182C30.1813 71.5034 30.1996 71.973 30.2014 72.4854C30.2051 73.4946 30.144 74.8421 30.0737 76.3915L30.0694 76.486C29.924 79.6929 29.738 83.8694 29.9386 88.2751C30.428 99.0183 32.5213 111.361 34.185 116.864L34.2072 116.937L34.2198 117.013C36.5768 131.155 43.9033 148.156 51.4152 158.015C58.9312 167.88 73.7533 179.918 89.4208 183.835C105.245 187.791 116.298 187.609 127.601 185.725C133.122 184.805 142.696 180.714 152.012 175.907C161.307 171.11 170.094 165.732 174.041 162.365C181.98 155.594 188.539 146.453 195.207 131.52C201.391 117.672 203.247 112.113 204.181 103.946C204.652 99.8291 205.08 88.8537 205.445 78.5611C205.501 76.9691 205.556 75.3949 205.609 73.8674C205.728 70.4751 205.838 67.3135 205.939 64.6991C206.013 62.8034 206.082 61.189 206.146 59.9793C206.208 58.8241 206.269 57.9201 206.344 57.545C206.569 56.4187 207.528 55.7784 208.323 55.4025C209.174 54.9998 210.246 54.7085 211.322 54.4666C212.062 54.3003 212.861 54.1459 213.639 53.9952C213.997 53.9261 214.35 53.8577 214.691 53.7894C215.801 53.5675 216.81 53.342 217.626 53.0711C217.631 53.0675 217.704 53.0272 217.84 52.8804C218.005 52.7036 218.203 52.4336 218.429 52.055C218.879 51.2987 219.365 50.2269 219.854 48.9009C220.828 46.2568 221.759 42.7462 222.421 39.0703C223.083 35.3922 223.466 31.6011 223.368 28.391C223.32 26.786 223.152 25.3578 222.853 24.1763C222.552 22.9834 222.139 22.1222 221.655 21.5727C219.237 18.8247 215.18 16.7002 210.434 15.0496C205.719 13.4096 200.481 12.2889 195.847 11.4572C195.357 11.3693 194.031 11.3589 191.806 11.4539C189.643 11.5461 186.769 11.7289 183.297 11.9754C179.903 12.2165 175.964 12.5164 171.577 12.8504C166.966 13.2015 161.859 13.5903 156.37 13.988C135.011 15.5356 108.073 17.2016 83.2216 17.2042ZM23.0185 25.3192C22.733 24.1605 22.7332 24.1604 22.7335 24.1603L22.7522 24.1557L22.8057 24.1427C22.8527 24.1313 22.9224 24.1145 23.0144 24.0925C23.1986 24.0485 23.4721 23.9838 23.8326 23.9004C24.5534 23.7336 25.6219 23.492 27.0174 23.1913C29.8085 22.5901 33.9081 21.7527 39.1525 20.8059C49.641 18.9122 64.7106 16.5802 83.0506 14.8229L83.1074 14.8174H83.1645C107.941 14.8174 134.833 13.1555 156.197 11.6075C161.656 11.212 166.769 10.8228 171.39 10.471C175.79 10.136 179.745 9.8349 183.128 9.59469C186.604 9.34786 189.505 9.16306 191.704 9.06929C193.84 8.97818 195.463 8.96332 196.269 9.10802C200.944 9.94708 206.327 11.0938 211.218 12.7953C216.079 14.4861 220.615 16.7771 223.447 19.996C224.276 20.9382 224.817 22.2027 225.168 23.5923C225.521 24.9934 225.702 26.6046 225.754 28.3186C225.858 31.7467 225.45 35.7125 224.77 39.4931C224.089 43.2758 223.125 46.9254 222.093 49.7261C221.579 51.1225 221.034 52.3442 220.48 53.2754C220.203 53.7406 219.907 54.1628 219.589 54.5046C219.283 54.8341 218.886 55.1667 218.394 55.331C217.422 55.6548 216.282 55.9054 215.16 56.1298C214.785 56.2048 214.413 56.2766 214.047 56.3475C213.288 56.4943 212.55 56.6369 211.846 56.7953C210.798 57.0307 209.943 57.2764 209.343 57.5599C208.775 57.829 208.689 58.0113 208.683 58.0211C208.683 58.0228 208.682 58.0249 208.682 58.0273C208.68 58.037 208.678 58.0503 208.676 58.0674C208.671 58.1021 208.666 58.1474 208.66 58.2046C208.647 58.3193 208.634 58.4683 208.62 58.6528C208.591 59.0214 208.561 59.5095 208.53 60.106C208.466 61.298 208.398 62.8983 208.324 64.7916C208.223 67.4 208.113 70.5524 207.995 73.9403C207.942 75.4702 207.887 77.0481 207.83 78.6457C207.467 88.8792 207.036 99.9812 206.552 104.218C205.576 112.758 203.595 118.59 197.386 132.494C190.625 147.634 183.881 157.109 175.59 164.181C171.422 167.736 162.428 173.218 153.107 178.028C143.806 182.828 133.928 187.09 127.993 188.079C116.384 190.014 105 190.19 88.8419 186.151C72.5268 182.072 57.2759 169.646 49.5167 159.462C41.7668 149.29 34.3078 131.964 31.8781 117.481C30.1476 111.71 28.0481 99.2238 27.5544 88.3837C27.3481 83.8563 27.5399 79.5797 27.6851 76.3778L27.6867 76.3431C27.7592 74.7437 27.8182 73.4442 27.8147 72.4941C27.813 72.0299 27.7961 71.6903 27.7672 71.4601C27.7631 71.4584 27.7589 71.4566 27.7546 71.4548C27.5758 71.3788 27.3209 71.2916 26.9823 71.1955C26.3064 71.0038 25.3977 70.8045 24.3061 70.5936C22.9993 70.3411 21.494 70.0834 19.8836 69.8078C18.789 69.6204 17.6458 69.4248 16.4833 69.2167C13.645 68.7088 10.7295 68.1333 8.34718 67.4515C7.1569 67.1109 6.06472 66.7341 5.16688 66.3103C4.30164 65.9019 3.47071 65.3838 2.96214 64.6902C2.1581 63.5937 1.50329 61.787 1.01758 59.7188C0.521849 57.6081 0.169854 55.0808 0.0474438 52.4341C-0.194918 47.1939 0.452107 41.2411 2.89839 37.121C5.35277 32.9873 10.4023 29.7563 14.6294 27.5978C16.7752 26.502 18.7734 25.6513 20.2346 25.0744C20.9659 24.7856 21.5647 24.5647 21.9825 24.4154C22.1914 24.3408 22.3553 24.2839 22.4679 24.2454C22.5243 24.2261 22.5679 24.2115 22.5979 24.2014L22.6328 24.1898L22.6424 24.1866L22.6462 24.1854C22.6465 24.1853 22.6467 24.1852 23.0185 25.3192ZM23.0185 25.3192L22.6467 24.1852L22.6894 24.1712L22.733 24.1605L23.0185 25.3192Z" fill="black"/>
<path d="M102.296 73.4425C102.296 74.6289 101.334 75.5906 100.148 75.5906C98.9617 75.5906 98 74.6289 98 73.4425C98 72.2562 98.9617 71.2944 100.148 71.2944C101.334 71.2944 102.296 72.2562 102.296 73.4425Z" fill="black"/>
<path d="M100.3 72.65C100.3 73.009 100.009 73.3 99.65 73.3C99.291 73.3 99 73.009 99 72.65C99 72.291 99.291 72 99.65 72C100.009 72 100.3 72.291 100.3 72.65Z" fill="white"/>
<path d="M138.193 71.533C138.193 72.7193 137.231 73.681 136.045 73.681C134.858 73.681 133.897 72.7193 133.897 71.533C133.897 70.3466 134.858 69.3849 136.045 69.3849C137.231 69.3849 138.193 70.3466 138.193 71.533Z" fill="black"/>
<path d="M136.3 70.65C136.3 71.009 136.009 71.3 135.65 71.3C135.291 71.3 135 71.009 135 70.65C135 70.291 135.291 70 135.65 70C136.009 70 136.3 70.291 136.3 70.65Z" fill="white"/>
<path d="M136.63 107.57L135.806 119.475L148.402 117.237L148.018 106.922L136.63 107.57Z" fill="white"/>
<path fill-rule="evenodd" clip-rule="evenodd" d="M148.822 106.04C149.059 106.256 149.199 106.558 149.211 106.878L149.595 117.192C149.617 117.787 149.197 118.308 148.611 118.412L136.015 120.65C135.653 120.714 135.282 120.608 135.009 120.363C134.735 120.117 134.59 119.759 134.616 119.392L135.44 107.487C135.481 106.887 135.963 106.412 136.563 106.378L147.951 105.731C148.271 105.713 148.585 105.824 148.822 106.04ZM137.748 108.701L137.102 118.033L147.171 116.243L146.871 108.183L137.748 108.701Z" fill="black"/>
<path fill-rule="evenodd" clip-rule="evenodd" d="M171.361 115.549C171.438 116.203 170.969 116.796 170.315 116.873L76.754 127.852C76.0994 127.929 75.5064 127.461 75.4296 126.806C75.3528 126.151 75.8212 125.559 76.4758 125.482L170.036 114.503C170.691 114.426 171.284 114.894 171.361 115.549Z" fill="black"/>
<path d="M93.7993 114.972L96.6634 123.803L111.939 121.416L108.12 111.392L93.7993 114.972Z" fill="white"/>
<path fill-rule="evenodd" clip-rule="evenodd" d="M107.83 110.234C108.417 110.087 109.02 110.402 109.235 110.967L113.054 120.991C113.182 121.328 113.151 121.704 112.971 122.015C112.79 122.327 112.479 122.54 112.123 122.595L96.8477 124.982C96.2684 125.073 95.7092 124.729 95.5283 124.171L92.6642 115.34C92.5621 115.026 92.5952 114.683 92.7556 114.393C92.9159 114.104 93.1891 113.894 93.5099 113.814L107.83 110.234ZM95.3288 115.82L97.4847 122.467L110.299 120.464L107.382 112.806L95.3288 115.82Z" fill="black"/>
<path d="M160.761 0.916621C163.736 1.91676 167.07 6.08256 169.236 8.91589C164.436 12.1158 166.761 17.4159 166.761 18.4159C166.761 20.8159 171.403 21.416 173.736 21.416C170.536 22.616 165.761 36.9159 164.736 36.916C164.211 36.916 162.261 29.9159 161.736 29.416C161.211 28.916 157.761 30.9159 156.736 30.416C155.761 28.4159 163.094 19.5826 166.761 18.4159C156.361 18.4159 152.761 15.9161 151.736 13.416C150.712 10.9158 153.261 4.41654 154.761 2.41661C156.261 0.416675 158.345 0.104198 160.761 0.916621Z" fill="#FF6196"/>
<path fill-rule="evenodd" clip-rule="evenodd" d="M157.308 0.124122C158.435 -0.128562 159.657 0.0178429 160.921 0.442714C162.528 0.983177 164.176 2.35043 165.661 3.88058C167.159 5.42386 168.549 7.19378 169.634 8.61219L169.958 9.036L169.514 9.33194C167.283 10.8191 166.716 12.7693 166.699 14.496C166.69 15.3694 166.823 16.1859 166.962 16.8579C167.008 17.0783 167.053 17.2744 167.094 17.4557C167.117 17.556 167.139 17.6518 167.159 17.7447C167.21 17.9785 167.261 18.2264 167.261 18.4159C167.261 18.8308 167.454 19.1881 167.843 19.5134C168.243 19.8473 168.826 20.1228 169.522 20.3384C170.909 20.7684 172.599 20.916 173.736 20.916L173.912 21.8841C173.63 21.9899 173.272 22.2682 172.851 22.7542C172.438 23.2301 172.001 23.8606 171.552 24.603C170.653 26.0872 169.734 27.966 168.874 29.8258C168.478 30.6842 168.09 31.5469 167.724 32.3605C167.307 33.2896 166.918 34.1547 166.577 34.8763C166.255 35.5578 165.963 36.1398 165.715 36.5555C165.592 36.7613 165.469 36.9458 165.347 37.0846C165.286 37.1539 165.213 37.227 165.128 37.2862C165.047 37.3422 164.911 37.416 164.736 37.416C164.581 37.416 164.464 37.3525 164.398 37.3066C164.329 37.2591 164.277 37.2038 164.239 37.1592C164.164 37.0698 164.097 36.9603 164.039 36.8531C163.92 36.6339 163.79 36.3363 163.656 35.9997C163.385 35.322 163.072 34.4196 162.763 33.515C162.702 33.3366 162.641 33.158 162.581 32.9807C162.334 32.2535 162.094 31.5491 161.883 30.97C161.752 30.6097 161.634 30.3069 161.536 30.0821C161.49 29.9771 161.451 29.8956 161.419 29.8362C161.327 29.8416 161.191 29.8659 161.006 29.915C160.662 30.006 160.24 30.1561 159.772 30.3227C159.713 30.3439 159.652 30.3655 159.591 30.3872C159.066 30.5736 158.496 30.7708 157.988 30.8876C157.733 30.9462 157.477 30.9886 157.239 30.9958C157.006 31.0029 156.748 30.9781 156.517 30.8654L156.362 30.7899L156.287 30.6351C156.085 30.2203 156.13 29.7162 156.253 29.2469C156.381 28.7585 156.622 28.2059 156.935 27.6241C157.564 26.4574 158.526 25.1011 159.624 23.7834C160.723 22.4638 161.972 21.1673 163.184 20.1231C163.722 19.6597 164.262 19.2378 164.786 18.8841C160.611 18.7452 157.641 18.1608 155.546 17.3173C153.124 16.342 151.849 15.0086 151.274 13.6056C150.969 12.8611 150.948 11.8827 151.069 10.8646C151.193 9.83128 151.471 8.68968 151.826 7.57693C152.531 5.36445 153.564 3.18013 154.361 2.11664C155.175 1.03129 156.17 0.379292 157.308 0.124122ZM166.371 19.1119C165.642 19.4622 164.769 20.0776 163.837 20.8807C162.673 21.8833 161.462 23.1389 160.392 24.4235C159.32 25.7099 158.402 27.0099 157.816 28.0985C157.522 28.6442 157.321 29.119 157.22 29.501C157.163 29.7195 157.145 29.8811 157.148 29.9968C157.167 29.9971 157.187 29.9969 157.209 29.9963C157.357 29.9918 157.543 29.9639 157.764 29.9131C158.208 29.8111 158.725 29.6334 159.257 29.4448C159.317 29.4234 159.377 29.4019 159.438 29.3802C159.897 29.2167 160.362 29.0508 160.75 28.9483C160.969 28.8904 161.192 28.8444 161.393 28.8363C161.569 28.8293 161.861 28.8444 162.081 29.054C162.173 29.1419 162.242 29.2571 162.289 29.3419C162.342 29.4391 162.397 29.555 162.452 29.6815C162.563 29.9352 162.689 30.2613 162.822 30.6275C163.038 31.2178 163.282 31.9358 163.53 32.6639C163.589 32.8399 163.65 33.0164 163.709 33.1919C164.019 34.0999 164.325 34.9787 164.584 35.6292C164.663 35.8262 164.735 35.9963 164.799 36.1366C164.818 36.1073 164.837 36.0761 164.857 36.0428C165.078 35.6718 165.353 35.1273 165.673 34.4494C166.015 33.7252 166.394 32.8811 166.805 31.9665C167.169 31.1568 167.557 30.2919 167.967 29.4062C168.829 27.541 169.767 25.6197 170.696 24.0852C171.161 23.3182 171.63 22.6347 172.095 22.0989C172.168 22.0148 172.242 21.9332 172.317 21.8545C171.331 21.7726 170.218 21.6011 169.226 21.2935C168.469 21.0591 167.746 20.7345 167.202 20.281C166.824 19.9651 166.523 19.5767 166.371 19.1119ZM166.172 17.9132C161.331 17.8676 158.078 17.259 155.92 16.3897C153.686 15.4901 152.649 14.3236 152.199 13.2264C151.992 12.7208 151.947 11.9492 152.062 10.983C152.176 10.032 152.436 8.95506 152.779 7.88049C153.467 5.71833 154.459 3.65308 155.161 2.71663C155.847 1.80205 156.644 1.29784 157.527 1.09989C158.421 0.899463 159.449 1.00303 160.602 1.39058C161.969 1.85026 163.476 3.06597 164.943 4.57709C166.259 5.93297 167.498 7.47865 168.524 8.80894C166.313 10.4829 165.718 12.6289 165.699 14.4858C165.689 15.4624 165.837 16.3585 165.983 17.0614C166.031 17.289 166.08 17.5054 166.122 17.6932C166.14 17.772 166.157 17.8457 166.172 17.9132ZM161.494 29.8376C161.494 29.8377 161.492 29.8375 161.488 29.8365C161.492 29.837 161.494 29.8375 161.494 29.8376Z" fill="black"/>
<path d="M185.236 0.916621C182.261 1.91676 178.928 6.08256 176.761 8.91589C181.561 12.1158 179.237 17.4159 179.237 18.4159C179.237 20.8159 174.595 21.416 172.261 21.416C175.461 22.616 180.237 36.9159 181.261 36.916C181.786 36.916 183.737 29.9159 184.261 29.416C184.786 28.916 188.237 30.9159 189.261 30.416C190.237 28.4159 182.903 19.5826 179.237 18.4159C189.637 18.4159 193.237 15.9161 194.261 13.416C195.286 10.9158 192.736 4.41654 191.236 2.41661C189.736 0.416675 187.653 0.104198 185.236 0.916621Z" fill="#FF6196"/>
<path fill-rule="evenodd" clip-rule="evenodd" d="M188.689 0.124122C187.562 -0.128562 186.341 0.0178429 185.077 0.442714C183.469 0.983177 181.822 2.35043 180.337 3.88058C178.839 5.42386 177.449 7.19378 176.364 8.61219L176.04 9.036L176.484 9.33194C178.715 10.8191 179.281 12.7693 179.299 14.496C179.308 15.3694 179.175 16.1859 179.035 16.8579C178.989 17.0783 178.945 17.2744 178.904 17.4557C178.881 17.556 178.859 17.6518 178.839 17.7447C178.787 17.9785 178.737 18.2264 178.737 18.4159C178.737 18.8308 178.544 19.1881 178.154 19.5134C177.754 19.8473 177.172 20.1228 176.476 20.3384C175.088 20.7684 173.399 20.916 172.261 20.916L172.086 21.8841C172.368 21.9899 172.726 22.2682 173.147 22.7542C173.56 23.2301 173.996 23.8606 174.446 24.603C175.344 26.0872 176.264 27.966 177.123 29.8258C177.52 30.6842 177.908 31.5469 178.274 32.3605C178.691 33.2896 179.08 34.1547 179.421 34.8763C179.742 35.5578 180.034 36.1398 180.282 36.5555C180.405 36.7613 180.529 36.9458 180.651 37.0846C180.711 37.1539 180.785 37.227 180.87 37.2862C180.951 37.3422 181.087 37.416 181.261 37.416C181.417 37.416 181.534 37.3525 181.6 37.3066C181.668 37.2591 181.721 37.2038 181.758 37.1592C181.834 37.0698 181.9 36.9603 181.959 36.8531C182.078 36.6339 182.208 36.3363 182.342 35.9997C182.612 35.322 182.926 34.4196 183.235 33.515C183.296 33.3366 183.356 33.158 183.417 32.9807C183.664 32.2535 183.904 31.5491 184.115 30.97C184.246 30.6097 184.363 30.3069 184.461 30.0821C184.507 29.9771 184.546 29.8956 184.578 29.8362C184.67 29.8416 184.807 29.8659 184.992 29.915C185.336 30.006 185.758 30.1561 186.225 30.3227C186.285 30.3439 186.345 30.3655 186.407 30.3872C186.932 30.5736 187.502 30.7708 188.01 30.8876C188.264 30.9462 188.52 30.9886 188.759 30.9958C188.992 31.0029 189.25 30.9781 189.481 30.8654L189.635 30.7899L189.711 30.6351C189.913 30.2203 189.868 29.7162 189.745 29.2469C189.616 28.7585 189.376 28.2059 189.062 27.6241C188.434 26.4574 187.472 25.1011 186.374 23.7834C185.274 22.4638 184.025 21.1673 182.813 20.1231C182.276 19.6597 181.736 19.2378 181.212 18.8841C185.386 18.7452 188.357 18.1608 190.451 17.3173C192.874 16.342 194.149 15.0086 194.724 13.6056C195.029 12.8611 195.05 11.8827 194.928 10.8646C194.805 9.83128 194.526 8.68968 194.172 7.57693C193.467 5.36445 192.434 3.18013 191.636 2.11664C190.822 1.03129 189.827 0.379292 188.689 0.124122ZM179.627 19.1119C180.355 19.4622 181.229 20.0776 182.161 20.8807C183.324 21.8833 184.535 23.1389 185.606 24.4235C186.677 25.7099 187.595 27.0099 188.182 28.0985C188.476 28.6442 188.677 29.119 188.777 29.501C188.835 29.7195 188.852 29.8811 188.85 29.9968C188.831 29.9971 188.811 29.9969 188.789 29.9963C188.641 29.9918 188.455 29.9639 188.234 29.9131C187.79 29.8111 187.272 29.6334 186.741 29.4448C186.681 29.4234 186.62 29.4019 186.56 29.3802C186.101 29.2167 185.635 29.0508 185.248 28.9483C185.029 28.8904 184.806 28.8444 184.605 28.8363C184.428 28.8293 184.136 28.8444 183.917 29.054C183.824 29.1419 183.755 29.2571 183.709 29.3419C183.655 29.4391 183.6 29.555 183.545 29.6815C183.434 29.9352 183.309 30.2613 183.175 30.6275C182.96 31.2178 182.716 31.9358 182.468 32.6639C182.408 32.8399 182.348 33.0164 182.288 33.1919C181.978 34.0999 181.673 34.9787 181.413 35.6292C181.335 35.8262 181.263 35.9963 181.198 36.1366C181.18 36.1073 181.161 36.0761 181.141 36.0428C180.919 35.6718 180.645 35.1273 180.325 34.4494C179.983 33.7252 179.604 32.8811 179.193 31.9665C178.829 31.1568 178.44 30.2919 178.031 29.4062C177.169 27.541 176.23 25.6197 175.301 24.0852C174.837 23.3182 174.367 22.6347 173.903 22.0989C173.83 22.0148 173.756 21.9332 173.681 21.8545C174.667 21.7726 175.78 21.6011 176.772 21.2935C177.529 21.0591 178.252 20.7345 178.795 20.281C179.174 19.9651 179.474 19.5767 179.627 19.1119ZM179.826 17.9132C184.666 17.8676 187.919 17.259 190.078 16.3897C192.312 15.4901 193.349 14.3236 193.799 13.2264C194.006 12.7208 194.051 11.9492 193.935 10.983C193.822 10.032 193.562 8.95506 193.219 7.88049C192.53 5.71833 191.539 3.65308 190.836 2.71663C190.15 1.80205 189.353 1.29784 188.471 1.09989C187.577 0.899463 186.548 1.00303 185.396 1.39058C184.028 1.85026 182.521 3.06597 181.054 4.57709C179.738 5.93297 178.499 7.47865 177.474 8.80894C179.685 10.4829 180.28 12.6289 180.299 14.4858C180.309 15.4624 180.161 16.3585 180.014 17.0614C179.967 17.289 179.918 17.5054 179.875 17.6932C179.857 17.772 179.841 17.8457 179.826 17.9132ZM184.503 29.8376C184.503 29.8377 184.506 29.8375 184.51 29.8365C184.505 29.837 184.503 29.8375 184.503 29.8376Z" fill="black"/>
<path fill-rule="evenodd" clip-rule="evenodd" d="M164.377 15.7367C160.541 11.1334 154.431 10.9248 151.854 11.408C151.582 11.4589 151.321 11.2801 151.27 11.0087C151.219 10.7373 151.398 10.476 151.669 10.4251C154.426 9.90832 160.982 10.0997 165.146 15.0965C165.322 15.3086 165.294 15.6239 165.082 15.8007C164.869 15.9775 164.554 15.9488 164.377 15.7367Z" fill="black"/>
<path fill-rule="evenodd" clip-rule="evenodd" d="M188.363 11.7897C190.718 11.3011 192.907 11.3656 194.182 11.5698C194.455 11.6134 194.711 11.4278 194.755 11.1551C194.799 10.8824 194.613 10.626 194.34 10.5824C192.95 10.3598 190.638 10.2963 188.16 10.8105C185.68 11.3251 182.994 12.4264 180.904 14.5673C180.711 14.7649 180.715 15.0815 180.912 15.2744C181.11 15.4673 181.426 15.4635 181.619 15.2659C183.529 13.3102 186.01 12.2779 188.363 11.7897Z" fill="black"/>
<path d="M181.261 15.4166C181.261 19.5588 177.456 22.9166 172.761 22.9166C168.067 22.9166 164.261 19.5588 164.261 15.4166C164.261 11.2745 168.067 7.91663 172.761 7.91663C177.456 7.91663 181.261 11.2745 181.261 15.4166Z" fill="#FF6196"/>
<path fill-rule="evenodd" clip-rule="evenodd" d="M172.761 21.9166C177.025 21.9166 180.261 18.8925 180.261 15.4166C180.261 11.9407 177.025 8.91663 172.761 8.91663C168.498 8.91663 165.261 11.9407 165.261 15.4166C165.261 18.8925 168.498 21.9166 172.761 21.9166ZM172.761 22.9166C177.456 22.9166 181.261 19.5588 181.261 15.4166C181.261 11.2745 177.456 7.91663 172.761 7.91663C168.067 7.91663 164.261 11.2745 164.261 15.4166C164.261 19.5588 168.067 22.9166 172.761 22.9166Z" fill="black"/>
<path d="M73 95.5C73 97.9853 69.4183 100 65 100C60.5817 100 57 97.9853 57 95.5C57 93.0147 60.5817 91 65 91C69.4183 91 73 93.0147 73 95.5Z" fill="#FF6C6C"/>
<path d="M191 90.5C191 92.9853 187.418 95 183 95C178.582 95 175 92.9853 175 90.5C175 88.0147 178.582 86 183 86C187.418 86 191 88.0147 191 90.5Z" fill="#FF6C6C"/>
</svg>
