<svg width="226" height="218" viewBox="0 0 226 218" fill="none" xmlns="http://www.w3.org/2000/svg">
<path d="M74.5048 214.5L66.0048 200.5H158.005L155.005 214.5C244.205 204.9 224.5 121.699 211.005 87C197.51 52.301 173 13.9998 118.505 14C50.5048 15.6 21.8381 70.3333 16.0048 97.5C-12.7952 198.3 43.0048 217.5 74.5048 214.5Z" fill="#501F03"/>
<path fill-rule="evenodd" clip-rule="evenodd" d="M118.493 13L118.505 13C146.017 12.9999 166.013 22.6795 180.819 36.7632C195.598 50.8214 205.165 69.2269 211.937 86.6375C218.704 104.037 227.085 133.721 222.501 160.332C220.204 173.665 214.645 186.268 203.963 196.142C193.282 206.014 177.569 213.077 155.112 215.494L153.737 215.642L156.768 201.5H67.7818L76.1872 215.344L74.5996 215.495C58.6486 217.015 36.4455 212.929 21.8762 195.568C7.28646 178.183 0.602703 147.79 15.0341 97.2573C20.9345 69.8415 49.858 14.6149 118.481 13.0003L118.493 13ZM118.517 15C51.1755 16.5907 22.7644 70.7828 16.9825 97.7099L16.9754 97.7426L16.9663 97.7747C2.60961 148.023 9.42611 177.621 23.4082 194.282C36.9396 210.406 57.4166 214.699 72.8102 213.636L64.2277 199.5H159.242L156.274 213.351C177.675 210.832 192.529 203.987 202.605 194.673C212.894 185.163 218.29 172.997 220.53 159.992C225.02 133.928 216.801 104.662 210.073 87.3625C203.349 70.0741 193.914 51.9795 179.441 38.2124C164.996 24.4728 145.493 15.0027 118.517 15Z" fill="black"/>
<path d="M2.73116 91.7911C5.35627 95.3712 25.8827 96.8033 27.5531 98.474C28.3088 99.2298 27.1462 107.203 27.5531 116.136C28.0457 126.951 30.1501 139.395 31.8493 145.016C34.236 159.336 41.635 176.521 49.2726 186.545C56.9102 196.57 71.9467 208.801 87.938 212.799C103.929 216.798 115.148 216.618 126.604 214.709C138.06 212.799 165.507 198.002 173.622 191.08C181.737 184.158 188.389 174.85 195.103 159.814C201.299 145.938 203.218 140.242 204.173 131.889C205.128 123.535 205.891 87.7336 206.321 85.5856C206.751 83.4375 213.243 83.1988 216.823 82.0054C220.403 80.8121 226.608 54.5578 221.358 48.5909C216.107 42.624 204.173 39.7599 194.865 38.0892C189.68 37.1586 131.616 43.8174 81.9711 43.8174C45.366 47.3247 21.8252 53.1257 21.8252 53.1257C21.8252 53.1257 7.26598 57.8992 2.73115 65.5368C-1.80368 73.1744 0.106048 88.211 2.73116 91.7911Z" fill="#7092BF"/>
<path fill-rule="evenodd" clip-rule="evenodd" d="M83.2216 45.2042C64.9822 46.9536 49.999 49.2729 39.5766 51.1546C34.3602 52.0964 30.2868 52.9285 27.5201 53.5246C26.1367 53.8226 25.08 54.0616 24.3706 54.2257C24.0158 54.3078 23.7479 54.3712 23.5693 54.4138C23.48 54.4352 23.413 54.4514 23.3687 54.4621L23.349 54.4669C23.3237 54.4754 23.2872 54.4877 23.2399 54.5039C23.1371 54.539 22.9837 54.5922 22.7857 54.663C22.3896 54.8045 21.8155 55.0162 21.111 55.2944C19.7007 55.8512 17.7756 56.6711 15.7148 57.7234C11.5285 59.8611 7.03111 62.8356 4.95065 66.3395C2.8621 69.8571 2.19658 75.2413 2.43165 80.3238C2.54795 82.8385 2.88217 85.219 3.34111 87.1731C3.81008 89.17 4.3784 90.5854 4.88691 91.2789C5.03462 91.4803 5.41939 91.7902 6.18567 92.1519C6.91935 92.4982 7.87453 92.8337 9.00385 93.1569C11.2607 93.8027 14.0735 94.3609 16.9037 94.8673C18.0219 95.0674 19.1493 95.2605 20.2409 95.4474C21.8786 95.7279 23.4355 95.9945 24.7589 96.2502C25.8675 96.4644 26.857 96.679 27.6337 96.8994C28.0213 97.0094 28.3813 97.1278 28.688 97.2581C28.9664 97.3764 29.3188 97.5521 29.5904 97.8237C29.8319 98.0652 29.9447 98.3482 30.0018 98.5242C30.0652 98.7199 30.1037 98.9259 30.1295 99.1182C30.1813 99.5034 30.1996 99.973 30.2014 100.485C30.2051 101.495 30.144 102.842 30.0737 104.391L30.0694 104.486C29.924 107.693 29.738 111.869 29.9386 116.275C30.428 127.018 32.5213 139.361 34.185 144.864L34.2072 144.937L34.2198 145.013C36.5768 159.155 43.9033 176.156 51.4152 186.015C58.9312 195.88 73.7533 207.918 89.4208 211.835C105.245 215.791 116.298 215.609 127.601 213.725C133.122 212.805 142.696 208.714 152.012 203.907C161.307 199.11 170.094 193.732 174.041 190.365C181.98 183.594 188.539 174.453 195.207 159.52C201.391 145.672 203.247 140.113 204.181 131.946C204.652 127.829 205.08 116.854 205.445 106.561C205.501 104.969 205.556 103.395 205.609 101.867C205.728 98.4751 205.838 95.3135 205.939 92.6991C206.013 90.8034 206.082 89.189 206.146 87.9793C206.208 86.8241 206.269 85.9201 206.344 85.545C206.569 84.4187 207.528 83.7784 208.323 83.4025C209.174 82.9998 210.246 82.7085 211.322 82.4666C212.062 82.3003 212.861 82.1459 213.639 81.9952C213.997 81.9261 214.35 81.8577 214.691 81.7894C215.801 81.5675 216.81 81.342 217.626 81.0711C217.631 81.0675 217.704 81.0272 217.84 80.8804C218.005 80.7036 218.203 80.4336 218.429 80.055C218.879 79.2987 219.365 78.2269 219.854 76.9009C220.828 74.2568 221.759 70.7462 222.421 67.0703C223.083 63.3922 223.466 59.6011 223.368 56.391C223.32 54.786 223.152 53.3578 222.853 52.1763C222.552 50.9834 222.139 50.1222 221.655 49.5727C219.237 46.8247 215.18 44.7002 210.434 43.0496C205.719 41.4096 200.481 40.2889 195.847 39.4572C195.357 39.3693 194.031 39.3589 191.806 39.4539C189.643 39.5461 186.769 39.7289 183.297 39.9754C179.903 40.2165 175.964 40.5164 171.577 40.8504C166.966 41.2015 161.859 41.5903 156.37 41.988C135.011 43.5356 108.073 45.2016 83.2216 45.2042ZM23.0185 53.3192C22.733 52.1605 22.7332 52.1604 22.7335 52.1603L22.7522 52.1557L22.8057 52.1427C22.8527 52.1313 22.9224 52.1145 23.0144 52.0925C23.1986 52.0485 23.4721 51.9838 23.8326 51.9004C24.5534 51.7336 25.6219 51.492 27.0174 51.1913C29.8085 50.5901 33.9081 49.7527 39.1525 48.8059C49.641 46.9122 64.7106 44.5802 83.0506 42.8229L83.1074 42.8174H83.1645C107.941 42.8174 134.833 41.1555 156.197 39.6075C161.656 39.212 166.769 38.8228 171.39 38.471C175.79 38.136 179.745 37.8349 183.128 37.5947C186.604 37.3479 189.505 37.1631 191.704 37.0693C193.84 36.9782 195.463 36.9633 196.269 37.108C200.944 37.9471 206.327 39.0938 211.218 40.7953C216.079 42.4861 220.615 44.7771 223.447 47.996C224.276 48.9382 224.817 50.2027 225.168 51.5923C225.521 52.9934 225.702 54.6046 225.754 56.3186C225.858 59.7467 225.45 63.7125 224.77 67.4931C224.089 71.2758 223.125 74.9254 222.093 77.7261C221.579 79.1225 221.034 80.3442 220.48 81.2754C220.203 81.7406 219.907 82.1628 219.589 82.5046C219.283 82.8341 218.886 83.1667 218.394 83.331C217.422 83.6548 216.282 83.9054 215.16 84.1298C214.785 84.2048 214.413 84.2766 214.047 84.3475C213.288 84.4943 212.55 84.6369 211.846 84.7953C210.798 85.0307 209.943 85.2764 209.343 85.5599C208.775 85.829 208.689 86.0113 208.683 86.0211C208.683 86.0228 208.682 86.0249 208.682 86.0273C208.68 86.037 208.678 86.0503 208.676 86.0674C208.671 86.1021 208.666 86.1474 208.66 86.2046C208.647 86.3193 208.634 86.4683 208.62 86.6528C208.591 87.0214 208.561 87.5095 208.53 88.106C208.466 89.298 208.398 90.8983 208.324 92.7916C208.223 95.4 208.113 98.5524 207.995 101.94C207.942 103.47 207.887 105.048 207.83 106.646C207.467 116.879 207.036 127.981 206.552 132.218C205.576 140.758 203.595 146.59 197.386 160.494C190.625 175.634 183.881 185.109 175.59 192.181C171.422 195.736 162.428 201.218 153.107 206.028C143.806 210.828 133.928 215.09 127.993 216.079C116.384 218.014 105 218.19 88.8419 214.151C72.5268 210.072 57.2759 197.646 49.5167 187.462C41.7668 177.29 34.3078 159.964 31.8781 145.481C30.1476 139.71 28.0481 127.224 27.5544 116.384C27.3481 111.856 27.5399 107.58 27.6851 104.378L27.6867 104.343C27.7592 102.744 27.8182 101.444 27.8147 100.494C27.813 100.03 27.7961 99.6903 27.7672 99.4601C27.7631 99.4584 27.7589 99.4566 27.7546 99.4548C27.5758 99.3788 27.3209 99.2916 26.9823 99.1955C26.3064 99.0038 25.3977 98.8045 24.3061 98.5936C22.9993 98.3411 21.494 98.0834 19.8836 97.8078C18.789 97.6204 17.6458 97.4248 16.4833 97.2167C13.645 96.7088 10.7295 96.1333 8.34718 95.4515C7.1569 95.1109 6.06472 94.7341 5.16688 94.3103C4.30164 93.9019 3.47071 93.3838 2.96214 92.6902C2.1581 91.5937 1.50329 89.787 1.01758 87.7188C0.521849 85.6081 0.169854 83.0808 0.0474438 80.4341C-0.194918 75.1939 0.452107 69.2411 2.89839 65.121C5.35277 60.9873 10.4023 57.7563 14.6294 55.5978C16.7752 54.502 18.7734 53.6513 20.2346 53.0744C20.9659 52.7856 21.5647 52.5647 21.9825 52.4154C22.1914 52.3408 22.3553 52.2839 22.4679 52.2454C22.5243 52.2261 22.5679 52.2115 22.5979 52.2014L22.6328 52.1898L22.6424 52.1866L22.6462 52.1854C22.6465 52.1853 22.6467 52.1852 23.0185 53.3192ZM23.0185 53.3192L22.6467 52.1852L22.6894 52.1712L22.733 52.1605L23.0185 53.3192Z" fill="black"/>
<path d="M102.296 101.443C102.296 102.629 101.334 103.591 100.148 103.591C98.9617 103.591 98 102.629 98 101.443C98 100.256 98.9617 99.2944 100.148 99.2944C101.334 99.2944 102.296 100.256 102.296 101.443Z" fill="black"/>
<path d="M100.3 100.65C100.3 101.009 100.009 101.3 99.65 101.3C99.291 101.3 99 101.009 99 100.65C99 100.291 99.291 100 99.65 100C100.009 100 100.3 100.291 100.3 100.65Z" fill="white"/>
<path d="M138.193 99.533C138.193 100.719 137.231 101.681 136.045 101.681C134.858 101.681 133.897 100.719 133.897 99.533C133.897 98.3466 134.858 97.3849 136.045 97.3849C137.231 97.3849 138.193 98.3466 138.193 99.533Z" fill="black"/>
<path d="M136.3 98.65C136.3 99.009 136.009 99.3 135.65 99.3C135.291 99.3 135 99.009 135 98.65C135 98.291 135.291 98 135.65 98C136.009 98 136.3 98.291 136.3 98.65Z" fill="white"/>
<path d="M136.63 135.57L135.806 147.475L148.402 145.237L148.018 134.922L136.63 135.57Z" fill="white"/>
<path fill-rule="evenodd" clip-rule="evenodd" d="M148.822 134.04C149.059 134.256 149.199 134.558 149.211 134.878L149.594 145.192C149.617 145.787 149.197 146.308 148.611 146.412L136.015 148.65C135.653 148.714 135.282 148.608 135.009 148.363C134.735 148.117 134.59 147.759 134.616 147.392L135.44 135.487C135.481 134.887 135.962 134.412 136.563 134.378L147.951 133.731C148.271 133.713 148.584 133.824 148.822 134.04ZM137.748 136.701L137.102 146.033L147.171 144.243L146.871 136.183L137.748 136.701Z" fill="black"/>
<path fill-rule="evenodd" clip-rule="evenodd" d="M171.361 143.549C171.438 144.203 170.969 144.796 170.315 144.873L76.754 155.852C76.0994 155.929 75.5064 155.461 75.4296 154.806C75.3528 154.151 75.8212 153.559 76.4758 153.482L170.036 142.503C170.691 142.426 171.284 142.894 171.361 143.549Z" fill="black"/>
<path d="M93.7993 142.972L96.6634 151.803L111.939 149.416L108.12 139.392L93.7993 142.972Z" fill="white"/>
<path fill-rule="evenodd" clip-rule="evenodd" d="M107.83 138.234C108.417 138.087 109.02 138.402 109.235 138.967L113.054 148.991C113.182 149.328 113.151 149.704 112.971 150.015C112.79 150.327 112.479 150.54 112.123 150.595L96.8477 152.982C96.2684 153.073 95.7092 152.729 95.5283 152.171L92.6642 143.34C92.5621 143.026 92.5952 142.683 92.7556 142.393C92.9159 142.104 93.1891 141.894 93.5099 141.814L107.83 138.234ZM95.3288 143.82L97.4847 150.467L110.299 148.464L107.382 140.806L95.3288 143.82Z" fill="black"/>
<path d="M73 127C73 131.418 69.4183 135 65 135C60.5817 135 57 131.418 57 127C57 122.582 60.5817 119 65 119C69.4183 119 73 122.582 73 127Z" fill="#FF9DC3"/>
<path d="M191 122C191 126.418 187.418 130 183 130C178.582 130 175 126.418 175 122C175 117.582 178.582 114 183 114C187.418 114 191 117.582 191 122Z" fill="#FF9DC3"/>
<path d="M105.868 14.8407C41.4699 24.8975 10.7053 85.9672 16.9013 88.8084C23.0973 91.6496 55.3239 75.754 61.193 69.7721C67.0622 63.7902 52.3673 90.5721 67.3622 94.0484C82.3571 97.5246 122.258 70.5947 122.258 70.5947C122.258 70.5947 116.462 91.7163 129.872 91.3464C143.282 90.9765 168.104 80.6761 183.137 70.7039C198.608 76.2386 207.5 79 209.5 75.5C211 68.5 200.982 55.6816 200.982 55.6816C184.702 32.282 157.605 7.71097 105.868 14.8407Z" fill="#501F03"/>
<path fill-rule="evenodd" clip-rule="evenodd" d="M105.723 13.8513L105.732 13.8501C131.791 10.259 151.715 14.6463 167.194 22.931C182.648 31.2029 193.597 43.3207 201.788 55.0889L201.802 55.1071C201.811 55.1186 201.822 55.1325 201.834 55.1487C201.85 55.1689 201.868 55.1929 201.889 55.2203C201.964 55.319 202.074 55.4634 202.212 55.6491C202.488 56.0202 202.88 56.5565 203.344 57.2212C204.272 58.5494 205.495 60.3975 206.673 62.4719C207.849 64.5421 208.994 66.8632 209.751 69.1342C210.5 71.3832 210.908 73.7007 210.478 75.7095L210.445 75.8613L210.368 75.9961C209.649 77.2544 208.353 77.8338 206.82 77.9997C205.304 78.1638 203.397 77.9472 201.161 77.4678C196.768 76.5262 190.772 74.4928 183.271 71.8137C175.738 76.7548 165.898 81.7383 156.264 85.5557C146.475 89.4346 136.784 92.1561 129.899 92.346C126.239 92.447 123.755 91.0586 122.204 88.8314C120.703 86.6751 120.154 83.8454 120.037 81.1526C119.919 78.4387 120.236 75.7339 120.576 73.7224C120.632 73.3923 120.689 73.0799 120.744 72.7884C119.639 73.5051 118.132 74.4697 116.317 75.5975C112.33 78.0755 106.853 81.3454 100.903 84.5081C94.9568 87.6683 88.5125 90.7349 82.5944 92.7947C76.7289 94.8362 71.1849 95.9611 67.1364 95.0225C65.0999 94.5504 63.5148 93.668 62.3227 92.466C61.1346 91.2681 60.3826 89.7994 59.9355 88.2199C59.0503 85.0931 59.3304 81.4249 59.8691 78.1987C60.1408 76.5717 60.4842 75.0257 60.7964 73.6816C60.8686 73.3711 60.9385 73.0734 61.0053 72.789C61.1704 72.0866 61.3164 71.4651 61.4294 70.931C59.7321 72.4781 56.7457 74.4606 53.1694 76.5347C49.1955 78.8395 44.3942 81.3131 39.5851 83.5086C34.7798 85.7023 29.9408 87.6301 25.8954 88.8324C23.8746 89.433 22.0239 89.861 20.4593 90.0447C18.9359 90.2235 17.5212 90.1927 16.4845 89.7174C15.6664 89.3422 15.3104 88.5465 15.1851 87.7817C15.0587 87.0107 15.1245 86.0729 15.3215 85.0395C15.7183 82.9586 16.703 80.213 18.2311 77.0334C21.2947 70.6588 26.6261 62.3681 34.1637 53.867C49.2393 36.8641 73.226 18.9262 105.714 13.8527L105.723 13.8513ZM123.223 70.8593L123.222 70.8609L123.22 70.8701L123.209 70.9107C123.199 70.9475 123.184 71.0035 123.166 71.0774C123.128 71.2253 123.074 71.4446 123.01 71.7251C122.881 72.2864 122.711 73.0908 122.548 74.0559C122.22 75.9932 121.926 78.5456 122.035 81.0659C122.146 83.6073 122.662 85.9886 123.846 87.6886C124.98 89.3177 126.8 90.4307 129.844 90.3468C136.369 90.1668 145.794 87.5532 155.527 83.6963C165.236 79.8492 175.136 74.8115 182.585 69.8706L183.002 69.5935L183.474 69.7624C191.224 72.5349 197.25 74.584 201.58 75.5122C203.75 75.9774 205.408 76.1408 206.605 76.0113C207.687 75.8942 208.252 75.5589 208.555 75.1254C208.821 73.6595 208.535 71.8119 207.853 69.7663C207.153 67.6651 206.075 65.4691 204.934 63.4596C203.795 61.4545 202.608 59.6605 201.704 58.3664C201.253 57.7201 200.873 57.2002 200.607 56.843C200.475 56.6645 200.37 56.5267 200.3 56.4342C200.264 56.388 200.237 56.3531 200.22 56.3301L200.2 56.3046L200.194 56.2974L200.177 56.2755L200.161 56.2527C192.074 44.6282 181.338 32.7703 166.25 24.6943C151.177 16.627 131.687 12.2937 106.014 15.8301C74.1078 20.8153 50.516 38.4389 35.6602 55.1938C28.2313 63.5723 23.0084 71.7103 20.0338 77.8997C18.5428 81.0021 17.6374 83.5722 17.2861 85.4142C17.1092 86.3422 17.0865 87.0176 17.1587 87.4582C17.194 87.6737 17.246 87.7945 17.2823 87.8539C17.2992 87.8817 17.3111 87.8935 17.3147 87.8967C17.3172 87.8991 17.3178 87.8993 17.3181 87.8994C17.8304 88.1343 18.7782 88.2283 20.2261 88.0583C21.6327 87.8932 23.3621 87.4988 25.3256 86.9153C29.2487 85.7493 33.9949 83.862 38.7545 81.6892C43.5101 79.5182 48.2532 77.0739 52.1661 74.8046C56.1125 72.5158 59.1175 70.4596 60.4793 69.0717C60.8587 68.6849 61.2175 68.3637 61.5488 68.1641C61.7124 68.0656 61.9399 67.9527 62.2091 67.9163C62.5145 67.8751 62.8835 67.9355 63.1892 68.2047C63.457 68.4406 63.5597 68.7373 63.6039 68.9279C63.6506 69.1292 63.6598 69.3333 63.6567 69.5107C63.6505 69.8666 63.5897 70.2902 63.5078 70.7342C63.3796 71.429 63.1731 72.3074 62.9439 73.2828C62.8788 73.5595 62.812 73.8439 62.7446 74.1342C62.435 75.4667 62.103 76.964 61.8418 78.5281C61.3148 81.6842 61.0996 84.9895 61.8599 87.6751C62.2354 89.0017 62.8414 90.1489 63.7427 91.0577C64.64 91.9623 65.8759 92.6773 67.5881 93.0742C71.037 93.8738 76.1038 92.9361 81.937 90.9058C87.7176 88.8939 94.0602 85.8799 99.964 82.7421C105.863 79.6069 111.299 76.3616 115.262 73.8988C117.242 72.6678 118.853 71.6333 119.969 70.9071C120.526 70.544 120.96 70.258 121.253 70.0631C121.4 69.9656 121.512 69.891 121.587 69.8409L121.671 69.7843L121.692 69.7702L121.697 69.7668L121.698 69.766C121.699 69.7658 121.699 69.7658 122.258 70.5947L121.698 69.766L123.937 68.255L123.223 70.8593Z" fill="black"/>
</svg>
