<svg width="76" height="76" viewBox="0 0 76 76" fill="none" xmlns="http://www.w3.org/2000/svg">
<path fill-rule="evenodd" clip-rule="evenodd" d="M15 5C9.47705 5 5 9.47705 5 15V61C5 66.5229 9.47705 71 15 71H61C66.5229 71 71 66.5229 71 61V15C71 9.47705 66.5229 5 61 5H15ZM14.498 34.0918L18.834 50H23.4336L26.1875 39.8926H26.3926L29.1465 50H33.7168L38.082 34.0918H33.6875L31.2266 44.7852H31.0801L28.4434 34.0918H24.1367L21.5293 44.8438H21.3828L18.8926 34.0918H14.498ZM41.1968 43.0273C41.2822 47.2998 45.0591 50.3418 50.2202 50.3418C55.7915 50.3418 59.5854 46.77 59.5854 41.7627C59.5854 37.0117 56.2017 33.6108 51.6558 33.6279C49.4854 33.6108 47.6055 34.4995 46.6997 35.7129H46.4946L47.1782 29.458H58.1841V25.2539H42.9399L41.6069 39.5068H46.2554C46.9902 38.1226 48.2891 37.4219 50.1519 37.4219C52.7495 37.439 54.6123 39.2676 54.5952 41.8994C54.6123 44.48 52.7837 46.2915 50.2202 46.2744C48.0669 46.2915 46.3066 44.9585 46.187 43.0273H41.1968Z" fill="white"/>
</svg>
